<?xml version="1.0" standalone="no"?>
<!DOCTYPE svg PUBLIC "-//W3C//DTD SVG 1.1//EN" "http://www.w3.org/Graphics/SVG/1.1/DTD/svg11.dtd" >
<svg xmlns="http://www.w3.org/2000/svg" xmlns:xlink="http://www.w3.org/1999/xlink" version="1.1">
<metadata></metadata>
<defs>
<font id="fuzzy_bubblesregular" horiz-adv-x="1388" >
<font-face units-per-em="2048" ascent="1638" descent="-410" />
<missing-glyph horiz-adv-x="800" />
<glyph unicode="&#xfb01;" horiz-adv-x="1214" d="M72 877q0 29 41 46t104.5 28.5t126.5 21.5q2 162 49 293t141.5 207.5t235.5 76.5q25 0 68 -3t88 -13t76.5 -31.5t31.5 -58.5q0 -33 -22.5 -54.5t-42.5 -21.5q-23 0 -44.5 6t-47.5 15q-29 10 -57.5 16t-61.5 6q-76 0 -126 -39t-80 -102.5t-42 -138t-12 -146.5h284 q14 0 34 -21.5t20 -43.5q0 -39 -40 -48.5t-75 -13.5q-14 0 -48 -5t-75 -10t-75 -9.5t-48 -4.5q-4 -55 -8 -144t-8 -198.5t-7 -224.5t-3 -223q0 -39 -10.5 -80t-57.5 -41q-27 0 -51.5 25.5t-24.5 58.5v813h-57q-25 0 -49.5 -5t-51.5 -5q-76 0 -75 72zM930 281q0 29 1 58.5 t1 55.5q0 8 6 54.5t14 107.5t17.5 121.5t15.5 95.5q6 27 14.5 71t30 80t62.5 36q47 0 66.5 -17.5t19.5 -54.5q0 -10 -1.5 -20.5t-3.5 -22.5q-10 -66 -25.5 -163t-26.5 -202.5t-7 -199.5q2 -23 5 -52.5t3 -58.5q0 -53 -22.5 -96t-100.5 -43q-29 0 -44 36.5t-20 94t-5 119.5z " />
<glyph unicode="&#xfb02;" horiz-adv-x="1445" d="M72 877q0 29 41 46t104.5 28.5t126.5 21.5q2 162 49 293t141.5 207.5t235.5 76.5q25 0 68 -3t88 -13t76.5 -31.5t31.5 -58.5q0 -33 -22.5 -54.5t-42.5 -21.5q-23 0 -44.5 6t-47.5 15q-29 10 -57.5 16t-61.5 6q-76 0 -126 -39t-80 -102.5t-42 -138t-12 -146.5h284 q14 0 34 -21.5t20 -43.5q0 -39 -40 -48.5t-75 -13.5q-14 0 -48 -5t-75 -10t-75 -9.5t-48 -4.5q-4 -55 -8 -144t-8 -198.5t-7 -224.5t-3 -223q0 -39 -10.5 -80t-57.5 -41q-27 0 -51.5 25.5t-24.5 58.5v813h-57q-25 0 -49.5 -5t-51.5 -5q-76 0 -75 72zM1099 336 q0 102 6.5 248.5t17.5 309.5t26.5 318.5t33.5 276.5q16 59 44 86t55 27q25 0 44 -23t19 -63v-14.5t-2 -14.5q-51 -248 -65.5 -518.5t-14.5 -519.5q0 -102 3 -181.5t3 -163.5q0 -45 -19 -79.5t-50 -34.5q-39 0 -59.5 30.5t-28.5 75.5t-9.5 90t-1.5 72q0 16 -1 36.5t-1 41.5z " />
<glyph horiz-adv-x="0" />
<glyph horiz-adv-x="682" />
<glyph unicode="&#xd;" horiz-adv-x="1228" />
<glyph unicode=" "  horiz-adv-x="800" />
<glyph unicode="&#x09;" horiz-adv-x="800" />
<glyph unicode="&#xa0;" horiz-adv-x="800" />
<glyph unicode="!" horiz-adv-x="925" d="M406 98q0 51 33.5 96.5t92.5 45.5q47 0 70 -30t23 -71q0 -51 -33 -96t-92 -45q-47 0 -70.5 30.5t-23.5 69.5zM459 1303q-2 68 13 124t75 89q23 12 37 12q31 0 46 -32t21 -81t6 -102q0 -57 -4 -108.5t-6 -76.5q-8 -100 -15 -201.5t-14 -203.5q-4 -70 -3 -158t-27 -153 q-16 -41 -51 -41q-31 0 -48 37q-6 16 -8 35.5t-2 39.5t1 41t1 35q0 61 1 114.5t1 102.5v63.5t-4 61.5q-8 88 -12 200.5t-8 201.5z" />
<glyph unicode="&#x22;" horiz-adv-x="942" d="M92 1280q0 8 8 23q6 10 14.5 20t16.5 23q14 14 41 43.5t52.5 57.5t31.5 34q16 16 28.5 37.5t24.5 42.5q10 20 22.5 40.5t26.5 40.5q49 78 99 78q20 0 35.5 -14t15.5 -47q0 -37 -28.5 -90t-74 -109.5t-97.5 -105.5t-99 -80t-78 -31q-39 0 -39 37zM467 1280q0 8 8 23 q6 10 15.5 20t17.5 23q12 14 39.5 43.5t53.5 57.5t30 34q29 33 53 80q12 20 23.5 40.5t25.5 40.5q49 78 98 78q23 0 37.5 -14t14.5 -47q0 -37 -29 -90t-74 -109.5t-97 -105.5t-99 -80t-78 -31q-39 0 -39 37z" />
<glyph unicode="#" horiz-adv-x="1622" d="M82 520q0 45 43 52.5t92 11.5l129 6q86 10 107 51l6 13q6 14 8 26q4 16 13 57t19.5 89t20.5 90t15 61v33l-37 37h-64q-49 0 -103.5 5t-93 23.5t-38.5 54.5q0 66 98 66q49 0 91 -5t91 -5h86q31 39 43.5 73.5t16.5 67.5t6 65.5t6 63.5q8 66 24.5 90.5t55.5 24.5 q31 0 41 -14.5t10 -71.5q0 -63 -15.5 -131t-15.5 -146l35 -30q68 -10 112 -12.5t101 -2.5h94q33 16 43.5 45t12.5 43q4 18 11 57.5t15 82.5q8 49 15.5 87t11.5 50q8 41 24.5 58.5t51.5 17.5q33 0 54 -19.5t21 -56.5v-6l-55 -248v-111q45 0 67.5 1t43.5 1h35.5t37.5 -4 q37 -8 50.5 -20.5t13.5 -30.5t-14.5 -34.5t-18.5 -16.5h-254l-6 -15q-6 -16 -13 -34.5t-7 -26.5q0 -4 -5 -11l-4 -7q-4 -35 -12 -83t-18 -94l-17 -81q-6 -39 -6 -48v-98l19 -4q20 -4 44.5 -8t39.5 -6l77 -6q41 -2 68 -13q27 -8 39 -20t12 -39q0 -29 -14.5 -34t-38.5 -5 q-57 0 -107.5 9t-107.5 9q-20 0 -44 -13t-30 -32v4q-4 -16 -11 -52t-16.5 -78t-16.5 -76.5t-11 -51.5q-8 -43 -64 -43q-63 0 -63 66q0 59 15.5 116.5t15.5 116.5q0 12 -9.5 38t-54.5 26h-281q-18 0 -39.5 -22.5t-25.5 -71.5q-2 -25 -5 -57.5t-7 -67.5q-8 -51 -21.5 -97.5 t-62.5 -46.5q-72 0 -72 107q0 47 10.5 99t10.5 112l-37 35h-244q-14 0 -28.5 16t-14.5 49zM596 629l47 -43q78 -8 132 -10.5t112 -2.5h110l84 371v39q0 8 -1 14.5t-1 10.5q-2 6 -6 17t-14 19q-6 6 -20.5 10.5t-43.5 4.5h-245q-35 0 -56.5 -40t-29.5 -65q-6 -16 -14.5 -44.5 t-14.5 -54.5t-6 -36l-5 -31q-6 -30 -14 -67t-14 -55v-37z" />
<glyph unicode="$" horiz-adv-x="1196" d="M92 373q0 39 14.5 58.5t53.5 19.5q8 0 32.5 -7.5t36.5 -23.5q23 -63 59 -128t100.5 -109t168.5 -44q100 0 180 21.5t126 70t46 129.5q0 59 -37.5 103.5t-85.5 68.5q-131 66 -231 112t-169 89t-104.5 103.5t-35.5 154.5q0 145 124 223t322 78q47 0 111.5 -10t127 -31.5 t103.5 -55.5t41 -83q0 -27 -22.5 -48.5t-53.5 -21.5q-45 0 -74.5 16.5t-64.5 37.5q-39 25 -89 46t-128 21q-59 0 -114.5 -20.5t-91.5 -56t-36 -82.5q0 -61 37 -105.5t88 -77.5q25 -14 53.5 -28.5t59.5 -28.5q29 -14 60.5 -27.5t62.5 -27.5q86 -37 156.5 -83t113.5 -109.5 t43 -156.5q0 -115 -71.5 -195.5t-184 -122.5t-239.5 -42q-152 0 -261.5 48t-168 132t-58.5 193zM315 -197q-4 20 2 41q14 53 41 152.5t62 230.5t73.5 280.5t78.5 303.5t77 298t68 266t53 206q18 74 37 78q12 2 24 -19q20 -33 27 -65q4 -29 -2 -59q-35 -158 -81 -342.5 t-96 -377t-99.5 -378t-92.5 -347t-73 -280.5q-10 -47 -39 -53q-25 -4 -45 26q-2 6 -7.5 16.5t-7.5 22.5z" />
<glyph unicode="%" horiz-adv-x="1415" d="M102 1098q0 92 42 165.5t117 116.5t171 43q68 0 121 -34.5t84 -92t31 -122.5q0 -96 -44 -168t-118 -111t-168 -39h-82q-82 16 -118 82t-36 160zM219 1104q0 -57 40 -91t95 -34q72 0 124 52t52 124q0 49 -32.5 87t-85.5 38q-47 0 -91.5 -22.5t-73 -62.5t-28.5 -91zM299 94 q0 33 12 58q4 16 11.5 29.5t11.5 29.5q12 23 43 76t67.5 115.5t68.5 114.5t46 73q10 16 41 58t72 98.5t83 114t76.5 104.5t53.5 69q10 10 36.5 42t59.5 69q37 45 75 89t64 71q14 18 35 32q12 12 21 13q20 0 46.5 -7.5t47 -21.5t20.5 -37t-2 -24q-2 -6 -7 -12.5t-9 -12.5 q-14 -14 -49 -47t-74 -71t-73 -69.5t-46 -46.5q-6 -4 -14 -14l-17 -20q-16 -16 -28 -33l-334 -471l-11 -19q-10 -20 -14 -34l2 6q-4 -10 -19 -47t-34.5 -82t-36 -82t-20.5 -49l-23 -45q-2 -10 -8 -18.5t-10 -18.5q-10 -10 -22 -17.5t-35 -7.5q-31 0 -69 12.5t-38 32.5z M791 272q0 90 38.5 162t107.5 115t155 43q113 0 188.5 -77t75.5 -196v-67q-33 -102 -115 -167t-188 -65q-119 0 -190.5 68t-71.5 184zM918 279q0 -59 44 -92t95 -33q61 0 112.5 47t51.5 114q-2 63 -38 97t-98 37q-74 0 -120.5 -52.5t-46.5 -117.5z" />
<glyph unicode="&#x26;" horiz-adv-x="1480" d="M92 258v193q0 53 34 105t79 97t78 76q18 12 73 57q25 18 49.5 38t28.5 24q6 4 11.5 9t7.5 7q18 16 23 28.5t5 39.5q0 49 -6 97t-6 97q0 98 37 186.5t105.5 143.5t162.5 55q102 0 169 -67.5t67 -177.5q0 -96 -43 -163t-111 -126q-23 -20 -47.5 -41t-48.5 -41 q-41 -23 -41 -70q0 -14 21.5 -57t54 -97.5t71.5 -104.5t75 -83.5t60 -33.5h39l129 272q16 29 60 29q35 0 49 -15.5t14 -48.5q0 -41 -19.5 -81t-39.5 -75q-27 -47 -48.5 -96t-21.5 -102q0 -33 15.5 -56.5t35.5 -39.5q20 -14 42 -27.5t42 -26.5q45 -25 69 -48t24 -58 q0 -41 -9 -53h-24q-45 0 -82 19t-74 46q-20 16 -38.5 29.5t-37.5 25.5q-20 10 -42.5 19.5t-51.5 9.5h-37q-104 -92 -210.5 -142t-227.5 -50q-131 0 -246.5 43t-179.5 147l-25 51q-4 12 -9 22.5t-5 14.5zM231 365q0 -88 49.5 -142.5t121.5 -79t135 -24.5q96 0 190 43t160 131 q-16 43 -36 69.5t-36 45.5q-14 18 -30.5 35.5t-28.5 31.5q-2 6 -9.5 16.5l-17.5 24.5l-22.5 31.5t-26.5 36.5q-25 35 -46.5 63.5t-25.5 36.5l2 -8q-8 18 -28 36l-21 17q-33 4 -77 -22.5t-88 -71.5t-82 -96.5t-60.5 -98.5t-22.5 -75zM609 1126.5q-1 -22.5 1 -45.5 q4 -41 24.5 -68.5t51.5 -27.5h27q39 33 81 75t70.5 94t28.5 112q0 25 -10.5 56.5t-36 56t-72.5 24.5q-55 0 -91 -45t-54.5 -102.5t-18.5 -98.5q0 -8 -1 -30.5z" />
<glyph unicode="'" horiz-adv-x="466" d="M61 1280q0 8 9 23q6 10 15 20t17 23q12 14 40 43.5t53.5 57.5t29.5 34q16 16 29.5 36.5t24.5 41.5q10 20 22 40.5t27 40.5q51 80 98 80q23 0 37 -14t14 -49q0 -37 -28.5 -89t-73.5 -108.5t-97.5 -105.5t-99.5 -80t-78 -31q-39 0 -39 37z" />
<glyph unicode="(" horiz-adv-x="974" d="M143 768q0 178 64.5 347t184.5 309.5t284 230.5q57 33 99 50t91 17q47 0 62.5 -12t15.5 -29q0 -43 -70 -77q-16 -10 -34.5 -18.5t-36.5 -16.5q-14 -8 -31.5 -16.5t-34.5 -18.5q-135 -84 -236.5 -209t-156.5 -271.5t-55 -295.5q0 -125 45 -254t135 -223q18 -16 49 -45 t58.5 -53.5t33.5 -30.5q16 -12 34 -23.5t34 -22.5q16 -8 34.5 -18t32.5 -20q63 -43 64 -86q0 -27 -1 -38.5t-11 -15.5h-33q-45 0 -83 18.5t-75 43.5q-12 10 -25.5 19t-27.5 20q-193 133 -301.5 325.5t-108.5 413.5z" />
<glyph unicode=")" horiz-adv-x="954" d="M31 -68q0 37 51 68q14 10 30.5 17.5t30.5 13.5q16 10 35 17t33 15q160 86 254 223.5t135 298t41 312.5q0 139 -38 270t-128 244q-14 16 -36.5 36.5t-47.5 41.5q-27 23 -56.5 45t-58.5 45q-47 39 -89 68.5t-42 44.5q0 35 10.5 44t55.5 9q33 0 68.5 -15.5t72.5 -41.5 q219 -150 339 -342.5t120 -448.5q0 -174 -59.5 -342t-169 -312.5t-263.5 -244.5q-29 -18 -68.5 -44t-82.5 -45.5t-80 -19.5q-33 0 -45 10.5t-12 32.5z" />
<glyph unicode="*" horiz-adv-x="1034" d="M82 809q0 29 9 41t38 33q18 12 63.5 40.5t94.5 59.5t75 49v35q0 14 -16 33.5t-55 34.5q-16 4 -40 11t-48 15q-33 14 -66 31.5t-33 52.5q0 23 7.5 29t27.5 6q31 0 56.5 -7t52.5 -18q29 -14 60.5 -29.5t76.5 -35.5q37 0 51.5 19.5t14.5 47.5q0 35 -5.5 70t-5.5 74 q0 35 19.5 57.5t58.5 22.5q29 0 42 -15.5t18 -56.5q2 -8 2 -17.5v-19.5v-26.5t-2 -24.5q-2 -25 -3.5 -49.5t-1.5 -54.5l45 -50q72 35 144 68t125 33q57 0 57 -68q0 -14 -13 -28.5t-50 -30.5q-37 -14 -80 -24.5t-92 -26.5v-46q0 -37 24.5 -60t50.5 -40q8 -2 15.5 -7t15.5 -9 q61 -39 62 -74q0 -37 -19.5 -57.5t-46.5 -20.5q-25 0 -43 11.5t-39 31.5q-10 10 -20.5 23.5t-20.5 25.5q-10 14 -28.5 32t-59.5 52l-47 -59v-262q0 -16 -22.5 -19.5t-34.5 -3.5q-6 0 -15.5 -2t-19.5 -2q-20 0 -21 14v281q-61 0 -88.5 -10t-46.5 -23q-16 -14 -30.5 -28.5 l-30.5 -30.5q-20 -23 -43 -44.5t-51 -21.5q-29 0 -48.5 20.5t-19.5 47.5z" />
<glyph unicode="+" horiz-adv-x="1116" d="M61 752q0 29 20.5 51t47.5 22h352q0 102 -5 174t-5 140v59q4 14 24.5 26.5t43.5 12.5q74 0 73 -109v-303q109 0 195 6.5t162 6.5q41 0 58 -15.5t17 -38.5q0 -33 -15 -50l-15 -17h-389v-400q0 -10 -18.5 -16t-26.5 -6q-18 0 -47 5t-29 30v336l-58 28h-53q-57 0 -115.5 -6 t-117.5 -6h-72q-12 4 -19.5 17.5t-7.5 52.5z" />
<glyph unicode="," horiz-adv-x="598" d="M41 -195q0 8 8 23q6 10 15.5 20.5t17.5 22.5q12 14 40 44t53.5 57.5t29.5 33.5q16 16 29.5 38t23.5 42t22.5 40.5t26.5 41.5q51 80 99 80q23 0 37 -15.5t14 -48.5q0 -37 -29 -90t-74 -109.5t-97 -105.5t-99 -79.5t-78 -30.5q-39 0 -39 36z" />
<glyph unicode="-" horiz-adv-x="937" d="M143 508q0 63 33 67q100 10 172 15.5t131.5 8.5t121 5t136.5 4q20 0 39 -24.5t19 -63.5q0 -12 -10.5 -32.5t-24.5 -18.5q-98 4 -228 -5t-331 -9q-33 0 -45.5 12t-12.5 41z" />
<glyph unicode="." horiz-adv-x="598" d="M297 98q0 51 34 96.5t93 45.5q47 0 70.5 -30t23.5 -71q0 -51 -34 -96t-93 -45q-47 0 -70.5 30.5t-23.5 69.5z" />
<glyph unicode="/" horiz-adv-x="1511" d="M76 -8q0 23 14 43q39 55 110.5 158.5t165 240.5t199 294t213 317.5t208.5 311t186 277.5t143 215q51 78 82 78q20 0 35 -24q25 -39 24 -78q0 -33 -18 -64q-102 -166 -228.5 -358.5t-262.5 -394t-268 -395t-247 -361.5t-199 -295q-32 -49 -79 -49q-39 0 -64 37q-4 8 -9 20 t-5 27z" />
<glyph unicode="0" horiz-adv-x="1570" d="M111 635q0 246 98 419t277.5 264t422.5 91q102 0 207 -28.5t156 -102.5q90 -125 138 -253t48 -273q0 -219 -89 -386t-251 -261.5t-383 -94.5q-135 0 -261 54.5t-219 153.5t-134 235q-8 37 -9 93t-1 89zM262 668q0 -100 39 -193.5t107.5 -167.5t162 -115.5t199.5 -41.5 q84 0 175 38.5t172 105t131 152.5t50 179v252l-6 21q-6 20 -14 42.5t-16 28.5q-2 4 -8.5 18t-12.5 29l-35 69q-10 23 -35.5 38.5t-54.5 25.5l-39 12q-8 4 -11 7t-7 6l-45 36q-8 8 -19.5 15.5t-21.5 15.5q-25 14 -52.5 21.5t-66.5 7.5q-123 0 -230.5 -49.5t-188.5 -135.5 t-127 -193.5t-46 -223.5z" />
<glyph unicode="1" horiz-adv-x="913" d="M92 86q0 25 20.5 39t71.5 25q25 4 48.5 7t41.5 5q41 6 60.5 24.5t19.5 34.5l58 766v98q-49 0 -67.5 -3t-29.5 -7q-8 -2 -16 -7t-18 -9q-16 -8 -28.5 -12.5t-25.5 -4.5q-27 0 -46 17.5t-19 36.5q0 51 57 102q12 12 27.5 23.5t32.5 23.5q16 10 31.5 22.5t27.5 22.5 q16 12 31.5 26.5t27.5 26.5l24.5 24.5t24.5 23.5q41 39 91 39q8 0 18 1t18 1q12 0 21.5 -4.5t9.5 -20.5v-135l-80 -690v-357q84 0 136.5 10.5t103.5 10.5q39 0 53 -12.5t14 -40.5q0 -37 -16 -53.5t-57 -20.5q-27 -4 -85.5 -13.5t-132 -22.5t-148.5 -26.5t-135 -22.5t-89 -14 h-31q-20 0 -32.5 11.5t-12.5 54.5z" />
<glyph unicode="2" horiz-adv-x="1185" d="M111 145q0 109 64.5 209.5t152.5 180.5q18 12 64 45.5t98.5 72.5t96.5 71t60 44q78 59 136.5 137t58.5 189q0 59 -29 111t-79 84t-113 32q-104 0 -171 -39t-116 -80q-10 -10 -22.5 -19t-22.5 -20q-27 -23 -55.5 -40t-67.5 -17q-10 0 -21.5 13.5t-11.5 41.5 q0 63 52.5 117.5t132 95.5t164.5 63.5t149 22.5q109 0 193.5 -51t134 -137t49.5 -189q0 -115 -67 -220t-159 -177l-393 -293l-151 -149h139q98 0 192.5 16t194.5 16h44t52 -2q29 0 57.5 -3t55.5 -7q111 -23 110 -86q0 -33 -16 -48t-59 -15q-68 0 -134.5 11t-142.5 11h-94 l-399 -65h-52q-47 0 -61 14t-14 59z" />
<glyph unicode="3" horiz-adv-x="1216" d="M92 223q0 18 19.5 35.5t48.5 17.5q16 0 47 -12l67 -35q37 -20 86.5 -39.5t106.5 -19.5q70 0 150.5 16.5t154.5 52t121 93t47 139.5q0 86 -50 144.5t-128 92t-162 51t-149 21.5q-16 14 -17 54q0 20 16.5 34.5t59.5 26.5q23 6 45.5 10t42.5 8q23 4 44.5 8.5t39.5 12.5 q47 18 99.5 54t89 83t36.5 98q0 76 -40 123t-99 68.5t-115 21.5q-76 0 -133 -26.5t-100 -55.5q-20 -14 -39 -27t-39 -24q-33 -18 -63 -18q-33 0 -49.5 14.5t-16.5 28.5q0 49 36 89t93 69.5t120.5 49t121 30t92.5 10.5q102 0 187 -42t136.5 -115t51.5 -165q0 -94 -41 -165.5 t-113 -149.5v-60q100 -80 154.5 -158.5t54.5 -185.5q0 -106 -53.5 -191t-140.5 -145.5t-192.5 -92.5t-209.5 -32q-43 0 -112.5 12.5t-140.5 37t-118 62.5t-47 91z" />
<glyph unicode="4" horiz-adv-x="1216" d="M72 731q0 47 9 98.5t30 83.5l198 422q25 49 80 49q23 0 45.5 -21.5t22.5 -51.5q0 -12 -1 -17.5t-3 -9.5q-4 -8 -10.5 -20.5t-16.5 -32.5q-27 -59 -61.5 -118.5t-63.5 -119.5q-33 -63 -54.5 -136t-21.5 -181h197q6 0 51 3t95 8t75 11h-6q14 2 52 14.5t72 28t36 27.5 l110 621q6 35 20.5 48t45.5 13q41 0 59.5 -15.5t18.5 -37.5q0 -14 -4.5 -30.5t-12.5 -37.5q-8 -23 -16 -47.5t-12 -50.5q-4 -25 -11.5 -81t-15.5 -122.5t-15.5 -124t-11.5 -82.5v-14q0 -31 18.5 -47.5t30.5 -22.5t29 -11t31 -11q55 -20 55 -60q0 -47 -41 -66.5t-129 -19.5 l-26 -53l-25 -522q0 -4 -11.5 -14.5t-31.5 -10.5q-37 0 -56.5 19.5t-29.5 58.5q-6 20 -8 43t-4 47v90q0 72 6 147t6 158l-39 37h-63q-82 0 -164 -5t-164 -5h-146q-66 29 -92 64.5t-26 107.5z" />
<glyph unicode="5" horiz-adv-x="1206" d="M102 698q0 27 8.5 60t22.5 71q8 20 14.5 40t12.5 38q14 37 20 76q4 20 9.5 68.5t10.5 107t9 109.5t6 75q20 43 68.5 60.5t108 22t106.5 4.5q-16 0 5 1t66 3t99.5 3t103.5 2t80 1h12h78t76 -10q33 -8 49 -26t16 -50q0 -27 -25.5 -38t-58 -13.5t-57.5 -2.5h-465 q-14 0 -43 -6q-8 -2 -17 -3t-26 -1l-37 -37q0 -16 -1 -25t-3 -18q0 -8 -1 -16t-3 -14q-6 -20 -17.5 -67.5t-21.5 -93.5t-18 -65v-73q78 0 127 9t90 19q35 10 72.5 18.5t74.5 8.5q129 0 229.5 -33t157 -105.5t56.5 -193.5q0 -129 -58.5 -247.5t-157 -213t-223.5 -149.5 t-258 -55q-33 0 -73.5 1t-71.5 16t-31 56v31q0 14 3 27.5t14 17.5q41 0 73.5 -1t63.5 -1q35 0 69.5 3t73.5 11q80 16 159 63.5t143.5 115t103.5 147.5t39 166t-46.5 132t-113 64.5t-129.5 18.5q-78 0 -152.5 -18.5t-146.5 -63.5q-25 -14 -57.5 -38.5t-66.5 -43t-65 -18.5 q-33 0 -59.5 24.5t-26.5 48.5z" />
<glyph unicode="6" horiz-adv-x="1288" d="M102 588q0 240 104.5 434.5t287.5 361.5q45 41 79.5 63.5t75.5 22.5q68 0 68 -65q0 -12 -14.5 -26.5t-24.5 -22.5l-12.5 -12.5t-14.5 -12.5q-51 -47 -103 -96t-99 -102q-45 -51 -85 -111.5t-75 -142.5q0 -10 -3 -17.5l-7 -17.5q-4 -14 -8.5 -29.5t-4.5 -21.5v-66 q51 0 82 12.5t53 30.5l33 27q8 8 17 12q90 47 165.5 74.5t176.5 27.5q106 0 198 -48t149.5 -131t57.5 -187q0 -109 -52 -202t-139 -163.5t-192 -109.5t-209 -39q-160 0 -272.5 75.5t-172 202.5t-59.5 279zM256 471q0 -74 36 -130t91 -94t117.5 -57.5t113.5 -19.5 q111 0 206 48t154.5 132t59.5 195q0 115 -61.5 181.5t-179.5 66.5q-109 0 -194 -49.5t-157 -120.5q-23 -20 -44 -44t-42 -47l-4 -1t-14 -3t-25.5 -2h-56.5v-55z" />
<glyph unicode="7" horiz-adv-x="1144" d="M92 1262q0 27 20.5 44t47.5 17q29 0 58.5 -4t57.5 -10q35 -6 68 -12.5t68 -6.5h82l487 88h29q66 0 65 -65q0 -10 1 -18.5t1 -14.5q-125 -156 -225 -316.5t-193 -338.5q-43 -82 -87 -194t-68 -202v2q-4 -14 -12.5 -49t-16.5 -73q-8 -35 -15 -68t-11 -43q-19 -80 -68 -80 q-43 0 -60.5 31t-17.5 86q0 84 20.5 154.5t53.5 152.5q55 139 109.5 258t120 240t149.5 258v76q-119 0 -203 -10.5t-172 -10.5q-31 0 -79 2t-96 12.5t-81 33t-33 61.5z" />
<glyph unicode="8" horiz-adv-x="1378" d="M102 324q0 141 98.5 235t260.5 166v39q0 4 -3 15.5t-20 25.5q-4 4 -11 10t-15 12l-72 70q-39 45 -67.5 96t-28.5 103q0 61 40 123.5t104.5 114.5t138 84t141.5 32h284q39 0 70 -28.5t37 -71.5v-58q23 -53 41 -84l33 -47q10 -16 18 -38.5t8 -69.5q0 -76 -33.5 -136.5 t-99.5 -123.5v-64q109 -68 180.5 -137.5t71.5 -171.5q0 -121 -58.5 -210t-155.5 -146.5t-215 -86t-237 -28.5q-86 0 -176 24.5t-165.5 72.5t-122 117.5t-46.5 160.5zM254 346q0 -70 41 -119t105.5 -79.5t133 -45t123.5 -14.5t134 18.5t156 54.5t128 90t51 126q0 74 -44 125 t-108.5 82.5t-131 46t-109.5 14.5q-41 0 -101.5 -15.5t-126 -42t-122.5 -64.5t-93 -83t-36 -94zM395 1085q0 -59 38 -107t94.5 -82t115.5 -51.5t102 -17.5q49 0 111 29t107 80t45 117q0 72 -36 130t-95.5 93t-131.5 35q-49 0 -108 -14.5t-114.5 -42t-91.5 -70.5t-36 -99z " />
<glyph unicode="9" horiz-adv-x="1226" d="M92 1040q0 156 73 247t197.5 132t278.5 41q152 0 260.5 -72.5t166.5 -194.5t58 -269t-59 -295t-156.5 -279t-210.5 -233q-37 -33 -78 -65t-90 -32q-45 0 -66.5 14.5t-21.5 51.5q0 29 28 61.5t79 71.5q25 18 50.5 35.5t47.5 34.5q23 16 45.5 33.5t36.5 35.5q23 29 52.5 63 t54.5 73q29 41 49 92t20 133q-55 0 -78.5 -4t-37.5 -10q-10 -4 -20.5 -10.5t-22.5 -10.5q-55 -20 -108.5 -30.5t-107.5 -10.5q-199 0 -319.5 104.5t-120.5 292.5zM233 1030q0 -86 44.5 -143.5t113 -86t141.5 -28.5h76q6 0 38 9.5t68 19.5t54 16q29 10 52.5 29.5t39.5 40.5 q16 18 30.5 37.5t27.5 33.5l14 15l8 6q16 12 19.5 26.5t3.5 34.5q0 72 -39 125.5t-98.5 91t-126 56t-121.5 18.5q-86 0 -165 -38t-129.5 -105.5t-50.5 -157.5z" />
<glyph unicode=":" horiz-adv-x="436" d="M111 901q0 35 30.5 57.5t71.5 22.5q49 0 74.5 -17.5t25.5 -74.5q0 -43 -19.5 -60.5t-66.5 -17.5q-51 0 -83.5 22.5t-32.5 67.5zM127 215q0 43 21.5 61.5t78.5 18.5q41 0 63.5 -20.5t22.5 -69.5v-66q0 -2 -7 -6t-11 -4h-51q-63 0 -90 17.5t-27 68.5z" />
<glyph unicode=";" horiz-adv-x="598" d="M41 -199q0 6 8 21q6 10 14.5 19t16.5 20l38.5 38.5t50.5 51t30 29.5q14 16 26.5 34.5t22.5 36.5q10 16 22.5 35.5t24.5 36.5q51 72 94 72q20 0 34.5 -14.5t14.5 -43.5q0 -33 -27.5 -80t-70.5 -97t-92 -93t-94 -70.5t-76 -27.5q-37 0 -37 32zM414 903q0 35 22.5 56.5 t50.5 21.5q35 0 52.5 -16.5t17.5 -71.5q0 -43 -13 -59.5t-48 -16.5q-37 0 -59.5 21.5t-22.5 64.5z" />
<glyph unicode="&#x3c;" horiz-adv-x="972" d="M182 586q0 43 56 92l337 305q35 33 97 33h30q8 -10 7.5 -24.5t-0.5 -33.5q0 -35 -34 -73.5t-97 -85.5q-29 -23 -60 -43.5t-59 -42.5q-27 -20 -57.5 -45t-67.5 -72q53 -57 96 -94t82 -70q37 -29 74 -58.5t71 -62.5q4 -8 9.5 -20t5.5 -23q0 -12 -17.5 -27.5t-52.5 -15.5 q-37 0 -78 25q-16 14 -50 41.5t-71.5 59.5t-70.5 58.5t-45 39.5q-12 12 -23.5 22t-21.5 18q-20 18 -33 33q-12 14 -19.5 28.5t-7.5 35.5z" />
<glyph unicode="=" horiz-adv-x="956" d="M174 545q0 63 33 67q100 10 172 15.5t131 8.5t120.5 5t137.5 4q20 0 38.5 -24.5t18.5 -63.5q0 -12 -10 -31.5t-24 -19.5t-28.5 1t-29.5 1q-90 0 -210 -7t-292 -7q-33 0 -45 12t-12 39zM174 995q0 63 33 68q100 10 172 15t131 8.5t120.5 5.5t137.5 4q20 0 38.5 -24.5 t18.5 -63.5q0 -12 -10 -33t-24 -19q-14 0 -28.5 1t-29.5 1q-90 0 -210 -7t-292 -7q-33 0 -45 11.5t-12 39.5z" />
<glyph unicode="&#x3e;" horiz-adv-x="972" d="M266 991q0 16 8 25h31q57 0 96 -33l338 -305q53 -49 54 -92q0 -35 -25 -64q-6 -8 -14.5 -15t-18.5 -18l-22.5 -18t-22.5 -22q-14 -12 -46 -39t-70.5 -59t-71.5 -59.5t-49 -41.5q-43 -25 -78 -25t-52.5 15.5t-17.5 27.5q0 10 5 22.5t9 20.5q35 33 72 62.5t74 58.5 q41 33 83 70t95 94q-37 47 -66.5 71.5t-58.5 45.5q-29 23 -59.5 43t-61.5 43q-61 47 -95 86t-34 73q0 10 -1 17.5t-1 15.5z" />
<glyph unicode="?" horiz-adv-x="935" d="M94 1393q0 70 39 118t100.5 76.5t130 41.5t125.5 13q121 0 207 -59t132 -155.5t46 -210.5q0 -133 -56 -251t-173 -198q-55 -37 -111.5 -68.5t-95.5 -87.5q-27 -31 -42 -77t-38.5 -82.5t-76.5 -36.5q-39 0 -50.5 25.5t-11.5 58.5q0 98 36 162.5t93.5 110.5t120.5 86 t120.5 86t93.5 113.5t36 168.5q0 109 -65.5 184.5t-174.5 75.5q-61 0 -106 -23.5t-80 -54.5t-70 -54.5t-78 -23.5q-31 0 -41 15.5t-10 46.5zM162 98q0 51 33.5 96.5t93.5 45.5q47 0 69.5 -30t22.5 -71q0 -51 -33 -96t-92 -45q-47 0 -70.5 30.5t-23.5 69.5z" />
<glyph unicode="@" horiz-adv-x="1968" d="M164 639q0 176 70.5 331.5t194.5 273.5t286 184.5t344 66.5q145 0 281.5 -52t246 -143.5t174 -214t64.5 -264.5q0 -59 -12.5 -120.5t-40.5 -125.5q-49 -113 -150.5 -185.5t-216.5 -72.5q-55 0 -109.5 19.5t-105.5 62.5q-14 12 -28.5 24.5t-24.5 10.5q-25 -4 -46.5 -35.5 t-50.5 -50.5q-43 -27 -91 -44t-99 -17q-68 0 -127 33.5t-99 89t-55 120.5q-6 31 -6 64q0 102 51.5 195.5t132 166t168.5 109.5q80 35 172 35q94 0 177 -41q29 -14 55.5 -39t26.5 -57q0 -35 -19.5 -56.5t-48.5 -21.5q-12 0 -29 6q-43 16 -79.5 38.5t-88.5 22.5q-45 0 -86 -14 t-77 -39q-76 -47 -135.5 -128t-59.5 -173q0 -63 37 -115.5t98 -52.5q31 0 68 19q39 18 70.5 44.5t52.5 61.5q18 33 22 57.5t6 63.5q4 43 26.5 65.5t65.5 18.5q25 -2 36.5 -22.5t16.5 -46t9 -44.5q10 -47 25.5 -87t58.5 -73q55 -41 108 -41q55 0 100.5 40t76 100.5t48 125 t17.5 115.5q0 117 -48 210t-132 161t-189 105q-111 39 -227 38q-100 0 -199.5 -27.5t-189.5 -78.5q-117 -63 -199 -161.5t-124 -213.5t-42 -233q0 -152 73 -291t228 -232q174 -102 371 -102q172 0 336 80q29 16 68 34.5t75 18.5q16 0 31 -6q23 -6 34 -26.5t11 -43.5 q0 -31 -16 -53q-39 -51 -114 -75.5t-136 -41.5q-129 -36 -266 -36q-139 0 -272.5 38.5t-246 115.5t-192.5 188.5t-115 259.5q-10 47 -15 93t-5 91z" />
<glyph unicode="A" horiz-adv-x="1470" d="M72 473q0 41 19.5 55.5t62.5 22.5q23 4 48 7t48 5q25 4 51.5 12.5t48.5 26.5q10 8 24 22l13 15q4 4 8 13.5t11 23.5q4 8 8 19.5t6 21.5q6 16 11 31.5t11 23.5q14 27 43 85t63 127t61.5 124t39.5 76q20 35 42 69.5t48 65.5q57 70 101 70q39 0 67.5 -19.5t53.5 -54.5 q25 -37 42 -77t35 -81q106 -231 189.5 -481t132.5 -498v-28q0 -35 -20.5 -61t-34.5 -26q-49 0 -73 35t-38 105q-8 35 -13 68.5t-12 64.5q-8 29 -25.5 62.5t-33.5 54.5h-227q-33 0 -74 1t-86 1t-92 -5.5t-88 -21.5q-53 -20 -81 -63t-41 -95.5t-24 -101.5 q-10 -55 -25.5 -101.5t-72.5 -46.5q-20 0 -39.5 12.5t-26.5 26.5v58q0 43 13.5 86t21.5 86q4 16 6 37.5t2 70.5h-114q-14 2 -28.5 4t-24.5 5q-14 6 -25.5 19t-11.5 48zM567 643q0 -27 21.5 -34t44.5 -7h194q115 0 160 2t60 21q6 16 6 37q0 29 -9.5 64.5t-21.5 64.5 q-8 20 -24.5 62t-37 93t-39 98.5t-28.5 73.5q-4 14 -17.5 29.5t-31.5 15.5q-16 0 -33 -20q-18 -25 -50 -84.5t-69 -131t-67.5 -138t-44.5 -103.5q-12 -27 -13 -43z" />
<glyph unicode="B" horiz-adv-x="1419" d="M102 1214q0 49 49.5 88t125 67t160.5 46.5t159 26.5t115 8q102 0 188 -38t139.5 -109.5t53.5 -174.5q0 -92 -35 -162.5t-117 -105.5q119 -16 203 -56t130 -121t46 -220q0 -162 -99.5 -266.5t-269.5 -155.5t-379 -51q-127 0 -201.5 34.5t-74.5 100.5q-43 6 -59.5 33.5 t-19.5 66.5t-3 76v41q14 113 27.5 210t13.5 210q0 90 -1 155.5t-9 153.5q1 4 1 8q0 35 -48 54q-8 4 -20.5 7t-26.5 9q-20 8 -34 21.5t-14 43.5zM362 186q27 -27 78.5 -31.5t108.5 -4.5q80 0 168 7t173 36.5t157 97.5q51 47 85.5 91t34.5 122q0 63 -36.5 106t-91 70 t-111.5 41q-20 6 -44 8t-46 2q-61 0 -120 -10t-97 -10q-25 0 -39 10q-12 12 -13 27q0 35 8.5 58t34.5 44q25 16 52 31q16 10 32.5 17t32.5 15q55 25 103.5 55.5t78 73.5t29.5 107q0 55 -40 89t-93 48t-96 14q-49 0 -109.5 -8t-116 -33.5t-90.5 -74.5v-99q0 -106 5.5 -210.5 t5.5 -206.5v-99q0 -16 -2.5 -56t-5.5 -81t-3 -57q0 -14 -5 -32.5t-11 -41.5q-6 -27 -11.5 -54.5t-5.5 -60.5z" />
<glyph unicode="C" d="M102 549q0 111 34 229.5t96.5 231t149.5 203t193.5 143.5t225.5 53q92 0 179 -36t143.5 -103.5t56.5 -161.5q0 -45 -16.5 -59.5t-37.5 -14.5q-33 0 -53 25.5t-39 68.5q-16 33 -40.5 65t-65.5 54.5t-107 22.5q-131 0 -234.5 -63.5t-175 -165t-108.5 -217t-37 -220.5 q0 -80 25.5 -168t76 -164.5t125 -125t175.5 -48.5q117 0 198.5 29t144 74t115.5 94q41 39 88 39q31 0 52.5 -18.5t21.5 -55.5q0 -25 -33 -63q-14 -18 -33.5 -34t-35.5 -32q-104 -88 -225.5 -135t-260.5 -47q-172 0 -307 76.5t-213 213t-78 310.5z" />
<glyph unicode="D" horiz-adv-x="1560" d="M102 1247q0 55 43 90t106.5 53.5t127 26.5t102.5 13q29 0 78 3t90 5t45 2q145 -4 281.5 -51.5t246 -132.5t174 -203.5t64.5 -268.5q0 -160 -69.5 -306t-188.5 -261t-266 -181.5t-305 -66.5q-35 0 -92.5 2t-108.5 17.5t-68 54.5q0 33 2.5 119t3.5 205.5t3 257t2 268.5 q0 66 -12.5 132.5t-34 117.5t-52.5 65q-25 -12 -48 -17t-46 -5q-33 0 -55.5 15.5t-22.5 45.5zM479 1217q35 -160 45.5 -307.5t10.5 -307.5q0 -88 -5.5 -178t-5.5 -186v-62q23 -20 46 -27.5t48 -7.5q121 0 245 55.5t227.5 149.5t167 214t63.5 247q0 109 -57.5 197 t-155.5 150.5t-218 95t-247 32.5h-31.5t-33.5 -2q-80 -4 -99 -63z" />
<glyph unicode="E" horiz-adv-x="1175" d="M92 723q0 39 25.5 56.5t59.5 27.5t56 24q4 25 12.5 75t17.5 106.5t17.5 100.5t10.5 54q-23 12 -60.5 15.5t-66.5 15.5t-29 51q0 41 22.5 60.5t73.5 27.5q131 23 252 37.5t252 14.5h78t99.5 -7.5t85 -28.5t34.5 -61q0 -23 -13 -39t-30 -16h-307q-8 0 -45 -1t-80 -5 t-72 -17q-31 -12 -49 -75.5t-26.5 -150.5t-8.5 -171q27 2 80.5 5t111.5 5t97 2h82q47 0 64.5 -20.5t17.5 -54.5q0 -70 -78 -76l-346 -23q-57 -2 -76.5 -19.5t-25.5 -64.5q-4 -39 -5 -59t-1 -37q2 -14 2 -25.5v-19.5q0 -47 8 -99t37.5 -93t93.5 -56h104q102 0 218 16.5 t204 37.5q4 2 10.5 2h8.5q29 0 38 -20.5t9 -45.5q0 -92 -187 -129q-66 -14 -149.5 -18.5t-161.5 -4.5q-152 0 -238 53.5t-119.5 159t-33.5 261.5q0 72 6 153q-80 31 -80 76z" />
<glyph unicode="F" horiz-adv-x="1126" d="M92 686q0 39 15.5 56.5t38 27.5t44.5 25q4 25 13.5 83t21 128.5t23.5 133t24 95.5q8 39 47 78t125 66.5t236 27.5h90q70 0 134.5 -6t107.5 -25.5t43 -64.5q0 -23 -13.5 -39.5t-29.5 -16.5h-307q-6 0 -40 -3t-78 -9t-84 -16t-61 -27q-27 -20 -46 -89t-28.5 -158t-9.5 -173 q18 2 64.5 4t102 4.5t105.5 3.5t79 1h82q47 0 64 -20.5t17 -55.5q0 -70 -77 -76l-365 -23q-57 -2 -76.5 -15t-25.5 -32q0 -74 12 -176t27 -239q-14 -51 -41 -81t-54 -30q-39 0 -51 61q-14 12 -26.5 69.5t-19.5 141.5t-7 175q0 31 1 60.5t3 57.5q-80 31 -80 76z" />
<glyph unicode="G" horiz-adv-x="1357" d="M102 573q0 143 49.5 288t140.5 263.5t218 191.5t281 73q57 0 125.5 -21.5t132 -59.5t104.5 -86t41 -102q0 -16 -18.5 -34.5t-47.5 -18.5q-14 0 -27.5 5t-23.5 13q-16 12 -26 23l-31 33q-33 37 -86 67.5t-143 30.5q-129 0 -230.5 -65.5t-172.5 -168t-107.5 -217 t-36.5 -215.5q0 -123 42 -233.5t133 -180t238 -69.5q111 0 211.5 55.5t164 148.5t63.5 204q-2 8 -29 12t-119 8q-20 2 -40.5 2h-43.5q-43 0 -87 -1t-87 -1q-74 0 -74 86q0 25 21.5 46.5t67.5 29.5h126q70 0 143 -4t135 -23.5t100 -66.5t38 -133q0 -109 -52 -204t-138 -167 t-191 -113t-209 -41q-190 0 -313 86t-182.5 232.5t-59.5 326.5z" />
<glyph unicode="H" horiz-adv-x="1540" d="M102 678q0 45 32 66.5t95 29.5q43 14 55.5 53t12.5 66v387q0 31 1 65.5t16.5 59.5t58.5 25q33 0 59.5 -24t26.5 -52q0 -57 -2 -132l-4 -150t-2 -136q0 -59 3 -97t11 -42q20 -6 74.5 -8.5t122 -3.5t120.5 -1h184.5t107.5 1t56.5 1h30.5q0 12 4 55.5t10.5 94.5t8.5 84 q10 72 19 143.5t11 100.5q18 133 97 133q25 1 51 -11q19 -8 19 -43q0 -14 -3 -34q-12 -84 -24.5 -149.5t-21.5 -128t-9 -138.5v-96q59 -6 84 -33t25 -55q0 -47 -24 -65.5t-52.5 -23t-44.5 -12.5v-348q0 -29 -3 -73t-18.5 -76.5t-52.5 -32.5t-54.5 16.5t-27.5 42.5 q-12 33 -14 75t-2 77q0 66 5 131t5 129q0 41 -6 58.5t-29 17.5q-31 0 -96.5 2t-140 3t-138 3t-88.5 2h-51q-63 0 -96 -7t-46.5 -28.5t-21.5 -67.5q-2 -61 -4 -128.5t-8 -137.5q-4 -78 -10 -143.5t-29 -103t-78 -37.5q-31 0 -45 17t-17 37.5t-3 26.5v109q0 88 16 179 q14 81 14 174v24q0 18 -13 41.5t-38 23.5q-39 0 -79 9.5t-40 54.5z" />
<glyph unicode="I" horiz-adv-x="790" d="M102 63q0 37 15.5 50.5t34.5 21.5q18 8 34.5 16.5t30.5 22.5q37 33 37 88q0 29 -1 75t-1 99q0 84 1 175t5 171t10 125q6 53 11.5 106.5t11.5 108.5v68q-20 23 -34.5 34t-27.5 19l-39 25q-14 8 -21 17t-7 30q0 41 45 41q35 0 64.5 -5t56.5 -5h22q10 0 51 5t86 11 q41 6 78 11t45 5h13q33 0 45 -11t12 -42q0 -33 -11.5 -43t-31.5 -14q-16 -4 -34.5 -8.5t-35.5 -8.5q-20 -6 -41.5 -18t-42.5 -41q-14 -78 -27.5 -154.5t-23.5 -154.5q-24 -203 -24 -413v-17q0 -39 1 -68t3 -61.5t8 -83.5q12 -43 74 -56q14 -2 31.5 -5t35.5 -7 q31 -6 45.5 -17.5t14.5 -37.5q0 -20 -15.5 -33.5t-54.5 -24.5q-18 -4 -38.5 -6t-41.5 -4l-78 -6q-6 -2 -16 -2t-25 -4q-12 -2 -27.5 -5t-31.5 -7q-27 -4 -52.5 -9.5t-33.5 -5.5h-45q-37 0 -48.5 9.5t-11.5 43.5z" />
<glyph unicode="J" horiz-adv-x="1257" d="M82 440q0 106 65 107q23 0 42.5 -12.5t27.5 -49.5q8 -35 25.5 -86t47 -101t73 -84t102.5 -34t101 43t67.5 102.5t38.5 104.5q53 188 71.5 393t18.5 391q0 29 -12.5 47.5t-42.5 18.5h-144q-14 0 -28.5 18.5t-14.5 47.5q0 39 11.5 51t21.5 12h10q27 0 83 -1t128 -2 t144.5 -3t132 -3t88.5 -1q23 -6 31 -15.5t8 -25.5q0 -51 -36 -69.5t-89 -18.5q-25 0 -50.5 3t-50.5 5q-39 0 -39 -41q0 -31 -1 -96.5t-3 -140t-3 -137t-3 -87.5q-4 -84 -16.5 -184t-39 -199.5t-73.5 -181.5t-122.5 -131t-186.5 -49q-76 0 -144.5 35.5t-123 95t-85 132.5 t-30.5 146z" />
<glyph unicode="K" horiz-adv-x="1267" d="M121 180q0 59 12 122t29 126q16 68 33.5 134.5t25.5 133.5v164q0 98 -5 195.5t-5 193.5v84q4 29 16.5 38t46.5 9q37 0 57.5 -26.5t29.5 -67.5t10.5 -83t1.5 -70q0 -16 2 -63.5t3 -106t3 -114.5t2 -93q0 -55 29 -56q20 0 45 31q6 6 28.5 27.5t49 45t43.5 34.5 q14 12 42.5 42.5t61.5 67.5t59.5 68t38.5 43q16 18 35 42.5t35 51.5t34.5 55.5t39.5 55.5q31 45 63.5 80.5t69.5 35.5q31 0 53.5 -22.5t22.5 -52.5q0 -59 -39 -126t-94.5 -129.5t-106.5 -113.5q-12 -12 -52 -45t-88 -73t-90 -74.5t-61 -51.5q-20 -14 -20 -24t20 -23l62 -35 q14 -8 46.5 -30.5t70.5 -50t71 -49t45 -31.5q49 -35 109.5 -84.5t104.5 -106.5t44 -123q0 -18 -12.5 -29.5t-52.5 -11.5q-18 0 -47 16.5t-60 43.5q-10 6 -35.5 27.5t-54.5 47.5l-57 52q-14 14 -26.5 23t-16.5 11q-20 12 -67.5 53.5t-100.5 80.5q-55 39 -95.5 63.5 t-60.5 40.5l-49 41q-4 4 -12.5 12t-18.5 8q-6 0 -13 -9t-14 -34q-10 -39 -20 -103.5t-18.5 -121.5t-14.5 -80q-8 -35 -19 -73.5t-28 -71.5q-16 -29 -36.5 -44.5t-49.5 -15.5h-26q-20 20 -24.5 47t-4.5 72z" />
<glyph unicode="L" horiz-adv-x="1075" d="M121 109v92q0 170 14.5 341t27.5 344t13 345q0 47 24.5 77.5t63.5 30.5q43 0 56.5 -24.5t12.5 -59t-1 -67.5q0 -227 -22.5 -459.5t-22.5 -492.5q59 8 147 18t175 20.5t141 14.5h63h57.5t70.5 -5t59.5 -21.5t23.5 -49.5q0 -51 -31.5 -65.5t-72.5 -14.5q-16 0 -33 1t-33 1 q-123 0 -293 -19.5t-334 -64.5h-30q-39 0 -54.5 13.5t-21.5 44.5z" />
<glyph unicode="M" horiz-adv-x="1662" d="M110 101q1 38 1 71q0 207 41 407.5t96 399.5q4 12 14 46t22.5 73t23.5 71.5t16 44.5q23 70 53.5 102t87.5 32q51 0 87 -36t59.5 -86t37.5 -96q35 -106 72 -215.5t70 -216.5q16 -53 45 -53q37 0 69 88q16 45 40 109.5t48.5 131t44 120t27.5 75.5q33 84 73 136.5t113 52.5 q55 0 90 -38t57.5 -92t37.5 -106q55 -209 84.5 -424t29.5 -428v-80q-8 -27 -22.5 -33.5t-50.5 -6.5q-51 0 -74 67q-12 37 -16.5 76t-8.5 78q-20 209 -35.5 334.5t-26.5 195.5t-19.5 108t-16.5 70q-6 37 -35 37q-31 0 -49 -37q-12 -37 -35.5 -106.5t-52.5 -147t-51.5 -141 t-30.5 -88.5q-10 -27 -28.5 -73t-44 -91t-57.5 -76.5t-67 -31.5q-33 0 -59.5 27.5t-43.5 64.5t-28 61l-170 502q-2 10 -8 29.5t-19.5 37t-37.5 17.5q-23 0 -36 -20.5t-19.5 -47t-8.5 -43.5q-4 -20 -12 -52t-16 -66q-8 -31 -13.5 -58.5t-9.5 -42.5q-2 -14 -9 -51t-13 -78 q-16 -106 -29.5 -207.5t-26.5 -220.5q-2 -35 -10 -74t-27.5 -65.5t-56.5 -26.5q-41 0 -54 26q-12 25 -12 60v5z" />
<glyph unicode="N" horiz-adv-x="1439" d="M111 129v33l4 28q2 12 6 29t6 31q4 31 9 58.5t7 41.5q4 31 11.5 98.5t14.5 146.5t12 144.5t5 89.5q0 12 2 62.5t4.5 111t4.5 109.5t2 62q0 31 4 68.5t22.5 66t59.5 28.5q29 0 60.5 -35.5t45.5 -58.5q8 -14 15.5 -25.5t13.5 -21.5q66 -106 142.5 -223t148.5 -236 q35 -57 89 -134t110.5 -151.5t99.5 -127.5q37 -47 61 -48q23 0 35 56q29 147 47 332.5t18 359.5q0 76 -4 144.5t-12 125.5q-4 35 19.5 54.5t56.5 19.5q39 0 54 -10t22 -35q12 -55 16 -135t4 -152q0 -281 -18.5 -492.5t-71.5 -329.5t-158 -118q-57 0 -112.5 40t-103.5 97.5 t-85 112.5q-115 172 -187.5 285.5t-116.5 181.5t-66.5 101.5t-34 44t-23.5 10.5q0 -33 -3 -101.5t-9 -159t-14.5 -184.5t-18.5 -179t-20 -142q-6 -31 -16.5 -77t-32 -81t-60.5 -35q-51 0 -58 37t-7 82z" />
<glyph unicode="O" horiz-adv-x="1429" d="M102 645q0 268 126 440t370 273q66 25 143.5 48.5t141.5 23.5q61 0 111 -16.5t83 -53.5q23 -25 31 -50.5t8 -49.5q16 -14 35.5 -42t36.5 -53q76 -104 103.5 -212.5t27.5 -241.5q0 -139 -47 -266.5t-134 -227.5t-207 -158.5t-263 -58.5q-127 0 -230.5 53t-178.5 145.5 t-116 208t-41 238.5zM264 645q0 -88 24.5 -176t76 -159.5t132 -115.5t191.5 -44q121 0 209 56t145.5 145t85 192.5t27.5 197.5q0 43 -12.5 108.5t-38 136.5t-64.5 132.5t-92 100t-119 38.5q-129 0 -233 -51t-179 -139t-114 -197.5t-39 -224.5z" />
<glyph unicode="P" horiz-adv-x="1318" d="M102 1280q0 35 37 61.5t103 34.5q18 6 70.5 12.5t118 11.5t125.5 8t95 3q203 0 332 -34t191.5 -113.5t62.5 -221.5q0 -100 -52 -191t-140.5 -163t-199 -117t-224.5 -55q-20 -2 -43 -3t-50 -1q-61 0 -120 6q0 -113 5 -193.5t5 -152.5v-63q0 -35 -6 -70q-8 -35 -19.5 -47 t-27.5 -12q-49 0 -75 36.5t-35 90t-10 104.5t-1 78v227q0 154 16 317.5t16 348.5q-106 0 -140 18.5t-34 79.5zM408 688h249q47 0 119 32t143.5 84t119.5 115.5t48 124.5q0 84 -43 124t-105 54.5t-126 24.5q-33 6 -73 8t-81 2q-100 0 -161 -10q-14 -2 -28.5 -13t-18.5 -36 q-10 -76 -18.5 -168t-14.5 -181t-10 -161z" />
<glyph unicode="Q" horiz-adv-x="1550" d="M109 645q0 268 132 440t390 273q68 25 149.5 48.5t149.5 23.5q66 0 119 -16.5t86 -53.5q25 -25 33 -50.5t8 -49.5q16 -14 36.5 -42t38.5 -53q80 -104 109 -212.5t29 -241.5q0 -139 -49.5 -266.5t-141.5 -227.5t-218 -158.5t-278 -58.5q-133 0 -242.5 53t-188 145.5 t-120.5 208t-42 238.5zM279 645q0 -88 25.5 -176t79.5 -159.5t139 -115.5t202 -44q127 0 220 56t153.5 145t89.5 192.5t29 197.5q0 43 -13.5 108.5t-40 136.5t-67.5 132.5t-96.5 100t-125.5 38.5q-137 0 -246.5 -51t-188.5 -139t-119.5 -197.5t-40.5 -224.5zM900 444.5 q-3 20.5 18 49.5q36 50 65 50q9 0 18 -5q109 -61 187 -106.5t140.5 -85.5t126 -81t144.5 -92q22 -15 22 -56q0 -36 -28 -73q-8 -12 -33.5 -24.5t-37.5 -0.5q-98 74 -237.5 156t-346.5 225q-35 23 -38 43.5z" />
<glyph unicode="R" horiz-adv-x="1357" d="M109 1268q0 23 46 51.5t128 46.5q78 16 159.5 19.5t126.5 3.5q109 0 221.5 -18.5t211 -60.5t167 -113t86.5 -177q6 -27 7 -59q0 -106 -54.5 -173t-141.5 -111t-189 -83l-56 -21l56 -49q23 -20 48 -41.5t48 -46.5l92 -100q41 -45 80 -99.5t39 -105.5q0 -88 -88 -88 q-29 0 -35 6l-1 1t-3 1q-2 4 -10 12l-14.5 14.5t-14.5 18.5q-47 84 -104.5 148.5t-153.5 146.5q-27 25 -72 53.5t-88 61.5q-45 35 -69.5 65.5t-24.5 53.5q0 14 16.5 12t55.5 14t88 29.5t100 28.5q51 16 103.5 33.5t95.5 43.5q43 29 91 77t48 106q0 63 -38 110t-92 79 t-104 44q-59 16 -140 22.5t-146 6.5h-129q-25 0 -25 -27l-55 -985q-2 -14 -1 -33.5t-1 -40.5q-4 -39 -13 -75q-18 -70 -71 -70q-35 0 -47.5 15.5t-26.5 50.5q-4 8 -4 12q-2 29 -2 59.5v59.5q0 188 20.5 374.5t20.5 372.5q0 53 -1 105.5t-11 103.5l-5 21l-20 6 q-45 14 -74.5 32.5t-29.5 55.5z" />
<glyph unicode="S" horiz-adv-x="1196" d="M92 399q0 43 14.5 63.5t53.5 20.5q8 0 32.5 -7t36.5 -25q23 -68 59 -137.5t100.5 -116.5t168.5 -47q100 0 180 23.5t126 75.5t46 138q0 66 -37.5 112t-85.5 72q-131 72 -231 121t-169 95.5t-104.5 111t-35.5 166.5q0 156 124 240t322 84q47 0 111.5 -11.5t127 -34 t103.5 -59.5t41 -90q0 -29 -22.5 -51.5t-53.5 -22.5q-45 0 -74.5 17.5t-64.5 40.5q-39 27 -89 49t-128 22q-59 0 -114.5 -21.5t-91.5 -60.5t-36 -90q0 -66 37 -112.5t88 -81.5q25 -14 53.5 -29.5t59.5 -32.5q29 -14 60.5 -28.5t62.5 -30.5q86 -41 156.5 -90t113.5 -117 t43 -168q0 -123 -71.5 -210t-184 -132t-239.5 -45q-152 0 -261.5 52t-168 142.5t-58.5 204.5z" />
<glyph unicode="T" d="M82 1260q0 53 45 66t106 22q41 6 131.5 11t198 10t209.5 10t168 11q43 0 104.5 -4t122 -18t101.5 -47t41 -94q0 -27 -19.5 -50.5t-44.5 -23.5q-8 0 -15 4t-16 8q-16 8 -32.5 16.5t-34.5 12.5q-70 18 -151 21.5t-208 3.5q-33 0 -32 -39q0 -78 -2 -183.5t-8 -222.5 t-14.5 -230.5t-21 -209.5t-28.5 -160q-12 -53 -41 -96q-14 -20 -36 -28.5t-34 -8.5q-27 0 -47 17.5t-20 54.5q0 8 1 15t3 15q37 180 55.5 348t24.5 341.5t6 363.5q-106 0 -174 -3t-131 -7q-20 -2 -43 -3t-45 -1q-14 0 -26.5 1t-22.5 3q-39 8 -54.5 24.5t-15.5 49.5z" />
<glyph unicode="U" horiz-adv-x="1409" d="M106 772q0 188 35 328q4 18 13.5 57t22.5 83t27.5 79t28.5 43q16 10 33 15t31 5q20 0 39 -12q12 -8 18 -18.5t6 -32.5q0 -18 -6 -49q-10 -51 -25.5 -114.5t-27.5 -131.5t-18.5 -142.5t-6.5 -146.5q0 -123 18.5 -230.5t56.5 -174t95 -66.5q20 0 59.5 17.5t77.5 40t56 36.5 q113 94 189.5 187.5t130 201t97.5 239.5t91 302q16 35 51 35q25 0 45.5 -18.5t16.5 -53.5q-8 -113 -14.5 -218t-6.5 -208q0 -100 6 -199.5t21 -199.5q10 -68 14 -100.5t5 -46t1 -25.5q0 -33 -21.5 -54.5t-52.5 -21.5q-45 0 -67.5 35t-32.5 102q-4 23 -11 79.5t-13.5 132 t-6.5 149.5q-90 -172 -338 -420q-66 -70 -146.5 -112t-182.5 -42q-82 0 -140.5 58.5t-95.5 157t-54.5 217t-17.5 237.5z" />
<glyph unicode="V" horiz-adv-x="1337" d="M92 1311v22q0 33 14.5 44.5t61.5 11.5q53 0 78.5 -16.5t44.5 -74.5l131 -419q57 -184 92 -291t57.5 -158t44 -65.5t50.5 -14.5q37 0 92 75t116.5 210t122 318.5t107.5 398.5q6 29 29.5 49t50.5 20q31 0 42 -22.5t11 -53v-55.5q0 -66 -28.5 -173t-79 -238t-114 -268.5 t-132.5 -260.5q-29 -49 -67 -106.5t-87 -99.5t-115 -42q-55 0 -96 46.5t-67.5 108.5t-42.5 108q-37 109 -76 236.5t-79 258.5t-81 249t-80 202z" />
<glyph unicode="W" horiz-adv-x="1824" d="M121 935v241q0 43 6 93t28.5 86t71.5 36q18 0 36 -11.5t19 -58.5q0 -37 -3 -117t-3 -180q0 -113 2.5 -234.5t9.5 -220t17 -143.5q4 -12 12.5 -38t16.5 -48.5t12 -30.5q18 -33 35 -33q12 0 21.5 11.5t15.5 21.5q12 25 45 92.5t76 156.5l86 178t76.5 154.5t48.5 86.5 q37 57 61.5 83.5t81.5 26.5q53 0 76.5 -27.5t38.5 -72.5l186 -545q20 -41 34.5 -49t24.5 -8q20 0 37 21.5t23 35.5q84 205 138 395.5t110 409.5q12 47 34.5 79t65.5 32q37 0 56.5 -18.5t16.5 -47.5q-6 -33 -17 -74.5t-15 -56.5l-203 -700q-12 -39 -32.5 -93.5t-51.5 -107.5 t-70.5 -88t-89.5 -35q-61 0 -96 36t-59 97q-45 121 -96.5 257.5t-90.5 289.5q-4 18 -13 35.5t-21 17.5q-14 0 -29 -28q-63 -127 -116.5 -245t-119.5 -259q-23 -53 -55.5 -112.5t-78 -101.5t-113.5 -42q-61 0 -102.5 38t-67 98.5t-39 129t-18.5 132t-9 104.5q-4 49 -6 94 t-3 104.5t-1 152.5z" />
<glyph unicode="X" horiz-adv-x="1378" d="M111 199q0 39 17 73.5t50 73.5q16 18 48 53t69 75t69.5 74t49.5 52q16 23 42.5 59.5t26.5 69.5q0 14 -6 27q-72 102 -148.5 226t-158.5 251q-18 29 -18 61q0 37 20.5 66t46.5 29q27 0 51 -33q119 -176 185.5 -276.5t98.5 -146.5t43 -58.5t19 -12.5q70 49 131.5 104.5 t132 125t167.5 159.5q35 31 81 69t86 38q16 0 31 -8q37 -23 37 -47q0 -25 -25.5 -50.5t-58.5 -54.5q-117 -109 -215 -208t-161.5 -173t-78.5 -110q2 -33 34 -86.5t71 -103.5t61 -77q78 -90 162 -160.5t131 -105.5q23 -16 23 -33q0 -27 -39 -43t-62 -16q-72 0 -138 51 t-122 117q-72 90 -118 161.5t-74.5 113.5t-50.5 42q-20 0 -40 -21.5t-32 -31.5q-12 -12 -43 -53q-14 -18 -32.5 -41t-37.5 -47q-39 -47 -69.5 -87t-36.5 -44q-31 -39 -82 -72t-92 -33q-23 0 -34 11.5t-11 50.5z" />
<glyph unicode="Y" horiz-adv-x="1206" d="M92 1374q0 35 20.5 55.5t47.5 20.5q68 0 102 -82q10 -20 16.5 -42.5t12.5 -45.5l11 -49.5t13 -40.5q8 -20 29 -64.5t49.5 -97.5t62 -101t68.5 -79t64 -31q72 0 147 109q29 41 57.5 94t59.5 108q37 66 70.5 127.5t70.5 101.5t78 40q31 0 44 -20.5t13 -51.5q0 -35 -13 -79 t-36 -83t-49 -77.5t-51 -73.5q-78 -106 -143.5 -188.5t-149.5 -159.5q-14 -59 -35.5 -160t-36.5 -246q-6 -68 -11 -129t-19.5 -100t-51.5 -39q-29 0 -54 32.5t-34 77.5v105q0 104 21.5 209.5t21.5 208.5v41q-80 80 -140 152.5t-106 150t-85 178.5q-20 53 -42 112.5 t-22 116.5z" />
<glyph unicode="Z" horiz-adv-x="1288" d="M102 270q0 76 39 144.5t103 132.5q27 27 85 81t135 122.5t154.5 141.5t143 136.5t105.5 106.5t36 51q-29 0 -115 -4t-200.5 -18.5t-227.5 -45.5q-55 -16 -100 -16q-25 0 -41 9t-16 30q0 35 29.5 64.5t64.5 41.5q39 14 84 22.5t104 22.5q45 10 119 18.5t157 12.5t159 4 q53 0 99 -2t73 -8q86 -20 86 -76q0 -57 -42 -94t-98 -90q-74 -59 -162 -133t-179 -152t-171 -151.5t-136 -134t-75 -97.5l-24 -49q0 -2 -1 -5t-1 -5q0 -37 49 -37h51q88 0 172 14.5t169 27.5t173 13q78 0 121 -21t43 -77q0 -53 -49 -53q-18 0 -37.5 1t-38.5 1 q-94 0 -198.5 -14.5t-212 -29t-209.5 -14.5q-96 0 -158 41t-62 88z" />
<glyph unicode="[" horiz-adv-x="677" d="M123 115q0 53 8 133t8 172v43q0 29 3 91t8.5 138t9.5 141.5t4 98.5q16 57 19 94t3 96t-4 99.5t-4 66.5q0 33 13.5 45.5t54.5 12.5q10 0 51 5t88 11q41 6 78 11t45 5h12q31 0 43 -11t12 -42q0 -33 -10 -43t-30 -14q-16 -4 -35 -8.5t-35 -8.5q-20 -6 -42 -18t-44 -41 q-76 -367 -76 -739q0 -39 1 -68t4 -61.5t9 -83.5q10 -43 72 -56q16 -2 33.5 -5t34.5 -7q33 -6 46 -17.5t13 -37.5q0 -20 -14.5 -33.5t-52.5 -24.5q-20 -4 -41 -6t-41 -4l-78 -6q-6 -2 -16.5 -2t-22.5 -4q-27 -2 -62 -12q-6 -2 -18 -2q-27 0 -37 24.5t-10 67.5z" />
<glyph unicode="\" horiz-adv-x="1603" d="M119 1825q0 39 24 78q16 25 35 24q31 0 82 -78q57 -88 142 -215t186.5 -277.5t209 -311t213 -317.5t199 -294t165 -240.5t110.5 -158.5q14 -20 14 -43q0 -14 -5 -26.5t-9 -20.5q-25 -37 -64 -37q-47 0 -80 49q-82 125 -197.5 294t-247.5 362.5t-268 395t-262 394 t-229 358.5q-18 31 -18 64z" />
<glyph unicode="]" horiz-adv-x="677" d="M102 78q0 35 11.5 44t31.5 13q16 4 34 8t34 9q23 8 44.5 21t41.5 40q76 365 76 737q0 41 -1 70t-3 61.5t-11 81.5q-10 43 -71 56l-68 12q-33 8 -46 18.5t-13 36.5q0 23 14 36t53 21q20 4 41 6.5t41 4.5l78 6q12 2 41 6q12 4 27.5 6t31.5 6q6 2 19 2q29 0 38 -24.5 t9 -65.5q0 -55 -8 -134t-8 -173v-43q0 -27 -3.5 -90.5t-8.5 -139t-9 -141t-4 -98.5q-16 -55 -19 -92t-3 -96t4 -100.5t4 -67.5q0 -33 -13.5 -45.5t-54.5 -12.5q-10 0 -50 -5t-87 -11q-43 -6 -79 -11t-46 -5h-10q-33 0 -45.5 12t-12.5 41z" />
<glyph unicode="^" horiz-adv-x="972" d="M92 1030v31q0 61 33 96l305 338q49 55 92 55q20 0 34.5 -7t29.5 -19q14 -12 32 -33q10 -10 19.5 -21.5t21.5 -23.5t39 -45t58.5 -71t59.5 -71.5t42 -50.5q25 -39 25 -78q0 -33 -15.5 -51t-27.5 -18q-8 0 -20.5 6t-22.5 8q-33 35 -62.5 72t-58.5 74q-33 41 -69 83t-95 95 q-45 -37 -70.5 -66.5t-46.5 -58.5q-20 -27 -41.5 -58.5t-44.5 -60.5q-45 -63 -85 -97t-74 -34h-29q-20 0 -29 6z" />
<glyph unicode="_" horiz-adv-x="1703" d="M0 -238q0 33 13.5 49.5t27.5 16.5h1583q20 0 38.5 -14.5t18.5 -53.5q0 -12 -11 -31.5t-23 -19.5h-1581q-66 0 -66 53z" />
<glyph unicode="`" horiz-adv-x="399" d="M0 1522q0 16 26.5 36.5t51.5 20.5q18 0 31 -4q8 -4 34.5 -21.5t54 -37t35.5 -27.5q10 -8 23.5 -19.5t28.5 -21.5q20 -14 46.5 -38t48 -50.5t21.5 -50.5q1 -43 -30 -43q-27 0 -61 25.5t-48 39.5l-43 29q-14 10 -30.5 20.5t-32.5 22.5q-33 20 -68 38.5t-41 24.5l-22 21 q-10 10 -17 14q-8 10 -8 21z" />
<glyph unicode="a" horiz-adv-x="1247" d="M102 287v108q0 117 43 236t120 219t182.5 160.5t228.5 60.5q78 0 150.5 -26.5t129.5 -61.5q12 86 31 119t64 33q35 0 49 -21.5t14 -75.5q0 -123 -5 -240.5t-5 -240.5q0 -98 11 -202.5t11 -200.5q0 -31 1 -62t-10 -50t-46 -19q-49 0 -72.5 46t-32 111.5t-16.5 122.5 q-20 -55 -68 -108.5t-96.5 -91t-74 -53t-0.5 2.5q-45 -33 -112 -53t-124 -20q-92 0 -171 40.5t-132 110.5t-70 156zM233 395q0 -55 19.5 -122.5t68 -115.5t134.5 -48q92 0 172 53t140 137t94 176t34 170q0 39 -9 89t-34 97.5t-67 78t-109 30.5q-88 0 -168 -56.5 t-142.5 -143.5t-97.5 -179t-35 -166z" />
<glyph unicode="b" horiz-adv-x="1298" d="M121 117q0 45 3 76.5t17 85.5q35 240 54.5 494.5t19.5 504.5q0 129 -6 254q0 20 14.5 24.5t28.5 4.5q47 0 70.5 -11.5t27.5 -54.5v-113q0 -137 -5 -273t-5 -296q0 -20 3 -38.5t13 -18.5q8 0 22.5 12t37.5 45q90 104 202.5 175t276.5 71q53 0 111.5 -13.5t109.5 -51.5 t83 -112.5t32 -197.5q0 -143 -53.5 -265t-147.5 -211t-218 -138.5t-265 -49.5q-74 0 -139.5 21.5t-110.5 44.5q-31 -37 -62.5 -46t-58.5 -9q-55 0 -55 86zM317 330q0 -47 26 -80t64.5 -53.5t76.5 -29.5t63 -9q96 0 192.5 45t177 120.5t130 169t49.5 191.5q0 57 -28 110.5 t-78 89.5t-116 36t-141.5 -41t-149 -106.5t-134 -144.5t-96.5 -157t-36 -141z" />
<glyph unicode="c" horiz-adv-x="1185" d="M111 545q0 156 69.5 284.5t192.5 207.5t278 79q43 0 100.5 -6t110.5 -25t88 -53.5t35 -91.5q0 -23 -18.5 -39t-59.5 -16q-33 0 -60.5 16.5t-51.5 32.5q-37 25 -77 44t-87 19q-90 0 -157.5 -46t-113 -118.5t-68 -153.5t-22.5 -149q0 -133 52.5 -211.5t139.5 -112.5 t189 -34q98 0 179 35t165 74q29 14 47 14q25 0 33 -19.5t8 -48.5q0 -53 -43 -89t-108.5 -57.5t-140 -32.5t-138 -14t-100.5 -3q-143 0 -241.5 69.5t-149.5 187.5t-51 257z" />
<glyph unicode="d" horiz-adv-x="1329" d="M61 375q0 131 58.5 253t157 219t224.5 153.5t261 56.5q80 0 125 -4t102 -27q2 31 10.5 86t18.5 117.5t16 111.5q6 45 13.5 91.5t21.5 89.5q33 90 94 90q47 0 47 -72q0 -10 -1 -23.5t-3 -29.5q-33 -248 -48 -490.5t-15 -484.5q0 -102 6 -201.5t14 -204.5q1 -8 1 -16 q0 -44 -20 -70q-24 -32 -52 -32q-41 0 -56 51q-20 66 -32.5 136.5t-16.5 117.5q-76 -84 -164 -158t-183 -120t-196 -46h-92q-143 37 -217 152t-74 254zM215 272q20 -78 73.5 -127t143.5 -49q98 0 195.5 50.5t179.5 131t131 174t49 179.5q0 78 -23.5 143.5t-67.5 105.5 t-105 40q-115 0 -218.5 -45.5t-184.5 -123t-127 -178t-46 -208.5v-93z" />
<glyph unicode="e" horiz-adv-x="1134" d="M102 418q0 125 42 243.5t120 215t186.5 152.5t241.5 56q92 0 167 -34.5t120 -98t45 -151.5q0 -94 -40 -179t-107.5 -150.5t-152.5 -103.5t-177 -38q-80 0 -149.5 13t-129.5 42q0 -78 37 -132t94.5 -88t120 -49.5t115.5 -15.5q43 0 86 5.5t94 5.5q76 0 76 -66 q0 -51 -72 -65q-39 -8 -80 -9.5t-82 -1.5q-156 0 -281.5 46t-199.5 145.5t-74 257.5zM268 532q47 -25 119 -31.5t160 -6.5q72 0 149.5 28.5t132 90t54.5 155.5q0 84 -52.5 136t-138.5 52q-78 0 -152.5 -35.5t-136 -96t-98.5 -136.5t-37 -156z" />
<glyph unicode="f" horiz-adv-x="911" d="M113 923q41 17 104.5 28.5t126.5 21.5q2 162 49 293t141.5 207.5t235.5 76.5q25 0 68 -3t88 -13t76.5 -31.5t31.5 -58.5q0 -33 -22.5 -54.5t-42.5 -21.5q-23 0 -44.5 6t-47.5 15q-29 10 -57.5 16t-61.5 6q-76 0 -126 -39t-80 -102.5t-42 -138t-12 -146.5h284 q14 0 34 -21.5t20 -43.5q0 -39 -40 -48.5t-75 -13.5q-14 0 -48 -5t-75 -10t-75 -9.5t-48 -4.5q-4 -55 -8 -144t-8 -198.5t-7 -224.5t-3 -223q0 -39 -10.5 -80t-57.5 -41q-27 0 -51.5 25.5t-24.5 58.5v813h-57q-25 0 -49.5 -5t-51.5 -5q-75 0 -75 70q0 31 41 48z" />
<glyph unicode="g" horiz-adv-x="1196" d="M92 297q0 141 57.5 280.5t159 255t235.5 184t287 68.5q66 0 117 -28.5t51 -77.5q0 -20 -16 -45t-41 -25q-10 0 -22 6q-25 14 -55.5 23.5t-65.5 9.5t-72 -12q-100 -27 -187 -87.5t-154 -144t-103.5 -180t-36.5 -194.5q0 -82 23.5 -132.5t99.5 -50.5q49 0 101 31t98 74 t75 78q43 49 90 108.5t90 115.5t73 99t38 58q18 23 30.5 27.5t34.5 4.5q37 0 53.5 -23.5t22.5 -56t10 -61.5v-156q0 -84 -4 -191.5t-17 -223t-44 -223t-84 -195.5t-135 -139.5t-199 -51.5q-72 0 -139.5 20.5t-113.5 63.5t-58 109q-4 23 15.5 37t51.5 14q18 0 33 -8t29 -18 q6 -6 12 -11.5t12 -9.5q27 -20 64 -45t92 -25q84 0 141.5 48.5t95 123t57 154.5t26.5 141q8 74 14 166t6 162q0 61 -6 88q-45 -61 -97.5 -116.5t-96.5 -96.5t-64 -59q-37 -31 -87 -64t-104.5 -55.5t-105.5 -22.5q-76 0 -141.5 37t-105.5 100.5t-40 141.5z" />
<glyph unicode="h" horiz-adv-x="1267" d="M121 104q0 131 16.5 265.5t16.5 261.5q0 145 -5.5 293.5t-11.5 276.5t-12 210q0 12 -1 23.5t-1 21.5q0 41 14.5 67.5t59.5 26.5q43 0 64 -44t28.5 -101t7.5 -96q0 -72 -2 -171.5t-2 -201.5q0 -117 2 -225.5t7 -180t13 -81.5q59 66 102.5 121t82.5 106q23 31 52.5 67.5 t59.5 67.5q59 63 126 101t149 38q102 0 165.5 -76.5t77.5 -183.5l66 -459v-61q0 -39 -4 -78t-51 -39q-66 0 -79 33t-13 78q0 184 -24 312t-34 183q-14 74 -46 114t-68 40q-57 0 -104.5 -40t-72.5 -73q-72 -90 -145.5 -197.5t-143 -215t-130.5 -199.5q-12 -18 -32.5 -48 t-51.5 -30q-76 0 -76 94z" />
<glyph unicode="i" horiz-adv-x="536" d="M164 281q0 29 1 58.5t1 55.5q0 8 6 54.5t14.5 107.5t17.5 121.5t15 95.5q6 27 14.5 71t30 80t62.5 36q47 0 66.5 -17.5t19.5 -54.5q0 -10 -1 -20.5t-3 -22.5q-10 -66 -26 -163q-14 -97 -26 -203q-9 -78 -9 -150q0 -25 1 -49q2 -23 5 -52.5t3 -58.5q0 -53 -22.5 -96 t-100.5 -43q-29 0 -44 36.5t-20 94t-5 119.5zM193 1454q0 47 45 72.5t114 25.5q70 0 109 -31.5t39 -86.5q0 -45 -44 -70t-116 -25q-68 0 -107.5 32t-39.5 83z" />
<glyph unicode="j" horiz-adv-x="737" d="M-246 -287q0 20 6.5 52t40.5 32q23 0 43.5 -12t34.5 -45q20 -47 50 -73.5t91 -26.5q35 0 75 12t61 31q131 119 183 313t62 424q4 51 4.5 104.5t0.5 104.5q0 76 -2.5 146.5t-2.5 135.5q0 51 18.5 66.5t47.5 15.5q23 0 37 -8t20 -53q12 -90 16.5 -182.5t4.5 -200.5 q0 -82 -6.5 -191.5t-24.5 -227.5t-54 -229.5t-96.5 -201.5t-149.5 -143.5t-214 -53.5q-63 0 -119.5 35t-91.5 84t-35 92zM356 1384q0 59 46.5 92t121.5 33q113 0 113 -94q0 -55 -40 -85t-103 -30q-137 0 -138 84z" />
<glyph unicode="k" horiz-adv-x="1236" d="M121 45v39l78 790v494q0 35 2 82t19.5 84t64.5 37t65 -55q10 -31 11 -67t1 -71q0 -135 -10 -287.5t-10 -322.5q80 25 160 51.5t142.5 49t88.5 32.5q25 12 60.5 30.5t74.5 35.5q39 16 73 27.5t58 11.5q29 0 47.5 -20.5t18.5 -55.5q0 -33 -37 -49.5t-67 -28.5 q-16 -8 -82 -34.5t-153 -60.5t-173 -67t-145 -53q6 -6 50 -37t111.5 -77t143 -96t147.5 -96t123 -78t68 -42q23 -16 45 -31.5t43 -34.5q37 -31 37 -59q0 -35 -18.5 -54.5t-37.5 -19.5q-57 0 -133 58q-39 27 -73.5 55.5t-63.5 48.5l-64.5 43t-110 72t-131 85t-129 85 t-104.5 69l-59 -487q-6 -29 -26 -45t-40 -16q-29 0 -47 20t-18 45z" />
<glyph unicode="l" horiz-adv-x="534" d="M188 336q0 102 6.5 248.5t17.5 309.5t26.5 318.5t33.5 276.5q16 59 44 86t55 27q25 0 44 -23t19 -63v-14.5t-2 -14.5q-51 -248 -65.5 -518.5t-14.5 -519.5q0 -102 3 -181.5t3 -163.5q0 -45 -19 -79.5t-50 -34.5q-39 0 -59.5 30.5t-28.5 75.5t-9.5 90t-1.5 72 q0 16 -1 36.5t-1 41.5z" />
<glyph unicode="m" horiz-adv-x="1703" d="M121 997q0 88 53 88q61 0 93 -119.5t61 -342.5q4 -27 10 -38.5t12 -11.5q12 0 23.5 15.5t17.5 25.5q16 31 38 72t38 70t35.5 56.5t40.5 51.5q41 51 88 81t102 30q49 0 76 -26.5t47 -69.5q12 -25 21.5 -48.5t17.5 -46.5q10 -23 26.5 -72.5t41.5 -82.5l61 88q37 53 73 105 t81 98q43 45 90 72.5t98 27.5q70 0 117 -57.5t71.5 -141.5t26.5 -164l12 -473v-7q0 -30 -14 -70q-16 -44 -63 -44q-27 0 -45.5 21.5t-18.5 44.5v408q0 41 -6 95t-19.5 105t-36 85t-57.5 34q-55 0 -100 -52t-83 -139t-77 -192q-39 -133 -66.5 -178t-58.5 -45q-27 0 -43 12 t-28 33q-14 25 -22.5 58.5t-14.5 60.5l-39 180q-8 37 -17.5 90t-29 93t-58.5 40q-27 0 -56.5 -31.5t-59 -79t-54 -96.5t-41 -88t-20.5 -49q-4 -12 -24.5 -63.5t-47 -116t-48 -118.5t-28.5 -71q-20 -47 -36 -65.5t-43 -18.5q-33 0 -53.5 19.5t-20.5 48.5q0 72 5 141.5 t5 141.5v145q0 59 -2 119.5t-8 134.5q-6 57 -24.5 119.5t-18.5 107.5z" />
<glyph unicode="n" horiz-adv-x="1380" d="M121 975v80q12 29 23.5 35t31.5 6q49 0 69.5 -38t28 -88t9.5 -87q2 -14 7 -61.5t11 -106t11 -111.5t5 -82q33 68 78 140.5t91 136t83 102.5q53 59 126 93t145 34q84 0 147.5 -47t109.5 -123t76.5 -163t49.5 -169q27 -109 40 -190.5t23 -185.5q0 -45 -18.5 -72t-44.5 -27 q-39 0 -55.5 17.5t-22.5 56.5q-14 78 -27.5 176t-36 199.5t-65.5 185.5q-16 39 -41 80t-59.5 69.5t-86.5 28.5q-68 0 -136 -59.5t-129.5 -153.5t-113 -201.5t-85.5 -203.5q-10 -33 -25.5 -73t-32.5 -75q-14 -29 -31.5 -43t-46.5 -14q-31 0 -45 14.5t-20 40.5q-10 35 -10 74 v80q0 66 4 114t4 105q0 20 -1 44t-3 50q-8 100 -22.5 211t-14.5 201z" />
<glyph unicode="o" d="M102 514q0 104 44 194.5t114 172.5t146 159q35 35 79.5 50.5t96.5 15.5q141 0 266 -29.5t222 -95.5t152.5 -170t55.5 -254q0 -123 -52 -225.5t-141.5 -177t-200 -114.5t-227.5 -40q-147 0 -274 64.5t-204 180t-77 269.5zM244 494q0 -119 50 -195t134 -111.5t184 -35.5 q94 0 187.5 26.5t169 80.5t122 136t46.5 195q0 102 -44 175t-116 119t-156 68.5t-164 22.5q-33 0 -72.5 -5t-76.5 -40q-45 -43 -91 -87t-85 -98q-39 -51 -63.5 -114.5t-24.5 -136.5z" />
<glyph unicode="p" horiz-adv-x="1267" d="M121 801q0 20 19.5 54t58.5 48q4 10 4 21.5v25.5q0 45 -7.5 101.5t-11.5 83.5q-2 12 25 26.5t53 14.5q37 0 51.5 -25t18.5 -61.5t10 -73.5q92 37 149.5 55.5t108.5 24.5t123 6q133 0 242.5 -43t175 -128t65.5 -212q0 -121 -50 -242t-137 -220t-199.5 -158.5t-237.5 -59.5 q-33 0 -64 7t-63 11q-12 2 -24.5 3t-22.5 1h-68v-131t-3 -178t-9 -176q-4 -63 -38 -108.5t-83 -45.5q-35 0 -45 36t-10 79q0 16 1 33.5t1 32.5q0 209 18 400.5t27 371.5q2 47 4 116.5t3 132.5v39q0 35 -1 54q-39 0 -61.5 28.5t-22.5 55.5zM348 633q0 -33 2 -70t2 -78v-170 q0 -47 37 -78.5t88 -46t94 -14.5q102 0 191.5 48t158 128t106.5 173t38 184q0 98 -49 156.5t-124 84t-157 25.5q-41 0 -86 -3t-86 -22q-90 -39 -138 -85t-65 -109q-8 -29 -10 -59.5t-2 -63.5z" />
<glyph unicode="q" horiz-adv-x="1236" d="M61 344q0 141 62.5 269t169 227.5t243 157t283.5 57.5q94 0 166 -43t98 -117q4 -12 8.5 -29.5t4.5 -34.5q0 -23 -9.5 -45t-31.5 -38q33 -27 47 -54.5t14 -75.5q0 -70 -19.5 -149.5t-42 -156t-36.5 -138.5q-18 -78 -42 -183.5t-41 -210t-17 -183.5q0 -49 9 -83t29 -46 q35 -20 54.5 -56.5t19.5 -70.5q0 -33 -20.5 -57.5t-61.5 -24.5h-13t-15 2q-68 14 -103 57t-47 100.5t-12 114.5q0 102 15 239.5t43 284t65 271.5q-68 -98 -165.5 -166t-195.5 -102.5t-172 -34.5q-84 0 -148.5 46t-101.5 118.5t-37 154.5zM203 365q0 -41 12 -88.5t45 -81 t96 -33.5q68 0 133.5 34.5t127 90t114.5 116.5q43 47 81 91.5t83 95.5q37 45 68.5 91t31.5 93q0 25 -8 43q-23 59 -69 90t-78 31q-111 0 -222.5 -48t-206 -129t-151.5 -183.5t-57 -212.5z" />
<glyph unicode="r" horiz-adv-x="829" d="M117 1012q0 27 16.5 35t54.5 8q47 0 70 -41t34 -95.5t21 -97.5q59 72 129 104.5t117 57.5q45 23 91 36t104 13q57 0 107 -31.5t50 -68.5q0 -43 -26.5 -63.5t-61.5 -20.5q-10 0 -19 3t-20 5q-14 6 -31.5 10t-33.5 4q-63 0 -122.5 -23.5t-100.5 -45.5q-72 -39 -112 -87 t-67 -89q-14 -78 -18 -152t-6 -115q-2 -43 -4 -90t-6 -94q-4 -49 -12.5 -94t-29 -72.5t-63.5 -27.5q-23 0 -34 20t-15 47t-8 45v162q0 123 11 252t11 252q0 59 -7 118.5t-15 100.5q-2 10 -3 18.5t-1 16.5z" />
<glyph unicode="s" horiz-adv-x="1030" d="M74 188q0 98 78 99q27 0 41 -19l18 -24q6 -8 11 -17.5t14 -19.5q29 -43 82 -80t159 -37q61 0 135 19.5t126.5 62.5t52.5 115q0 59 -37 94t-82 55q-20 10 -46 20.5t-55 18.5q-27 8 -53 16.5t-55 16.5q-74 25 -134.5 56.5t-96 80.5t-35.5 125q0 94 62.5 157.5t157.5 95.5 t193 32q37 0 86 -6.5t96.5 -22.5t79 -46t31.5 -79q0 -25 -9 -42t-28 -17q-12 0 -20 4q-90 41 -150.5 59.5t-105.5 18.5q-27 0 -69 -7.5t-83 -22.5t-68.5 -43t-27.5 -71q0 -78 119 -129q43 -16 96 -32.5t111 -38.5q74 -27 135 -64t97 -89t36 -130q0 -117 -59.5 -189.5 t-155.5 -105.5t-211 -33q-55 0 -129 6.5t-144.5 27t-116.5 65.5t-46 120z" />
<glyph unicode="t" horiz-adv-x="993" d="M72 915q0 33 9 48.5t23 19.5l201 41q45 10 64.5 41t27.5 59q4 16 5 31.5t4 34.5q0 16 1 31.5t1 29.5q4 66 21 96.5t69 30.5q47 0 56 -36.5t9 -69.5q0 -23 -3 -69t-5 -91t-4 -65h328q18 0 36.5 -25t18.5 -64q0 -12 -10.5 -31.5t-24.5 -19.5q-20 0 -76.5 -1t-121 -3 t-113.5 -4t-56 -6q-10 -123 -15 -236.5t-5 -220.5q0 -70 3 -134t5 -128q0 -10 2 -30.5t2 -45.5q0 -47 -13 -93t-58 -46q-51 0 -76 33t-32 82t-7 96q0 23 1 43t1 35q0 147 6 297.5t6 328.5q-76 0 -125 -6t-98 -6q-33 0 -45 12.5t-12 40.5z" />
<glyph unicode="u" horiz-adv-x="1337" d="M121 428q0 72 2 116t9 91t22 129q8 41 16 83t23 81q16 47 35.5 66.5t33.5 19.5q39 0 58.5 -21.5t19.5 -54.5q0 -45 -12.5 -84t-20.5 -74q-14 -92 -24.5 -146t-15.5 -98t-5 -108q0 -31 5 -74t19.5 -84t43 -68.5t76.5 -27.5q49 0 93 36t62 58q139 176 248 344t215 367 q14 23 23.5 29t23.5 6q47 0 65.5 -16.5t18.5 -55.5q0 -25 -6 -59q-31 -154 -31 -305q0 -102 18.5 -190.5t59.5 -145.5q31 -39 31 -68q0 -35 -19.5 -55.5t-48.5 -20.5q-78 0 -123 123q-14 43 -31.5 109.5t-32 134t-18.5 113.5q-27 -43 -48 -85t-54 -90q-23 -33 -53.5 -74.5 t-65.5 -86.5q-72 -88 -158 -155t-180 -67q-104 0 -163.5 58.5t-85 152t-25.5 197.5z" />
<glyph unicode="v" horiz-adv-x="1089" d="M100 1004q0 33 8.5 57t38.5 24q53 0 75 -40.5t44 -163.5q8 -39 23.5 -99.5t36 -129t41 -133t37 -112t22.5 -61.5q23 -51 55.5 -85t55.5 -34q31 0 59.5 31t51 69t30.5 58q10 23 30.5 74t47 115.5t53.5 130t47.5 117.5t30.5 79q27 41 48 62.5t58 21.5q27 0 45.5 -11 t18.5 -40q0 -6 -1 -12.5t-3 -12.5q-12 -49 -35 -128t-53 -140l-224 -440q-31 -59 -79 -99.5t-103 -40.5q-66 0 -118 39t-93 105q-20 33 -37.5 67.5t-34.5 73.5q-41 98 -80.5 207t-66.5 208t-27 171q0 14 -1 32.5t-1 39.5z" />
<glyph unicode="w" horiz-adv-x="1683" d="M121 793v65q0 39 3 77t20.5 63.5t60.5 25.5q29 0 42 -11.5t13 -21.5q0 -98 12 -212.5t33 -226.5t46.5 -205t51.5 -148q16 -29 37 -29q18 0 41 29l11 27q12 28 26 62t19 50q4 12 19 59t33.5 106.5t35 106.5t20.5 60q23 63 70 115.5t104 52.5q63 0 113.5 -87t120.5 -259 q12 -29 34.5 -77t48 -88t48.5 -48q10 10 27.5 55t39 105.5t42 124t37 112.5t22.5 67l30 84q10 29 32 73t50.5 79t63.5 35q23 0 38 -16.5t15 -39.5v-18q0 -12 -1 -21.5t-7 -19.5q-23 -66 -53.5 -166t-67.5 -209.5t-80 -206t-93 -157t-105 -60.5q-45 0 -99.5 62.5 t-113.5 169.5q-10 20 -39 77.5t-58.5 125t-44.5 116.5l-160 -438q-18 -49 -49.5 -101.5t-71.5 -87t-85 -34.5q-59 0 -104.5 38t-80.5 98t-57.5 131t-36.5 136.5t-20 110.5q-2 25 -8.5 68.5t-11.5 92t-9 84t-4 44.5z" />
<glyph unicode="x" horiz-adv-x="1175" d="M102 98q0 53 44 111.5t110 122.5q33 31 63.5 59.5t53.5 54.5q23 27 44 49.5t54 63.5q-6 12 -34.5 54t-63.5 93.5t-64.5 92.5t-40.5 53q-33 39 -70.5 88t-37.5 102q0 23 19.5 33t45.5 10q23 0 54.5 -26.5t54.5 -57.5q23 -29 59.5 -76.5t71.5 -90.5t47 -62q8 -6 23.5 -28.5 t30.5 -41.5l14 -20q86 90 173 178t173 176q29 29 44 34t31 5q53 0 54 -55q0 -23 -5.5 -37t-19.5 -33q-94 -102 -161.5 -172.5t-112.5 -122t-78 -96.5q6 -25 39 -81t75 -121.5t77.5 -122t50.5 -80.5q41 -70 41 -117q-1 -57 -62 -57q-31 0 -50.5 14t-41.5 51l-152 248 q-8 14 -30.5 45t-44 59.5t-27.5 34.5q-25 -20 -60.5 -61t-70.5 -86l-64 -78q-10 -10 -22 -23.5t-25 -27.5q-29 -31 -49 -55.5t-51 -47.5q-25 -18 -53 -18q-23 0 -39.5 15.5t-16.5 47.5z" />
<glyph unicode="y" horiz-adv-x="1185" d="M102 840q0 41 2 79.5t11 77.5q10 47 25.5 62.5t29.5 15.5q47 0 66.5 -35.5t19.5 -103.5q0 -47 -6 -89t-6 -91v-21q0 -18 7 -70.5t15 -105.5t13 -80q10 -45 30.5 -95t58.5 -85t97 -35q80 0 142.5 58.5t114.5 151.5t95 196q16 35 30.5 69.5t29.5 67.5q16 33 30.5 61.5 t30.5 55.5q33 53 60.5 75.5t54.5 22.5t40 -14.5t13 -49.5q0 -63 -21.5 -124.5t-54.5 -122.5q-35 -63 -73.5 -125t-67.5 -123q-16 -37 -44 -99.5t-57.5 -129t-51 -117.5t-25.5 -64q-2 -10 -16.5 -46t-32 -85t-36 -99t-31.5 -86t-17 -46q-12 -37 -35 -90.5t-57 -95.5t-87 -42 q-6 0 -18 16.5t-12 49.5q0 29 7 57.5t19 57.5q14 31 28.5 61.5t29.5 61.5q12 31 29.5 77.5t33.5 95t27.5 83t11.5 38.5v54q-127 0 -211 47t-133 125t-71.5 173t-30 194.5t-7.5 185.5z" />
<glyph unicode="z" horiz-adv-x="1028" d="M84 68q0 37 2 63.5t35 65.5q55 70 131 152.5t156.5 165.5t157.5 156.5t134 125.5q29 29 29 51q0 37 -74 37h-116q-57 0 -95 -1t-72 -3t-79 -9q-8 -2 -16.5 -2h-16.5q-18 0 -30.5 9.5t-12.5 38.5q0 47 41 58t78 17q35 4 87 6t114 2q59 0 122.5 -3t118.5 -13 q72 -14 110 -43t38 -82q0 -43 -37 -84t-88 -83t-96 -87q-49 -47 -121 -118.5t-141.5 -144.5t-110.5 -128q-14 -20 -22.5 -33.5t-8.5 -23.5q0 -14 31 -15q127 0 240.5 13.5t205.5 21.5q10 2 20.5 2h18.5q45 0 77 -14t32 -55q0 -43 -36 -62.5t-84 -26t-85 -10.5 q-18 0 -76.5 -4t-133.5 -8t-144.5 -7t-110.5 -3q-31 0 -70 4t-67.5 20.5t-34.5 53.5z" />
<glyph unicode="{" horiz-adv-x="747" d="M123 750q0 27 21.5 49t50 39.5t52 29t27.5 17.5q18 25 19.5 83t2.5 130.5t19.5 143.5t70.5 122t157 66q41 4 61.5 -26t20.5 -69q0 -31 -15.5 -58.5t-50.5 -31.5q-78 -8 -96.5 -55t-20.5 -125q-2 -76 -6 -153.5t-45 -141.5q29 -31 40 -73t11 -91q0 -74 -14 -151.5 t-12 -137.5q0 -16 19.5 -41.5t40 -45t24.5 -19.5q37 0 55 -28.5t18 -63.5q0 -33 -18 -62.5t-55 -29.5q-43 0 -87 31.5t-78 83t-53.5 109.5t-13.5 109q2 14 9.5 53.5t13.5 86.5t6 82q0 47 -14 53q-25 10 -49.5 17t-49.5 22q-61 39 -61 76z" />
<glyph unicode="|" horiz-adv-x="790" d="M311 131v90q0 39 7.5 77t7.5 77q2 41 3 82t3 78q4 31 7 56t5 58q4 158 6 341.5t2 344.5q0 47 20.5 69.5t43.5 22.5q25 0 44 -22.5t19 -69.5q0 -164 -3 -349t-7 -345q0 -39 -4 -67.5t-8 -63.5q-8 -76 -6 -151.5t-15 -151.5v-76q0 -45 -19 -68.5t-42 -23.5 q-25 0 -44.5 23.5t-19.5 68.5z" />
<glyph unicode="}" horiz-adv-x="747" d="M123 119q0 33 17.5 60.5t49.5 31.5q78 10 96.5 57t20.5 123t6 154t45 141q-29 29 -40 72t-11 90q0 74 14.5 152.5t12.5 138.5q0 16 -19.5 40.5t-40 45t-26.5 20.5q-37 0 -55.5 30t-18.5 62q0 35 18.5 64t55.5 29q45 0 88 -32t78 -83t53 -108.5t12 -110.5q0 -14 -7 -53 t-13 -85.5t-6 -83.5q0 -47 14 -53q23 -8 48.5 -16t47.5 -23q35 -20 48.5 -39.5t13.5 -37.5q0 -25 -21.5 -47.5t-50.5 -40t-52.5 -28.5t-27.5 -18q-18 -25 -18 -83t-2 -130.5t-20.5 -143.5t-71 -122t-156.5 -65q-39 -4 -60.5 25.5t-21.5 66.5z" />
<glyph unicode="~" horiz-adv-x="1378" d="M211 688q0 6 2 11.5t4 11.5l4 12l4 12l53.5 53.5t55.5 49.5t59.5 35t65.5 12q39 0 72.5 -17.5t72.5 -44.5q45 -31 91 -53t104 -22q35 0 62.5 18t51.5 39q16 12 33 24.5t37 12.5q31 0 42 -10.5t11 -20.5q0 -51 -35.5 -89t-88 -59.5t-103.5 -21.5q-20 0 -50 1t-52 5 q-20 12 -44 31.5t-49 36.5q-27 18 -61.5 35.5t-71.5 17.5q-47 0 -78.5 -23.5t-60.5 -54.5q-8 -8 -18.5 -18t-20.5 -21q-17 -10 -29 -10q-31 0 -48 19.5t-15 27.5z" />
<glyph unicode="&#xa1;" horiz-adv-x="827" d="M322 -176q0 59 4 112.5t6 77.5q6 102 13 203.5t15 202.5q4 72 3 159t26 152q16 41 53 41q31 0 45 -37q6 -14 8.5 -34.5t2.5 -41.5q0 -20 -1 -39.5t-1 -35.5v-183q0 -43 1 -81.5t3 -77.5q8 -88 12 -201t8 -201q4 -68 -12 -123t-76 -90q-21 -12 -39 -12q-43 0 -57 65.5 t-14 143.5zM352 1004q0 51 34 96t93 45q47 0 69.5 -30t22.5 -71q0 -51 -33 -96t-92 -45q-47 0 -70.5 31t-23.5 70z" />
<glyph unicode="&#xa2;" horiz-adv-x="1226" d="M72 786q0 104 47 199.5t126 175.5t180 140.5t208 99.5q8 27 20.5 79t24.5 100t16 65l19 59q10 31 22 49q20 41 62 41q35 0 55 -18.5t20 -42.5v-17l-67 -223v-35l39 -35q59 0 118.5 -9t99.5 -37.5t40 -90.5q0 -27 -9.5 -35t-13.5 -8q-27 0 -51 6t-53 15q-31 8 -61.5 15 t-63.5 7q-94 0 -200.5 -33.5t-201 -96t-153.5 -150.5t-59 -199q0 -100 53 -169t136 -104.5t173 -35.5q180 0 324 106q14 10 25 21.5t24 21.5q10 10 19 18.5t20 16.5q16 14 32.5 21.5t36.5 7.5q39 0 53.5 -14.5t14.5 -37.5q0 -20 -7 -35.5t-30 -45.5q-45 -63 -113.5 -103.5 t-150.5 -73.5l-35 -10l-8 -4l-8 -4q-14 -4 -39 -17l-25 -12v-47q0 -63 10.5 -125.5t10.5 -118.5v-67q-6 -14 -27 -15t-39 -1q-39 0 -61 55q-10 31 -15.5 63.5t-9.5 65.5q0 14 -3 45t-6 64.5t-3 52.5l-33 32q-125 29 -235.5 80t-179 136t-68.5 212z" />
<glyph unicode="&#xa3;" horiz-adv-x="1298" d="M82 20q0 43 68 72q37 16 78.5 26.5t80.5 24.5l35 35l2 30t4 73l4 86t2 67q0 57 -1 88t-2 50.5t-4 42t-7 65.5h-242q-10 0 -10 16q0 8 1 16.5t1 14.5q0 49 64 68q16 4 33.5 5t37.5 3q23 0 59 -1t74 -1q6 23 13.5 64.5t11.5 64.5q41 129 122 240.5t196.5 180t259.5 68.5 q90 0 166.5 -24.5t122.5 -75.5t46 -131v-43q-14 -14 -51 -15q-14 0 -22 5.5t-15 7.5q-2 4 -5 9t-7 11q-4 8 -8 15.5t-10 15.5q-23 39 -67 69.5t-140 30.5q-195 0 -297.5 -120.5t-149.5 -370.5q33 0 42.5 -1t15.5 -3l20 -4t14 -2q20 0 66.5 -4.5t96.5 -8.5l75 -6 q37 -12 52.5 -28.5t15.5 -47.5q0 -20 -10.5 -29.5t-51.5 -9.5q-70 0 -136.5 10.5t-127.5 10.5h-59q-33 -18 -42.5 -47t-9.5 -43v-387h134l356 59h47q59 0 80.5 -14.5t21.5 -52.5q0 -25 -17 -38.5t-60 -21.5q-43 -6 -87 -5t-71 -3l-88 -10q-49 -8 -115.5 -20.5t-136.5 -27 t-127 -26.5t-88 -23q-33 -8 -58.5 -16t-50.5 -16q-23 -6 -45 -10.5t-49 -4.5q-29 0 -40 10.5t-11 36.5z" />
<glyph unicode="&#xa4;" horiz-adv-x="989" d="M86 1403q0 35 14 45q29 29 70 29q45 0 72 -27q37 -39 69.5 -76t63.5 -69q63 25 139 24h11t16 -2q55 -4 104 -27q31 35 64.5 72t72.5 78q27 27 72 27q41 0 70 -29q14 -10 14 -45q0 -29 -14 -41q-37 -37 -76 -77t-82 -87q51 -76 51 -182q0 -88 -39 -160q27 -33 57.5 -68.5 t63.5 -74.5q14 -16 14 -39q0 -29 -28 -58q-18 -20 -37 -20q-29 0 -76 49q-27 27 -51.5 53.5t-46.5 51.5q-63 -37 -146 -37q-43 0 -89 9t-87 28q-25 -25 -49 -51.5t-51 -53.5q-47 -49 -76 -49q-18 0 -37 20q-29 29 -28 58q0 23 14 39q29 35 55.5 66.5t52.5 60.5 q-27 33 -42 77t-15 99q0 115 68 196q-37 41 -73 79t-71 71q-14 12 -14 41zM309 1016q0 -80 60.5 -123t160.5 -43q76 0 114 48t38 124q0 84 -47 123t-125 47q-100 0 -150.5 -48t-50.5 -128z" />
<glyph unicode="&#xa5;" horiz-adv-x="1206" d="M92 1374q0 35 20.5 55.5t47.5 20.5q68 0 102 -82q10 -20 16.5 -42.5t12.5 -45.5l11 -49.5t13 -40.5q8 -20 29 -64.5t49.5 -97.5t62 -101t68.5 -79t64 -31q72 0 147 109q29 41 57.5 94t59.5 108q37 66 70.5 127.5t70.5 101.5t78 40q31 0 44 -20.5t13 -51.5q0 -35 -13 -79 t-36 -83t-49 -77.5t-51 -73.5q-78 -106 -143.5 -188.5t-149.5 -159.5q-14 -59 -35.5 -160t-36.5 -246q-6 -68 -11 -129t-19.5 -100t-51.5 -39q-29 0 -54 32.5t-34 77.5v105q0 104 21.5 209.5t21.5 208.5v41q-80 80 -140 152.5t-106 150t-85 178.5q-20 53 -42 112.5 t-22 116.5zM221 295q0 63 33 67q100 10 172 15.5t131.5 8.5t121 5t136.5 4q20 0 39 -24.5t19 -63.5q0 -12 -10.5 -32.5t-24.5 -18.5q-98 4 -228 -5t-331 -9q-33 0 -45.5 12t-12.5 41zM221 598q0 63 33 67q100 10 172 15.5t131.5 8.5t121 5t136.5 4q20 0 39 -24.5t19 -63.5 q0 -12 -10.5 -32.5t-24.5 -18.5q-98 4 -228 -5t-331 -9q-33 0 -45.5 12t-12.5 41z" />
<glyph unicode="&#xa6;" horiz-adv-x="790" d="M311 131v90q0 39 7.5 77t7.5 77q2 41 3 82t3 78q4 31 7 56t5 58v6l125 -2v-12q0 -39 -4 -67.5t-8 -63.5q-8 -76 -6 -151.5t-15 -151.5v-76q0 -45 -19 -68.5t-42 -23.5q-25 0 -44.5 23.5t-19.5 68.5zM348 872q4 115 4 235v228q0 47 20.5 69.5t43.5 22.5q25 0 44 -22.5 t19 -69.5q0 -106 -1 -226t-3 -235z" />
<glyph unicode="&#xa7;" horiz-adv-x="1030" d="M25 -53q0 98 77 98q27 0 41 -18l19 -25q6 -8 11 -17.5t13 -19.5q29 -43 82.5 -80t159.5 -37q61 0 135 19.5t126 62.5t52 115q0 59 -36.5 94t-81.5 56q-20 10 -46 20t-55 18q-27 8 -53.5 16.5t-54.5 16.5q-74 25 -134.5 56.5t-96.5 81t-36 124.5q0 90 58.5 152.5 t146.5 95.5q-70 33 -112.5 84t-42.5 135q0 94 62.5 158t157.5 95.5t193 31.5q37 0 86 -6t96.5 -22.5t79 -46t31.5 -79.5q0 -25 -9 -42t-28 -17q-12 0 -20 4q-90 41 -150.5 59.5t-105.5 18.5q-27 0 -69 -7t-83 -22.5t-68.5 -43t-27.5 -70.5q0 -78 119 -129q43 -16 96 -33 t111 -39q74 -27 135 -63.5t97 -89t36 -130.5q0 -113 -44 -173t-122 -85q53 -35 85 -86t32 -123q0 -117 -59.5 -188.5t-155.5 -105t-211 -33.5q-55 0 -129 6t-144.5 26.5t-116.5 65.5t-46 121zM293 539q0 -78 119 -129q43 -16 96 -32.5t110 -39.5h3q68 18 119 61t51 113 q0 45 -23 75.5t-55 51.5q-109 43 -172 43q-27 0 -69 -7t-83 -22.5t-68.5 -43t-27.5 -70.5z" />
<glyph unicode="&#xa8;" horiz-adv-x="614" d="M0 1366q0 47 34 90t95 43q47 0 68.5 -28.5t21.5 -65.5q0 -47 -33 -91t-94 -44q-47 0 -69.5 28.5t-22.5 67.5zM395 1366q0 47 34 90t95 43q47 0 68.5 -28.5t21.5 -65.5q0 -47 -33 -91t-94 -44q-47 0 -69.5 28.5t-22.5 67.5z" />
<glyph unicode="&#xa9;" horiz-adv-x="1611" d="M102 901q0 156 57.5 286t161 225t240.5 147.5t295 52.5q100 0 201.5 -30t190.5 -85t153.5 -135t89.5 -178q8 -47 9 -98.5t1 -98.5q0 -156 -59.5 -286t-162.5 -226t-239 -148.5t-290 -52.5q-182 0 -330 81t-233 223.5t-85 322.5zM219 889q0 -160 73 -275.5t195.5 -179 t272.5 -63.5q178 0 322.5 83t228.5 226t84 328q0 117 -47.5 210t-126 156.5t-177 97t-200.5 33.5q-129 0 -243 -47t-199 -131t-134 -195.5t-49 -242.5zM510 889q0 96 46 171t125 119t175 44q29 0 60.5 -4.5t55 -19.5t23.5 -50q0 -16 -8 -26.5t-16 -14.5q-27 12 -60.5 21.5 t-44.5 9.5h-10q-72 0 -131 -37t-94 -96.5t-35 -126.5q0 -68 33 -106t81 -52t93 -14q47 0 85 20.5t70 46.5q29 23 51.5 36t49.5 13q4 0 13 -7t9 -23q0 -33 -33.5 -74t-78.5 -71t-80 -30h-164q-6 4 -13 5.5t-14 3.5q-88 47 -138 107.5t-50 154.5z" />
<glyph unicode="&#xaa;" horiz-adv-x="995" d="M102 901q0 90 33 181.5t92.5 169t140.5 124.5t177 47q59 0 115.5 -20.5t99.5 -46.5q10 66 24.5 91.5t49.5 25.5q33 0 44 -16.5t11 -57.5q0 -94 -3 -184.5t-3 -186.5q0 -76 8 -155.5t8 -153.5q0 -37 -2 -70t-49 -33q-37 2 -55.5 37t-24.5 85t-12 96q-16 -43 -53 -83 t-74 -70t-56.5 -42t-1.5 2q-35 -27 -86 -42t-96 -15q-133 0 -210 87t-77 230zM256 911q0 -41 14.5 -92t49.5 -88t96 -37q66 0 122 41t99 103.5t67.5 133t24.5 128.5q0 41 -12 93t-46 91t-98 39q-63 0 -120.5 -43t-101.5 -107.5t-69.5 -135t-25.5 -126.5z" />
<glyph unicode="&#xab;" horiz-adv-x="1374" d="M205 586q0 43 53 92l338 305q39 33 96 33h31q8 -8 8 -25q0 -8 -1 -15t-1 -18q0 -35 -33.5 -73.5t-95.5 -85.5q-31 -23 -61.5 -43.5t-59.5 -42.5q-27 -20 -57.5 -45t-67.5 -72q53 -57 96.5 -94t81.5 -70q37 -29 75 -58.5t71 -62.5q4 -8 9 -20t5 -23q0 -12 -17 -27.5 t-52 -15.5t-78 25q-16 14 -49 41.5t-72 59.5t-70.5 58.5t-46.5 39.5q-10 12 -22.5 22l-22.5 18q-8 10 -17 17.5t-16 15.5q-25 29 -24 64zM643 586q0 43 53 92l338 305q39 33 96 33h31q8 -8 8 -25q0 -8 -1 -15t-1 -18q0 -35 -33.5 -73.5t-95.5 -85.5q-31 -23 -61.5 -43.5 t-58.5 -42.5q-27 -20 -58 -45t-67 -72q53 -57 96 -94t82 -70q37 -29 74.5 -58.5t70.5 -62.5q4 -8 9 -20t5 -23q0 -12 -17 -27.5t-52 -15.5t-78 25q-16 14 -49 41.5t-72 59.5t-70.5 58.5t-46.5 39.5q-10 12 -22 22t-23 18q-8 10 -17 17.5t-15 15.5q-25 29 -25 64z" />
<glyph unicode="&#xac;" horiz-adv-x="1679" d="M82 967q0 61 33 67q176 25 366.5 34t366.5 9q217 0 394 -7t265 -7h6q61 0 72.5 -21.5t11.5 -68.5v-60q0 -4 -8 -30.5t-18 -55.5q-10 -33 -19.5 -61.5t-9.5 -36.5l2 -174q0 -14 2 -35.5t2 -44.5q0 -49 -22.5 -93t-104.5 -44q-33 0 -46 24.5t-21 45.5v215q0 6 6 41.5t15 84 t18.5 95.5t15.5 74q0 4 1 7t1 5q-88 0 -221 -2t-284.5 -4t-300 -4t-271.5 -4.5t-195 -2.5q-33 0 -45 12.5t-12 41.5z" />
<glyph unicode="&#xad;" horiz-adv-x="772" d="M174 508q0 63 33 67q100 10 160.5 15.5t99.5 8.5t68.5 5t68.5 4q20 2 39 -23.5t19 -64.5q0 -12 -10.5 -32.5t-24.5 -18.5q-14 4 -56.5 0t-123.5 -9t-216 -5q-33 0 -45 12t-12 41z" />
<glyph unicode="&#xae;" horiz-adv-x="1611" d="M102 922q0 160 62.5 288.5t170 221t247 141.5t295.5 49q88 0 189 -37t194.5 -101.5t156 -146.5t74.5 -172q6 -57 8 -101t2 -97q0 -147 -63.5 -272.5t-171 -216.5t-241.5 -142t-275 -51q-137 0 -255 48t-206 134t-137.5 202.5t-49.5 252.5zM219 889q0 -121 47 -217.5 t126 -164t180.5 -103t207.5 -35.5q127 0 236.5 50t192.5 138t129 201.5t46 238.5q0 150 -74.5 266.5t-199.5 184.5t-276 68q-131 0 -243 -48.5t-196 -134.5t-130 -199.5t-46 -244.5zM457 1133v26q0 43 51 72t125 47t145.5 25.5t110.5 7.5q53 0 105.5 -24.5t86 -65.5 t33.5 -95q0 -63 -43 -120.5t-119 -116.5v-33q0 -27 14.5 -45t24.5 -29q12 -10 27.5 -21t30.5 -24q20 -14 38.5 -29.5t16.5 -37.5q-6 -16 -15.5 -23.5t-17.5 -7.5q-33 0 -66.5 17.5t-68.5 45.5q-18 16 -35.5 33t-34.5 31q-18 16 -36.5 32.5t-45.5 37.5q-12 0 -15 10l-3 10 h-39q-20 0 -38.5 -17.5t-22.5 -56.5q-2 -16 -2 -35.5t-5 -41.5q-4 -43 -16 -59.5t-37 -16.5t-33 10t-8 55q0 57 6.5 113.5t6.5 114.5v10q0 16 -6.5 75.5t-6.5 108.5q-49 0 -73.5 4t-34.5 13zM672 1137q0 -10 3 -47t6 -81t3 -77q35 0 49.5 -1t24.5 -3q16 -2 28.5 -4t16.5 -2 h18q41 0 84 20.5t73 59t30 92.5q0 51 -37 79.5t-85 40t-83 11.5q-18 0 -49 -8.5t-56.5 -24.5t-25.5 -43v-12z" />
<glyph unicode="&#xaf;" horiz-adv-x="600" d="M0 1331q0 20 19.5 37.5t68.5 20.5q29 2 73 1t101 -1q121 0 264 6q41 2 57.5 -13.5t16.5 -35.5q0 -25 -18.5 -46.5t-46.5 -25.5q-70 -4 -140 -7t-133 -3q-68 0 -124 3t-95 11q-16 4 -29.5 19.5t-13.5 33.5z" />
<glyph unicode="&#xb0;" horiz-adv-x="892" d="M111 1264q0 96 48 172.5t129 121t179 44.5q84 0 157.5 -38t120 -104.5t46.5 -150.5q0 -104 -54.5 -177t-141.5 -111t-183 -38q-133 0 -217 73.5t-84 207.5zM213 1264q0 -90 55.5 -145.5t143.5 -55.5q66 0 126 30.5t99 86t39 129.5q0 68 -34 109.5t-84 61t-103 19.5 q-61 0 -116.5 -30.5t-90.5 -84t-35 -120.5z" />
<glyph unicode="&#xb1;" horiz-adv-x="1116" d="M61 793q0 29 20.5 51t47.5 22h352q0 102 -5 174t-5 140v59q4 14 24.5 26.5t43.5 12.5q74 0 73 -109v-303q109 0 195 6.5t162 6.5q41 0 58 -15.5t17 -38.5q0 -33 -15 -50l-15 -17h-389v-400q0 -10 -18.5 -16t-26.5 -6q-18 0 -47 5t-29 30v336l-58 28h-53q-57 0 -115.5 -6 t-117.5 -6h-72q-12 4 -19.5 17.5t-7.5 52.5zM204 158q0 63 33 67q100 10 172 15.5t131.5 8.5t121 5t136.5 4q20 0 39 -24.5t19 -63.5q0 -12 -10.5 -32.5t-24.5 -18.5q-98 4 -228 -5t-331 -9q-33 0 -45.5 12t-12.5 41z" />
<glyph unicode="&#xb2;" horiz-adv-x="747" d="M72 682q0 121 135 240q14 10 53 38.5t76 55.5q10 8 18 15t17 11q10 8 17 13.5t9 7.5q115 82 115 186q0 53 -37 90t-86 37q-59 0 -98 -21.5t-68 -45.5q-12 -12 -18 -17q0 -2 -6 -6q0 -2 -1 -2h-1q-39 -37 -80 -37q-14 0 -22.5 13.5t-8.5 29.5q0 41 33 76t83 60.5t102 40 t91 14.5q100 0 168 -69t68 -169q0 -63 -38 -131t-101 -115l-236 -174l-74 -73h60q23 0 45 3t43 5q6 0 13 1t13 1q29 4 58.5 7t60.5 3h25.5t31.5 -2q37 0 70 -6q74 -14 74 -62q0 -47 -55 -47q-41 0 -78 6q-8 0 -14.5 1.5t-14.5 1.5q-14 2 -28.5 3t-30.5 1h-56l-239 -39h-31 q-33 0 -45 11t-12 44z" />
<glyph unicode="&#xb3;" horiz-adv-x="749" d="M78 735q0 16 13 27.5t34 11.5q14 0 29 -6l8 -4q4 -4 12 -4l19 -12q23 -10 48 -21.5t58 -11.5q53 0 114.5 16.5t104.5 52t43 93.5q0 61 -47 96t-110.5 50t-112.5 19h-4q-14 12 -15 37q0 29 50 43q18 6 34 6q4 0 8.5 1t10.5 4q23 4 43 10q41 16 83 52t42 75q0 59 -45 84.5 t-92 25.5q-41 0 -73 -15t-57 -32q-2 0 -3 -1t-3 -1t-4 -2l-16 -12t-19 -12q-8 -2 -18 -5.5t-20 -3.5q-20 0 -34 9.5t-14 21.5q0 37 33 64.5t79 46t91 28t70 9.5q94 0 158.5 -55.5t64.5 -133.5q0 -53 -23.5 -95t-64.5 -87v-25q57 -45 88 -91t31 -105q0 -82 -53.5 -142.5 t-133 -93.5t-161.5 -33q-25 0 -66 7.5t-82 21.5t-69.5 36.5t-28.5 55.5z" />
<glyph unicode="&#xb4;" horiz-adv-x="399" d="M2 1311q0 25 20.5 51.5t48 50t46.5 37.5q14 12 28.5 23.5t24.5 19.5t36.5 26.5t53.5 37t33 20.5q10 4 15 4h14q27 0 54 -19.5t27 -35.5q0 -8 -12 -21l-12 -14q-4 -6 -11.5 -11t-11.5 -10q-8 -8 -42.5 -25.5t-67.5 -39.5l-64 -41q-35 -25 -41 -31q-14 -12 -48.5 -37.5 t-61.5 -25.5q-29 0 -29 41z" />
<glyph unicode="&#xb5;" horiz-adv-x="1337" d="M-119 -340q0 35 31 77t80 52q45 12 74 113q16 57 25 142t14.5 180t8.5 182.5t5 148.5l4 2q4 41 10 86t21 121q8 41 16 83t23 81q16 47 35.5 66.5t33.5 19.5q39 0 58.5 -21.5t19.5 -54.5q0 -45 -12.5 -84t-20.5 -74q-14 -92 -24.5 -146t-15.5 -98t-5 -108q0 -31 5 -74 t19.5 -84t43 -68.5t76.5 -27.5q49 0 93 36t62 58q139 176 248 344t215 367q14 23 23.5 29t23.5 6q47 0 65.5 -16.5t18.5 -55.5q0 -25 -6 -59q-31 -154 -31 -305q0 -102 18.5 -190.5t59.5 -145.5q31 -39 31 -68q0 -35 -19.5 -55.5t-48.5 -20.5q-78 0 -123 123 q-14 43 -31.5 109.5t-32 134t-18.5 113.5q-27 -43 -48 -85t-54 -90q-23 -33 -53.5 -74.5t-65.5 -86.5q-72 -88 -158 -155t-180 -67t-155 52q-6 -78 -14.5 -147.5t-24.5 -127.5q-14 -55 -42 -107t-73 -84t-115 -26q-8 0 -15 2t-13 4q-33 10 -47.5 29.5t-14.5 44.5z" />
<glyph unicode="&#xb6;" horiz-adv-x="1318" d="M74 1042q0 139 61.5 219t191.5 114t330 34q35 0 95.5 -3t126 -8t118 -11.5t70.5 -12.5q66 -8 101.5 -33.5t35.5 -60.5q0 -59 -31.5 -77.5t-140.5 -18.5l-2 -2q0 -96 5 -186.5t14 -176.5q4 -78 9 -153.5t5 -149.5v-227q0 -27 -1 -77t-10.5 -103.5t-34 -90t-73.5 -36.5 q-14 0 -25.5 12t-19.5 45q-6 35 -6 70v63q0 33 1 65.5t3 67.5q2 47 4 98.5t2 114.5q0 180 -10 355.5t-33 324.5q-6 43 -49 51l-51 6l4 -18q16 -129 25.5 -296t14.5 -339t5 -319q0 -86 -1 -158t-5 -121q-2 -27 -4 -71t-10.5 -88t-29 -73.5t-57.5 -29.5q-27 0 -47 31.5 t-20 76.5q0 47 3 90.5t5 88.5q4 39 6 81t4 91q6 154 6 319l-2 2q-111 16 -215 61.5t-187 116t-132 157.5t-49 185zM219 1044q0 -63 49 -126.5t121 -115.5t143.5 -84t118.5 -32h6q-2 141 -14 281.5t-35 273.5q0 6 -2 8v8l-2 3q-29 -2 -57.5 -4.5t-50.5 -6.5 q-61 -10 -126 -25.5t-108 -54.5t-43 -125z" />
<glyph unicode="&#xb7;" horiz-adv-x="630" d="M205 614q0 51 34 96.5t93 45.5q47 0 70.5 -30t23.5 -71q0 -51 -34 -96t-93 -45q-47 0 -70.5 30.5t-23.5 69.5z" />
<glyph unicode="&#xb8;" horiz-adv-x="567" d="M209 -406q0 31 20.5 45.5t46.5 14.5q10 0 31 -5t70 -5q104 0 104 80q0 39 -30.5 61t-92.5 22q-27 0 -47 15.5t-20 40.5q0 10 4 26q25 82 35 127q4 23 22.5 35t36.5 12q25 0 45.5 -19t20.5 -52v-10.5t-2 -10.5q-2 -12 -3 -34.5t-4 -32.5q166 0 166 -187q0 -98 -61.5 -138 t-167.5 -40q-8 0 -33.5 -2t-50.5 -2q-35 0 -51 6q-20 8 -29.5 22.5t-9.5 30.5z" />
<glyph unicode="&#xb9;" horiz-adv-x="712" d="M123 707q0 29 55 38l53 7q25 4 36.5 15t13.5 21q8 115 16 213.5t10 139.5q6 90 7 116.5t1 40.5q-31 0 -41 -1t-18 -5q-4 -2 -9 -4t-11 -6q-20 -10 -31 -10q-16 0 -28.5 11t-12.5 22q0 31 35 61q8 8 17 14t20 15q10 6 18 13t16 13q20 14 35 33l31 27q12 12 36.5 18t39.5 6 h8q10 0 21.5 -3t13.5 -15q2 -6 3 -12.5t1 -14.5q0 -12 -2 -24.5t-4 -24.5q-6 -61 -15.5 -139t-16.5 -150.5t-9 -120.5q-2 -57 -4 -107t-2 -103q51 0 81.5 6t61.5 6q23 0 31 -8.5t10 -24.5q0 -53 -45 -59q-20 -2 -71.5 -11.5t-114 -18.5t-116 -17.5t-75.5 -12.5h-18 q-12 0 -19.5 11.5t-7.5 44.5z" />
<glyph unicode="&#xba;" horiz-adv-x="1069" d="M82 956q0 82 34 151t88 132.5t111 122.5q27 27 62 38t74 11q145 0 267 -42t195.5 -134t73.5 -246q0 -127 -69.5 -223t-178 -150.5t-229.5 -54.5q-115 0 -212 49t-156.5 138.5t-59.5 207.5zM213 944q0 -129 78.5 -187.5t187.5 -58.5q90 0 177 34t143.5 104.5t56.5 177.5 q0 98 -54 158.5t-133 89t-157 28.5q-25 0 -53.5 -4t-55.5 -29q-33 -31 -65.5 -62.5t-61.5 -68.5q-27 -39 -45 -84t-18 -98z" />
<glyph unicode="&#xbb;" horiz-adv-x="1413" d="M205 991q0 16 8 25h31q57 0 96 -33l338 -305q53 -49 54 -92q0 -35 -25 -64q-6 -8 -14.5 -15t-18.5 -18l-22.5 -18t-22.5 -22q-14 -12 -46 -39t-70.5 -59t-71.5 -59.5t-49 -41.5q-43 -25 -78 -25t-52.5 15.5t-17.5 27.5q0 10 5 22.5t9 20.5q35 33 72 62.5t74 58.5 q41 33 83 70t95 94q-37 47 -66.5 71.5t-58.5 45.5q-29 23 -59.5 43t-61.5 43q-61 47 -95 86t-34 73q0 10 -1 17.5t-1 15.5zM682 995q0 16 8 25h31q57 0 96 -33l338 -305q53 -49 54 -92q0 -35 -25 -64q-6 -8 -14.5 -15t-18.5 -18l-22.5 -18t-22.5 -22q-14 -12 -46 -39 t-70.5 -59t-71.5 -59.5t-49 -41.5q-43 -25 -78 -25t-52.5 15.5t-17.5 27.5q0 10 5 22.5t9 20.5q35 33 72 62.5t74 58.5q41 33 83 70t95 94q-37 47 -66.5 71.5t-58.5 45.5q-29 23 -59.5 43t-61.5 43q-61 47 -95 86t-34 73q0 10 -1 17.5t-1 15.5z" />
<glyph unicode="&#xbc;" horiz-adv-x="1775" d="M92 707q0 29 55 38l54 7q25 4 36 15t13 21q8 115 16 213.5t10 139.5q6 90 7.5 116.5t1.5 40.5q-31 0 -41.5 -1t-18.5 -5q-4 -2 -9 -4t-11 -6q-20 -10 -31 -10q-16 0 -28.5 11t-12.5 22q0 31 35 61q8 8 17.5 14t19.5 15q10 6 18 13t17 13q20 14 34 33l31 27q12 12 37 18 t39 6h8q10 0 21.5 -3t13.5 -15q2 -6 3 -12.5t1 -14.5q0 -12 -2 -24.5t-4 -24.5q-6 -61 -15.5 -139t-16.5 -150.5t-9 -120.5q-2 -57 -4 -107t-2 -103q51 0 81.5 6t61.5 6q23 0 31 -8.5t10 -24.5q0 -53 -45 -59q-20 -2 -71.5 -11.5t-114 -18.5t-115.5 -17.5t-76 -12.5h-18 q-12 0 -19.5 11.5t-7.5 44.5zM276 -6q0 16 11 29q25 37 72 106.5t108 161.5t130 197.5t139.5 213t136 209t122 186.5t92.5 144q35 51 54 51q14 0 24 -16q14 -27 15 -51q0 -23 -11 -43q-68 -113 -150.5 -242t-171.5 -264t-175 -264l-162 -243t-129 -198q-22 -32 -53 -32 q-25 0 -41 24q-4 4 -7.5 13.5t-3.5 17.5zM1014 346q0 29 9 67t19 58l62 125q14 33 29.5 63.5t29.5 63.5t64 33q16 0 28.5 -15.5t12.5 -33.5q0 -10 -6.5 -24.5t-14.5 -27.5q-8 -16 -10 -22l-43 -88l-18 -41q-20 -39 -37 -92.5t-15 -67.5q70 0 119 4t86 6q10 2 20.5 3t18.5 1 q86 8 92 29q2 10 6 43t13 78q4 23 8 47.5t8 50.5q6 31 12 68t15 80q6 41 59 41q23 0 39 -7.5t16 -19.5q0 -27 -10 -53q-4 -14 -13 -52t-11 -55l-5 -28q-2 -10 -5 -45t-15 -132q0 -29 10 -32q8 -4 23 -4q10 -2 19 -3.5t16 -5.5q31 -10 30 -45q0 -35 -24.5 -49t-79.5 -14 q-14 -8 -15 -29q-2 -78 -5 -146.5t-7 -115.5q-2 -37 -14 -49t-47 -12q-31 0 -47 49q-6 29 -6 55v55q0 20 1 40t1 40q2 23 3 45.5t1 48.5q0 16 -19 19h-39q-23 0 -47 -1t-49 -1q-25 -2 -50.5 -3t-49.5 -1h-86q-41 4 -58.5 21.5t-20.5 41t-3 39.5z" />
<glyph unicode="&#xbd;" horiz-adv-x="1734" d="M92 707q0 29 55 38l54 7q25 4 36 15t13 21q8 115 16 213.5t10 139.5q6 90 7.5 116.5t1.5 40.5q-31 0 -41.5 -1t-18.5 -5q-4 -2 -9 -4t-11 -6q-20 -10 -31 -10q-16 0 -28.5 11t-12.5 22q0 31 35 61q8 8 17.5 14t19.5 15q10 6 18 13t17 13q20 14 34 33l31 27q12 12 37 18 t39 6h8q10 0 21.5 -3t13.5 -15q2 -6 3 -12.5t1 -14.5q0 -12 -2 -24.5t-4 -24.5q-6 -61 -15.5 -139t-16.5 -150.5t-9 -120.5q-2 -57 -4 -107t-2 -103q51 0 81.5 6t61.5 6q23 0 31 -8.5t10 -24.5q0 -53 -45 -59q-20 -2 -71.5 -11.5t-114 -18.5t-115.5 -17.5t-76 -12.5h-18 q-12 0 -19.5 11.5t-7.5 44.5zM268 -6q0 16 11 29q25 37 71.5 106.5t108 161.5t130 197.5t139.5 213t136.5 209t121.5 186.5t93 144q35 51 54 51q14 0 24 -16q14 -27 14 -51q0 -23 -10 -43q-68 -113 -150.5 -242t-171.5 -264t-175 -264l-162 -243t-129 -198q-23 -32 -54 -32 q-25 0 -40 24q-4 4 -7.5 13.5t-3.5 17.5zM1028 41q0 121 135 240q14 10 53 38.5t76 55.5q10 8 18.5 15t16.5 11q10 8 17.5 13.5t9.5 7.5q115 82 114 186q0 53 -36.5 90t-85.5 37q-59 0 -98.5 -21.5t-67.5 -45.5q-12 -12 -19 -17q0 -2 -6 -6q0 -2 -1 -2h-1q-39 -37 -80 -37 q-14 0 -22.5 13.5t-8.5 29.5q0 41 33 76t83 60.5t102.5 40t91.5 14.5q100 0 167.5 -69t67.5 -169q0 -63 -38 -131t-101 -115l-236 -174l-73 -73h59q23 0 45.5 3t42.5 5q6 0 13.5 1t13.5 1q29 4 58.5 7t60.5 3h25.5t31.5 -2q37 0 70 -6q74 -14 73 -62q0 -47 -55 -47 q-41 0 -78 6q-8 0 -14 1t-15 1q-14 2 -28.5 3.5t-30.5 1.5h-55l-240 -39h-31q-33 0 -45 11t-12 44z" />
<glyph unicode="&#xbe;" horiz-adv-x="1884" d="M92 684q0 16 13.5 27.5t33.5 11.5q14 0 29 -6l8 -4q4 -4 12 -4l19 -13q23 -10 48.5 -21t57.5 -11q53 0 114.5 16t104.5 52t43 93q0 61 -47 96t-110.5 50.5t-112.5 19.5h-4q-14 12 -14 37q0 29 49 43q18 6 35 6q4 0 8 1t10 3q23 4 43 11q41 16 83 52t42 75q0 59 -45 84.5 t-92 25.5q-41 0 -73 -15.5t-56 -31.5q-2 0 -3 -1t-3 -1t-4 -2q-8 -6 -16.5 -12t-18.5 -13q-8 -2 -18.5 -5t-20.5 -3q-20 0 -33.5 9.5t-13.5 21.5q0 37 32.5 64.5t78.5 46t91.5 27.5t69.5 9q94 0 158.5 -55t64.5 -133q0 -53 -23.5 -95t-64.5 -87v-25q57 -45 88 -91t31 -106 q0 -82 -53 -142t-133 -93t-162 -33q-25 0 -66 7.5t-81.5 21.5t-69.5 36.5t-29 55.5zM436 -6q0 16 10 29q25 37 72 106.5t108.5 161.5t130 197.5t139.5 213t136.5 209t121.5 186.5t93 144q35 51 53 51q14 0 25 -16q14 -27 14 -51q0 -23 -10 -43q-68 -113 -150.5 -242 t-171.5 -264t-175.5 -264t-162 -243t-128.5 -198q-23 -32 -54 -32q-25 0 -41 24q-4 4 -7 13.5t-3 17.5zM1122 330q0 29 9.5 66.5t19.5 58.5l61 125q14 33 29.5 63.5t30.5 63.5q14 33 63 32q16 0 28.5 -15t12.5 -34q0 -10 -6 -24.5t-14 -26.5q-8 -16 -10 -23l-43 -88l-19 -41 q-20 -39 -36.5 -92t-14.5 -67q70 0 119 4t86 6q10 2 20 3t19 1q86 8 92 29q2 10 6 42.5t12 78.5q4 23 8 47t9 51q6 31 12 67.5t14 79.5q6 41 60 41q23 0 39 -7t16 -19q0 -27 -10 -54q-4 -14 -13.5 -52t-11.5 -54l-4 -29q-2 -10 -5 -45t-15 -131q0 -29 10 -33q8 -4 22 -4 q10 -2 19.5 -3t15.5 -5q31 -10 31 -45t-24.5 -49.5t-80.5 -14.5q-14 -8 -14 -28q-2 -78 -5 -146.5t-7 -115.5q-2 -37 -14.5 -49.5t-47.5 -12.5q-31 0 -47 49q-6 29 -6 56v55q0 20 1 39.5t1 40.5q2 23 3 45t1 49q0 16 -18 18h-39q-23 0 -47.5 -1t-48.5 -1q-25 -2 -50.5 -3 t-50.5 -1h-86q-41 4 -58.5 21.5t-20.5 41t-3 40.5z" />
<glyph unicode="&#xbf;" horiz-adv-x="972" d="M86 -113q0 133 56.5 251t172.5 196q53 39 110.5 69.5t96.5 88.5q20 23 32.5 55.5t27 64t37 53t61.5 21.5t50 -25.5t11 -58.5q0 -98 -35.5 -162.5t-93 -110.5t-121 -85t-121 -86t-93 -114t-35.5 -169q0 -106 65.5 -183t173.5 -77q61 0 106.5 23.5t80 55.5t69.5 55.5 t78 23.5q31 0 41 -15.5t10 -46.5q0 -70 -39 -118t-100 -77.5t-129 -42t-127 -12.5q-119 0 -206 58.5t-133 156t-46 211.5zM578 965q0 49 33.5 94t95.5 45q47 0 69.5 -28.5t22.5 -69.5q0 -51 -34 -96.5t-95 -45.5q-47 0 -69.5 31t-22.5 70z" />
<glyph unicode="&#xc0;" horiz-adv-x="1470" d="M72 473q0 41 19.5 55.5t62.5 22.5q23 4 48 7t48 5q25 4 51.5 12.5t48.5 26.5q10 8 24 22l13 15q4 4 8 13.5t11 23.5q4 8 8 19.5t6 21.5q6 16 11 31.5t11 23.5q14 27 43 85t63 127t61.5 124t39.5 76q20 35 42 69.5t48 65.5q57 70 101 70q39 0 67.5 -19.5t53.5 -54.5 q25 -37 42 -77t35 -81q106 -231 189.5 -481t132.5 -498v-28q0 -35 -20.5 -61t-34.5 -26q-49 0 -73 35t-38 105q-8 35 -13 68.5t-12 64.5q-8 29 -25.5 62.5t-33.5 54.5h-227q-33 0 -74 1t-86 1t-92 -5.5t-88 -21.5q-53 -20 -81 -63t-41 -95.5t-24 -101.5 q-10 -55 -25.5 -101.5t-72.5 -46.5q-20 0 -39.5 12.5t-26.5 26.5v58q0 43 13.5 86t21.5 86q4 16 6 37.5t2 70.5h-114q-14 2 -28.5 4t-24.5 5q-14 6 -25.5 19t-11.5 48zM567 643q0 -27 21.5 -34t44.5 -7h194q115 0 160 2t60 21q6 16 6 37q0 29 -9.5 64.5t-21.5 64.5 q-8 20 -24.5 62t-37 93t-39 98.5t-28.5 73.5q-4 14 -17.5 29.5t-31.5 15.5q-16 0 -33 -20q-18 -25 -50 -84.5t-69 -131t-67.5 -138t-44.5 -103.5q-12 -27 -13 -43zM622 1782q-2 16 21.5 40.5t48.5 26.5q12 2 17.5 3t13.5 -3q8 -2 40.5 -16.5t65.5 -29.5t43 -23 q12 -8 27.5 -15.5t30.5 -17.5q23 -12 53.5 -31.5t55 -42.5t26.5 -47v-12q0 -35 -33 -35q-27 0 -60.5 19.5t-48.5 29.5q-4 4 -17 9t-30 13q-14 8 -30.5 17.5t-36.5 15.5q-45 16 -85 30.5t-46 20.5l-27 17q-4 4 -8 7t-8 5q-8 10 -13 19z" />
<glyph unicode="&#xc1;" horiz-adv-x="1470" d="M72 473q0 41 19.5 55.5t62.5 22.5q23 4 48 7t48 5q25 4 51.5 12.5t48.5 26.5q10 8 24 22l13 15q4 4 8 13.5t11 23.5q4 8 8 19.5t6 21.5q6 16 11 31.5t11 23.5q14 27 43 85t63 127t61.5 124t39.5 76q20 35 42 69.5t48 65.5q57 70 101 70q39 0 67.5 -19.5t53.5 -54.5 q25 -37 42 -77t35 -81q106 -231 189.5 -481t132.5 -498v-28q0 -35 -20.5 -61t-34.5 -26q-49 0 -73 35t-38 105q-8 35 -13 68.5t-12 64.5q-8 29 -25.5 62.5t-33.5 54.5h-227q-33 0 -74 1t-86 1t-92 -5.5t-88 -21.5q-53 -20 -81 -63t-41 -95.5t-24 -101.5 q-10 -55 -25.5 -101.5t-72.5 -46.5q-20 0 -39.5 12.5t-26.5 26.5v58q0 43 13.5 86t21.5 86q4 16 6 37.5t2 70.5h-114q-14 2 -28.5 4t-24.5 5q-14 6 -25.5 19t-11.5 48zM567 643q0 -27 21.5 -34t44.5 -7h194q115 0 160 2t60 21q6 16 6 37q0 29 -9.5 64.5t-21.5 64.5 q-8 20 -24.5 62t-37 93t-39 98.5t-28.5 73.5q-4 14 -17.5 29.5t-31.5 15.5q-16 0 -33 -20q-18 -25 -50 -84.5t-69 -131t-67.5 -138t-44.5 -103.5q-12 -27 -13 -43zM702 1624q4 25 29 47t55.5 41.5t51.5 32.5q16 10 30.5 17t26.5 15q10 8 43 23.5t65.5 30t40.5 16.5q6 2 13 2 q8 0 18 -2q25 -2 48.5 -26.5t21.5 -40.5q-2 -8 -13 -19q-4 -2 -7 -5t-9 -7l-27 -17q-8 -4 -46 -19t-85 -32q-20 -6 -36.5 -15t-30.5 -18q-16 -8 -29.5 -13t-17.5 -9q-14 -10 -48 -29.5t-61 -19.5q-16 0 -25.5 10t-7.5 37z" />
<glyph unicode="&#xc2;" horiz-adv-x="1470" d="M72 473q0 41 19.5 55.5t62.5 22.5q23 4 48 7t48 5q25 4 51.5 12.5t48.5 26.5q10 8 24 22l13 15q4 4 8 13.5t11 23.5q4 8 8 19.5t6 21.5q6 16 11 31.5t11 23.5q14 27 43 85t63 127t61.5 124t39.5 76q20 35 42 69.5t48 65.5q57 70 101 70q39 0 67.5 -19.5t53.5 -54.5 q25 -37 42 -77t35 -81q106 -231 189.5 -481t132.5 -498v-28q0 -35 -20.5 -61t-34.5 -26q-49 0 -73 35t-38 105q-8 35 -13 68.5t-12 64.5q-8 29 -25.5 62.5t-33.5 54.5h-227q-33 0 -74 1t-86 1t-92 -5.5t-88 -21.5q-53 -20 -81 -63t-41 -95.5t-24 -101.5 q-10 -55 -25.5 -101.5t-72.5 -46.5q-20 0 -39.5 12.5t-26.5 26.5v58q0 43 13.5 86t21.5 86q4 16 6 37.5t2 70.5h-114q-14 2 -28.5 4t-24.5 5q-14 6 -25.5 19t-11.5 48zM529 1587q0 25 29.5 63.5t73.5 80.5t89 78t76 50q16 12 51 13q31 0 51 -13q39 -23 85 -58.5t88 -75.5 t70 -76.5t28 -61.5q0 -43 -37 -43q-20 0 -43 12.5t-35 20.5q-14 12 -45 36.5t-65 51t-61.5 47t-39.5 25.5q-16 -6 -55 -35t-78 -62t-58 -49q-14 -14 -42.5 -33.5t-51.5 -19.5q-31 0 -30 49zM567 643q0 -27 21.5 -34t44.5 -7h194q115 0 160 2t60 21q6 16 6 37q0 29 -9.5 64.5 t-21.5 64.5q-8 20 -24.5 62t-37 93t-39 98.5t-28.5 73.5q-4 14 -17.5 29.5t-31.5 15.5q-16 0 -33 -20q-18 -25 -50 -84.5t-69 -131t-67.5 -138t-44.5 -103.5q-12 -27 -13 -43z" />
<glyph unicode="&#xc3;" horiz-adv-x="1470" d="M72 473q0 41 19.5 55.5t62.5 22.5q23 4 48 7t48 5q25 4 51.5 12.5t48.5 26.5q10 8 24 22l13 15q4 4 8 13.5t11 23.5q4 8 8 19.5t6 21.5q6 16 11 31.5t11 23.5q14 27 43 85t63 127t61.5 124t39.5 76q20 35 42 69.5t48 65.5q57 70 101 70q39 0 67.5 -19.5t53.5 -54.5 q25 -37 42 -77t35 -81q106 -231 189.5 -481t132.5 -498v-28q0 -35 -20.5 -61t-34.5 -26q-49 0 -73 35t-38 105q-8 35 -13 68.5t-12 64.5q-8 29 -25.5 62.5t-33.5 54.5h-227q-33 0 -74 1t-86 1t-92 -5.5t-88 -21.5q-53 -20 -81 -63t-41 -95.5t-24 -101.5 q-10 -55 -25.5 -101.5t-72.5 -46.5q-20 0 -39.5 12.5t-26.5 26.5v58q0 43 13.5 86t21.5 86q4 16 6 37.5t2 70.5h-114q-14 2 -28.5 4t-24.5 5q-14 6 -25.5 19t-11.5 48zM527 1624q0 18 13 47t32.5 57.5t37.5 44.5q27 23 52.5 35t56.5 12q49 0 96 -28.5t90 -57t78 -28.5 q31 0 47.5 15.5t36.5 35.5q12 12 26.5 24.5t33.5 12.5q18 0 31.5 -11.5t13.5 -35.5q0 -31 -22.5 -71t-61.5 -69.5t-90 -29.5q-66 0 -104 16.5t-61.5 38t-46 37.5t-59.5 16q-33 0 -49 -19.5t-39 -49.5q-8 -8 -15 -18.5t-18 -20.5q-16 -10 -24 -10q-31 0 -43 18t-12 39z M567 643q0 -27 21.5 -34t44.5 -7h194q115 0 160 2t60 21q6 16 6 37q0 29 -9.5 64.5t-21.5 64.5q-8 20 -24.5 62t-37 93t-39 98.5t-28.5 73.5q-4 14 -17.5 29.5t-31.5 15.5q-16 0 -33 -20q-18 -25 -50 -84.5t-69 -131t-67.5 -138t-44.5 -103.5q-12 -27 -13 -43z" />
<glyph unicode="&#xc4;" horiz-adv-x="1470" d="M72 473q0 41 19.5 55.5t62.5 22.5q23 4 48 7t48 5q25 4 51.5 12.5t48.5 26.5q10 8 24 22l13 15q4 4 8 13.5t11 23.5q4 8 8 19.5t6 21.5q6 16 11 31.5t11 23.5q14 27 43 85t63 127t61.5 124t39.5 76q20 35 42 69.5t48 65.5q57 70 101 70q39 0 67.5 -19.5t53.5 -54.5 q25 -37 42 -77t35 -81q106 -231 189.5 -481t132.5 -498v-28q0 -35 -20.5 -61t-34.5 -26q-49 0 -73 35t-38 105q-8 35 -13 68.5t-12 64.5q-8 29 -25.5 62.5t-33.5 54.5h-227q-33 0 -74 1t-86 1t-92 -5.5t-88 -21.5q-53 -20 -81 -63t-41 -95.5t-24 -101.5 q-10 -55 -25.5 -101.5t-72.5 -46.5q-20 0 -39.5 12.5t-26.5 26.5v58q0 43 13.5 86t21.5 86q4 16 6 37.5t2 70.5h-114q-14 2 -28.5 4t-24.5 5q-14 6 -25.5 19t-11.5 48zM567 643q0 -27 21.5 -34t44.5 -7h194q115 0 160 2t60 21q6 16 6 37q0 29 -9.5 64.5t-21.5 64.5 q-8 20 -24.5 62t-37 93t-39 98.5t-28.5 73.5q-4 14 -17.5 29.5t-31.5 15.5q-16 0 -33 -20q-18 -25 -50 -84.5t-69 -131t-67.5 -138t-44.5 -103.5q-12 -27 -13 -43zM578 1673q0 47 34 90t95 43q47 0 68.5 -28.5t21.5 -65.5q0 -47 -33 -91t-94 -44q-47 0 -69.5 28.5 t-22.5 67.5zM973 1673q0 47 34 90t95 43q47 0 68.5 -28.5t21.5 -65.5q0 -47 -33 -91t-94 -44q-47 0 -69.5 28.5t-22.5 67.5z" />
<glyph unicode="&#xc5;" horiz-adv-x="1470" d="M72 473q0 41 19.5 55.5t62.5 22.5q23 4 48 7t48 5q25 4 51.5 12.5t48.5 26.5q10 8 24 22l13 15q4 4 8 13.5t11 23.5q4 8 8 19.5t6 21.5q6 16 11 31.5t11 23.5q14 27 43 85t63 127t61.5 124t39.5 76q20 35 42 69.5t48 65.5q57 70 101 70q39 0 67.5 -19.5t53.5 -54.5 q25 -37 42 -77t35 -81q106 -231 189.5 -481t132.5 -498v-28q0 -35 -20.5 -61t-34.5 -26q-49 0 -73 35t-38 105q-8 35 -13 68.5t-12 64.5q-8 29 -25.5 62.5t-33.5 54.5h-227q-33 0 -74 1t-86 1t-92 -5.5t-88 -21.5q-53 -20 -81 -63t-41 -95.5t-24 -101.5 q-10 -55 -25.5 -101.5t-72.5 -46.5q-20 0 -39.5 12.5t-26.5 26.5v58q0 43 13.5 86t21.5 86q4 16 6 37.5t2 70.5h-114q-14 2 -28.5 4t-24.5 5q-14 6 -25.5 19t-11.5 48zM567 643q0 -27 21.5 -34t44.5 -7h194q115 0 160 2t60 21q6 16 6 37q0 29 -9.5 64.5t-21.5 64.5 q-8 20 -24.5 62t-37 93t-39 98.5t-28.5 73.5q-4 14 -17.5 29.5t-31.5 15.5q-16 0 -33 -20q-18 -25 -50 -84.5t-69 -131t-67.5 -138t-44.5 -103.5q-12 -27 -13 -43zM627 1775q0 96 67.5 157t168.5 61q88 0 149.5 -60.5t61.5 -157.5q0 -80 -54.5 -145.5t-173.5 -65.5 q-41 0 -93 20.5t-89 68t-37 122.5zM748 1775q0 -43 32 -66.5t77 -23.5q51 0 72.5 27t21.5 72q0 43 -25.5 65.5t-68.5 22.5q-55 0 -82 -26t-27 -71z" />
<glyph unicode="&#xc6;" horiz-adv-x="1968" d="M72 473q0 41 19.5 55.5t62.5 22.5q23 4 48 7t48 5q25 4 51.5 12.5t48.5 26.5q10 8 24 22l13 15q4 4 8 13.5t11 23.5q4 8 8 19.5t6 21.5q6 16 11 31.5t11 23.5q14 27 43 85t63 127t61.5 124t39.5 76q20 35 42 69.5t48 65.5q57 70 101 70q10 0 23.5 1t27.5 1 q33 0 66.5 -13.5t56.5 -64.5q4 -8 10 -16.5t10 -16.5q2 6 2 11v7v11q0 10 5.5 17t29.5 11q131 23 252 37.5t252 14.5h78t99 -7.5t85 -28t35 -61.5q0 -23 -13.5 -38t-29.5 -17l-500 -4q-59 0 -90 -33t-40 -87t-9 -116q0 -45 2 -92t2 -88q102 0 190.5 6t145.5 6h82 q82 -27 82 -96q0 -49 -78 -55l-346 -23q-39 -2 -54.5 -21.5t-17.5 -45t-6 -47.5q-2 -16 -2 -32.5v-33.5q2 -14 2 -25.5v-19.5q0 -47 1 -99t23.5 -93t86.5 -56h104q55 0 110.5 9.5t108.5 17.5q53 10 102.5 18.5t100.5 8.5q41 0 53 -9.5t12 -54.5q0 -92 -186 -129 q-43 -8 -88 -12t-86 -8q-41 -2 -77 -2.5t-60 -0.5q-119 0 -191.5 20.5t-111.5 69t-53.5 132.5t-14.5 211h-143q-33 0 -74 1t-86 1q-25 0 -55.5 2t-61.5 2q-27 0 -50.5 -2t-41.5 -11q-53 -20 -66.5 -65t-29.5 -117q-6 -27 -14.5 -67.5t-21.5 -81.5t-33.5 -68t-49.5 -27 q-20 0 -39.5 12.5t-26.5 26.5v58q0 43 13.5 86t21.5 86q4 16 6 37.5t2 70.5h-114q-14 2 -28.5 4t-24.5 5q-14 6 -25.5 19t-11.5 48zM569 680q0 -72 56 -72h129q55 0 116.5 2t151.5 8v87q0 98 -5 196t-28 205q-14 66 -39.5 91.5t-54.5 25.5t-55 -21q-51 -66 -96.5 -142.5 t-81 -148t-59 -128t-34.5 -83.5v-20z" />
<glyph unicode="&#xc7;" d="M102 549q0 111 34 229.5t96.5 231t149.5 203t193.5 143.5t225.5 53q92 0 179 -36t143.5 -103.5t56.5 -161.5q0 -45 -16.5 -59.5t-37.5 -14.5q-33 0 -53 25.5t-39 68.5q-16 33 -40.5 65t-65.5 54.5t-107 22.5q-131 0 -234.5 -63.5t-175 -165t-108.5 -217t-37 -220.5 q0 -80 25.5 -168t76 -164.5t125 -125t175.5 -48.5q117 0 198.5 29t144 74t115.5 94q41 39 88 39q31 0 52.5 -18.5t21.5 -55.5q0 -25 -33 -63q-14 -18 -33.5 -34t-35.5 -32q-104 -88 -225.5 -135t-260.5 -47q-172 0 -307 76.5t-213 213t-78 310.5zM434 -437q0 31 20.5 45.5 t46.5 14.5q10 0 31 -5t70 -5q104 0 104 80q0 39 -30.5 61t-92.5 22q-27 0 -47 15.5t-20 40.5q0 10 4 26q25 82 35 127q4 23 22.5 35t36.5 12q25 0 45.5 -19t20.5 -52v-10.5t-2 -10.5q-2 -12 -3 -34.5t-4 -32.5q166 0 166 -187q0 -98 -61.5 -138t-167.5 -40q-8 0 -33.5 -2 t-50.5 -2q-35 0 -51 6q-20 8 -29.5 22.5t-9.5 30.5z" />
<glyph unicode="&#xc8;" horiz-adv-x="1175" d="M92 723q0 39 25.5 56.5t59.5 27.5t56 24q4 25 12.5 75t17.5 106.5t17.5 100.5t10.5 54q-23 12 -60.5 15.5t-66.5 15.5t-29 51q0 41 22.5 60.5t73.5 27.5q131 23 252 37.5t252 14.5h78t99.5 -7.5t85 -28t34.5 -61.5q0 -23 -13 -39t-30 -16h-307q-8 0 -45 -1t-80 -5 t-72 -17q-31 -12 -49 -75.5t-26.5 -150.5t-8.5 -171q27 2 80.5 5t111.5 5t97 2h82q47 0 64.5 -20.5t17.5 -54.5q0 -70 -78 -76l-346 -23q-57 -2 -76.5 -19.5t-25.5 -64.5q-4 -39 -5 -59t-1 -37q2 -14 2 -25.5v-19.5q0 -47 8 -99t37.5 -93t93.5 -56h104q102 0 218 16.5 t204 37.5q4 2 10.5 2h8.5q29 0 38 -20.5t9 -45.5q0 -92 -187 -129q-66 -14 -149.5 -18.5t-161.5 -4.5q-152 0 -238 53.5t-119.5 159t-33.5 261.5q0 72 6 153q-80 31 -80 76zM360 1782q-2 16 21.5 40.5t48.5 26.5q12 2 17.5 3t13.5 -3q8 -2 40.5 -16.5t65.5 -29.5t43 -23 q12 -8 27.5 -15.5t30.5 -17.5q23 -12 53.5 -31.5t55 -42.5t26.5 -47v-12q0 -35 -33 -35q-27 0 -60.5 19.5t-48.5 29.5q-4 4 -17 9t-30 13q-14 8 -30.5 17.5t-36.5 15.5q-45 16 -85 30.5t-46 20.5l-27 17q-4 4 -8 7t-8 5q-8 10 -13 19z" />
<glyph unicode="&#xc9;" horiz-adv-x="1175" d="M92 723q0 39 25.5 56.5t59.5 27.5t56 24q4 25 12.5 75t17.5 106.5t17.5 100.5t10.5 54q-23 12 -60.5 15.5t-66.5 15.5t-29 51q0 41 22.5 60.5t73.5 27.5q131 23 252 37.5t252 14.5h78t99.5 -7.5t85 -28t34.5 -61.5q0 -23 -13 -39t-30 -16h-307q-8 0 -45 -1t-80 -5 t-72 -17q-31 -12 -49 -75.5t-26.5 -150.5t-8.5 -171q27 2 80.5 5t111.5 5t97 2h82q47 0 64.5 -20.5t17.5 -54.5q0 -70 -78 -76l-346 -23q-57 -2 -76.5 -19.5t-25.5 -64.5q-4 -39 -5 -59t-1 -37q2 -14 2 -25.5v-19.5q0 -47 8 -99t37.5 -93t93.5 -56h104q102 0 218 16.5 t204 37.5q4 2 10.5 2h8.5q29 0 38 -20.5t9 -45.5q0 -92 -187 -129q-66 -14 -149.5 -18.5t-161.5 -4.5q-152 0 -238 53.5t-119.5 159t-33.5 261.5q0 72 6 153q-80 31 -80 76zM440 1624q4 25 29 47t55.5 41.5t51.5 32.5q16 10 30.5 17t26.5 15q10 8 43 23.5t65.5 30t40.5 16.5 q6 2 13 2q8 0 18 -2q25 -2 48.5 -26.5t21.5 -40.5q-2 -8 -13 -19q-4 -2 -7 -5t-9 -7l-27 -17q-8 -4 -46 -19t-85 -32q-20 -6 -36.5 -15t-30.5 -18q-16 -8 -29.5 -13t-17.5 -9q-14 -10 -48 -29.5t-61 -19.5q-16 0 -25.5 10t-7.5 37z" />
<glyph unicode="&#xca;" horiz-adv-x="1175" d="M92 723q0 39 25.5 56.5t59.5 27.5t56 24q4 25 12.5 75t17.5 106.5t17.5 100.5t10.5 54q-23 12 -60.5 15.5t-66.5 15.5t-29 51q0 41 22.5 60.5t73.5 27.5q131 23 252 37.5t252 14.5h78t99.5 -7.5t85 -28t34.5 -61.5q0 -23 -13 -39t-30 -16h-307q-8 0 -45 -1t-80 -5 t-72 -17q-31 -12 -49 -75.5t-26.5 -150.5t-8.5 -171q27 2 80.5 5t111.5 5t97 2h82q47 0 64.5 -20.5t17.5 -54.5q0 -70 -78 -76l-346 -23q-57 -2 -76.5 -19.5t-25.5 -64.5q-4 -39 -5 -59t-1 -37q2 -14 2 -25.5v-19.5q0 -47 8 -99t37.5 -93t93.5 -56h104q102 0 218 16.5 t204 37.5q4 2 10.5 2h8.5q29 0 38 -20.5t9 -45.5q0 -92 -187 -129q-66 -14 -149.5 -18.5t-161.5 -4.5q-152 0 -238 53.5t-119.5 159t-33.5 261.5q0 72 6 153q-80 31 -80 76zM267 1587q0 25 29.5 63.5t73.5 80.5t89 78t76 50q16 12 51 13q31 0 51 -13q39 -23 85 -58.5 t88 -75.5t70 -76.5t28 -61.5q0 -43 -37 -43q-20 0 -43 12.5t-35 20.5q-14 12 -45 36.5t-65 51t-61.5 47t-39.5 25.5q-16 -6 -55 -35t-78 -62t-58 -49q-14 -14 -42.5 -33.5t-51.5 -19.5q-31 0 -30 49z" />
<glyph unicode="&#xcb;" horiz-adv-x="1175" d="M92 723q0 39 25.5 56.5t59.5 27.5t56 24q4 25 12.5 75t17.5 106.5t17.5 100.5t10.5 54q-23 12 -60.5 15.5t-66.5 15.5t-29 51q0 41 22.5 60.5t73.5 27.5q131 23 252 37.5t252 14.5h78t99.5 -7.5t85 -28t34.5 -61.5q0 -23 -13 -39t-30 -16h-307q-8 0 -45 -1t-80 -5 t-72 -17q-31 -12 -49 -75.5t-26.5 -150.5t-8.5 -171q27 2 80.5 5t111.5 5t97 2h82q47 0 64.5 -20.5t17.5 -54.5q0 -70 -78 -76l-346 -23q-57 -2 -76.5 -19.5t-25.5 -64.5q-4 -39 -5 -59t-1 -37q2 -14 2 -25.5v-19.5q0 -47 8 -99t37.5 -93t93.5 -56h104q102 0 218 16.5 t204 37.5q4 2 10.5 2h8.5q29 0 38 -20.5t9 -45.5q0 -92 -187 -129q-66 -14 -149.5 -18.5t-161.5 -4.5q-152 0 -238 53.5t-119.5 159t-33.5 261.5q0 72 6 153q-80 31 -80 76zM315 1673q0 47 34 90t95 43q47 0 68.5 -28.5t21.5 -65.5q0 -47 -33 -91t-94 -44q-47 0 -69.5 28.5 t-22.5 67.5zM710 1673q0 47 34 90t95 43q47 0 68.5 -28.5t21.5 -65.5q0 -47 -33 -91t-94 -44q-47 0 -69.5 28.5t-22.5 67.5z" />
<glyph unicode="&#xcc;" horiz-adv-x="790" d="M102 63q0 37 15.5 50.5t34.5 21.5q18 8 34.5 16.5t30.5 22.5q37 33 37 88q0 29 -1 75t-1 99q0 84 1 175t5 171t10 125q6 53 11.5 106.5t11.5 108.5v68q-20 23 -34.5 34t-27.5 19l-39 25q-14 8 -21 17t-7 30q0 41 45 41q35 0 64.5 -5t56.5 -5h22q10 0 51 5t86 11 q41 6 78 11t45 5h13q33 0 45 -11t12 -42q0 -33 -11.5 -43t-31.5 -14q-16 -4 -34.5 -8.5t-35.5 -8.5q-20 -6 -41.5 -18t-42.5 -41q-14 -78 -27.5 -154.5t-23.5 -154.5q-25 -211 -24 -430q0 -39 1 -68t3 -61.5t8 -83.5q12 -43 74 -56q14 -2 31.5 -5t35.5 -7q31 -6 45.5 -17.5 t14.5 -37.5q0 -20 -15.5 -33.5t-54.5 -24.5q-18 -4 -38.5 -6t-41.5 -4l-78 -6q-6 -2 -16 -2t-25 -4q-12 -2 -27.5 -5t-31.5 -7q-27 -4 -52.5 -9.5t-33.5 -5.5h-45q-37 0 -48.5 9.5t-11.5 43.5zM168 1782q-2 16 21.5 40.5t48.5 26.5q12 2 17.5 3t13.5 -3q8 -2 40.5 -16.5 t65.5 -29.5t43 -23q12 -8 27.5 -15.5t30.5 -17.5q23 -12 53.5 -31.5t55 -42.5t26.5 -47v-12q0 -35 -33 -35q-27 0 -60.5 19.5t-48.5 29.5q-4 4 -17 9t-30 13q-14 8 -30.5 17.5t-36.5 15.5q-45 16 -85 30.5t-46 20.5l-27 17q-4 4 -8 7t-8 5q-8 10 -13 19z" />
<glyph unicode="&#xcd;" horiz-adv-x="790" d="M102 63q0 37 15.5 50.5t34.5 21.5q18 8 34.5 16.5t30.5 22.5q37 33 37 88q0 29 -1 75t-1 99q0 84 1 175t5 171t10 125q6 53 11.5 106.5t11.5 108.5v68q-20 23 -34.5 34t-27.5 19l-39 25q-14 8 -21 17t-7 30q0 41 45 41q35 0 64.5 -5t56.5 -5h22q10 0 51 5t86 11 q41 6 78 11t45 5h13q33 0 45 -11t12 -42q0 -33 -11.5 -43t-31.5 -14q-16 -4 -34.5 -8.5t-35.5 -8.5q-20 -6 -41.5 -18t-42.5 -41q-14 -78 -27.5 -154.5t-23.5 -154.5q-25 -211 -24 -430q0 -39 1 -68t3 -61.5t8 -83.5q12 -43 74 -56q14 -2 31.5 -5t35.5 -7q31 -6 45.5 -17.5 t14.5 -37.5q0 -20 -15.5 -33.5t-54.5 -24.5q-18 -4 -38.5 -6t-41.5 -4l-78 -6q-6 -2 -16 -2t-25 -4q-12 -2 -27.5 -5t-31.5 -7q-27 -4 -52.5 -9.5t-33.5 -5.5h-45q-37 0 -48.5 9.5t-11.5 43.5zM247 1624q4 25 29 47t55.5 41.5t51.5 32.5q16 10 30.5 17t26.5 15q10 8 43 23.5 t65.5 30t40.5 16.5q6 2 13 2q8 0 18 -2q25 -2 48.5 -26.5t21.5 -40.5q-2 -8 -13 -19q-4 -2 -7 -5t-9 -7l-27 -17q-8 -4 -46 -19t-85 -32q-20 -6 -36.5 -15t-30.5 -18q-16 -8 -29.5 -13t-17.5 -9q-14 -10 -48 -29.5t-61 -19.5q-16 0 -25.5 10t-7.5 37z" />
<glyph unicode="&#xce;" horiz-adv-x="790" d="M74 1587q0 25 29.5 63.5t73.5 80.5t89 78t76 50q16 12 51 13q31 0 51 -13q39 -23 85 -58.5t88 -75.5t70 -76.5t28 -61.5q0 -43 -37 -43q-20 0 -43 12.5t-35 20.5q-14 12 -45 36.5t-65 51t-61.5 47t-39.5 25.5q-16 -6 -55 -35t-78 -62t-58 -49q-14 -14 -42.5 -33.5 t-51.5 -19.5q-31 0 -30 49zM102 63q0 37 15.5 50.5t34.5 21.5q18 8 34.5 16.5t30.5 22.5q37 33 37 88q0 29 -1 75t-1 99q0 84 1 175t5 171t10 125q6 53 11.5 106.5t11.5 108.5v68q-20 23 -34.5 34t-27.5 19l-39 25q-14 8 -21 17t-7 30q0 41 45 41q35 0 64.5 -5t56.5 -5h22 q10 0 51 5t86 11q41 6 78 11t45 5h13q33 0 45 -11t12 -42q0 -33 -11.5 -43t-31.5 -14q-16 -4 -34.5 -8.5t-35.5 -8.5q-20 -6 -41.5 -18t-42.5 -41q-14 -78 -27.5 -154.5t-23.5 -154.5q-25 -211 -24 -430q0 -39 1 -68t3 -61.5t8 -83.5q12 -43 74 -56q14 -2 31.5 -5t35.5 -7 q31 -6 45.5 -17.5t14.5 -37.5q0 -20 -15.5 -33.5t-54.5 -24.5q-18 -4 -38.5 -6t-41.5 -4l-78 -6q-6 -2 -16 -2t-25 -4q-12 -2 -27.5 -5t-31.5 -7q-27 -4 -52.5 -9.5t-33.5 -5.5h-45q-37 0 -48.5 9.5t-11.5 43.5z" />
<glyph unicode="&#xcf;" horiz-adv-x="790" d="M102 63q0 37 15.5 50.5t34.5 21.5q18 8 34.5 16.5t30.5 22.5q37 33 37 88q0 29 -1 75t-1 99q0 84 1 175t5 171t10 125q6 53 11.5 106.5t11.5 108.5v68q-20 23 -34.5 34t-27.5 19l-39 25q-14 8 -21 17t-7 30q0 41 45 41q35 0 64.5 -5t56.5 -5h22q10 0 51 5t86 11 q41 6 78 11t45 5h13q33 0 45 -11t12 -42q0 -33 -11.5 -43t-31.5 -14q-16 -4 -34.5 -8.5t-35.5 -8.5q-20 -6 -41.5 -18t-42.5 -41q-14 -78 -27.5 -154.5t-23.5 -154.5q-25 -211 -24 -430q0 -39 1 -68t3 -61.5t8 -83.5q12 -43 74 -56q14 -2 31.5 -5t35.5 -7q31 -6 45.5 -17.5 t14.5 -37.5q0 -20 -15.5 -33.5t-54.5 -24.5q-18 -4 -38.5 -6t-41.5 -4l-78 -6q-6 -2 -16 -2t-25 -4q-12 -2 -27.5 -5t-31.5 -7q-27 -4 -52.5 -9.5t-33.5 -5.5h-45q-37 0 -48.5 9.5t-11.5 43.5zM123 1673q0 47 34 90t95 43q47 0 68.5 -28.5t21.5 -65.5q0 -47 -33 -91t-94 -44 q-47 0 -69.5 28.5t-22.5 67.5zM518 1673q0 47 34 90t95 43q47 0 68.5 -28.5t21.5 -65.5q0 -47 -33 -91t-94 -44q-47 0 -69.5 28.5t-22.5 67.5z" />
<glyph unicode="&#xd0;" horiz-adv-x="1560" d="M102 1247q0 55 43 90t106.5 53.5t127 26.5t102.5 13q29 0 78 3t90 5t45 2q145 -4 281.5 -51.5t246 -132.5t174 -203.5t64.5 -268.5q0 -160 -69.5 -306t-188.5 -261t-266 -181.5t-305 -66.5q-35 0 -92.5 2t-108.5 17.5t-68 54.5q0 33 2.5 119t3.5 205.5t3 257t2 268.5 q0 66 -12.5 132.5t-34 117.5t-52.5 65q-25 -12 -48 -17t-46 -5q-33 0 -55.5 15.5t-22.5 45.5zM143 508q0 63 33 67q100 10 172 15.5t131.5 8.5t121 5t136.5 4q20 0 39 -24.5t19 -63.5q0 -12 -10.5 -32.5t-24.5 -18.5q-98 4 -228 -5t-331 -9q-33 0 -45.5 12t-12.5 41z M479 1217q35 -160 45.5 -307.5t10.5 -307.5q0 -88 -5.5 -178t-5.5 -186v-62q23 -20 46 -27.5t48 -7.5q121 0 245 55.5t227.5 149.5t167 214t63.5 247q0 109 -57.5 197t-155.5 150.5t-218 95t-247 32.5h-31.5t-33.5 -2q-80 -4 -99 -63z" />
<glyph unicode="&#xd1;" horiz-adv-x="1439" d="M111 129v33l4 28q2 12 6 29t6 31q4 31 9 58.5t7 41.5q4 31 11.5 98.5t14.5 146.5t12 144.5t5 89.5q0 12 2 62.5t4.5 111t4.5 109.5t2 62q0 31 4 68.5t22.5 66t59.5 28.5q29 0 60.5 -35.5t45.5 -58.5q8 -14 15.5 -25.5t13.5 -21.5q66 -106 142.5 -223t148.5 -236 q35 -57 89 -134t110.5 -151.5t99.5 -127.5q37 -47 61 -48q23 0 35 56q29 147 47 332.5t18 359.5q0 76 -4 144.5t-12 125.5q-4 35 19.5 54.5t56.5 19.5q39 0 54 -10t22 -35q12 -55 16 -135t4 -152q0 -281 -18.5 -492.5t-71.5 -329.5t-158 -118q-57 0 -112.5 40t-103.5 97.5 t-85 112.5q-115 172 -187.5 285.5t-116.5 181.5t-66.5 101.5t-34 44t-23.5 10.5q0 -33 -3 -101.5t-9 -159t-14.5 -184.5t-18.5 -179t-20 -142q-6 -31 -16.5 -77t-32 -81t-60.5 -35q-51 0 -58 37t-7 82zM447 1624q0 18 13 47t32.5 57.5t37.5 44.5q27 23 52.5 35t56.5 12 q49 0 96 -28.5t90 -57t78 -28.5q31 0 47.5 15.5t36.5 35.5q12 12 26.5 24.5t33.5 12.5q18 0 31.5 -11.5t13.5 -35.5q0 -31 -22.5 -71t-61.5 -69.5t-90 -29.5q-66 0 -104 16.5t-61.5 38t-46 37.5t-59.5 16q-33 0 -49 -19.5t-39 -49.5q-8 -8 -15 -18.5t-18 -20.5 q-16 -10 -24 -10q-31 0 -43 18t-12 39z" />
<glyph unicode="&#xd2;" horiz-adv-x="1429" d="M102 645q0 268 126 440t370 273q66 25 143.5 48.5t141.5 23.5q61 0 111 -16.5t83 -53.5q23 -25 31 -50.5t8 -49.5q16 -14 35.5 -42t36.5 -53q76 -104 103.5 -212.5t27.5 -241.5q0 -139 -47 -266.5t-134 -227.5t-207 -158.5t-263 -58.5q-127 0 -230.5 53t-178.5 145.5 t-116 208t-41 238.5zM264 645q0 -88 24.5 -176t76 -159.5t132 -115.5t191.5 -44q121 0 209 56t145.5 145t85 192.5t27.5 197.5q0 43 -12.5 108.5t-38 136.5t-64.5 132.5t-92 100t-119 38.5q-129 0 -233 -51t-179 -139t-114 -197.5t-39 -224.5zM553 1782q-2 16 21.5 40.5 t48.5 26.5q12 2 17.5 3t13.5 -3q8 -2 40.5 -16.5t65.5 -29.5t43 -23q12 -8 27.5 -15.5t30.5 -17.5q23 -12 53.5 -31.5t55 -42.5t26.5 -47v-12q0 -35 -33 -35q-27 0 -60.5 19.5t-48.5 29.5q-4 4 -17 9t-30 13q-14 8 -30.5 17.5t-36.5 15.5q-45 16 -85 30.5t-46 20.5l-27 17 q-4 4 -8 7t-8 5q-8 10 -13 19z" />
<glyph unicode="&#xd3;" horiz-adv-x="1429" d="M102 645q0 268 126 440t370 273q66 25 143.5 48.5t141.5 23.5q61 0 111 -16.5t83 -53.5q23 -25 31 -50.5t8 -49.5q16 -14 35.5 -42t36.5 -53q76 -104 103.5 -212.5t27.5 -241.5q0 -139 -47 -266.5t-134 -227.5t-207 -158.5t-263 -58.5q-127 0 -230.5 53t-178.5 145.5 t-116 208t-41 238.5zM264 645q0 -88 24.5 -176t76 -159.5t132 -115.5t191.5 -44q121 0 209 56t145.5 145t85 192.5t27.5 197.5q0 43 -12.5 108.5t-38 136.5t-64.5 132.5t-92 100t-119 38.5q-129 0 -233 -51t-179 -139t-114 -197.5t-39 -224.5zM632 1624q4 25 29 47 t55.5 41.5t51.5 32.5q16 10 30.5 17t26.5 15q10 8 43 23.5t65.5 30t40.5 16.5q6 2 13 2q8 0 18 -2q25 -2 48.5 -26.5t21.5 -40.5q-2 -8 -13 -19q-4 -2 -7 -5t-9 -7l-27 -17q-8 -4 -46 -19t-85 -32q-20 -6 -36.5 -15t-30.5 -18q-16 -8 -29.5 -13t-17.5 -9q-14 -10 -48 -29.5 t-61 -19.5q-16 0 -25.5 10t-7.5 37z" />
<glyph unicode="&#xd4;" horiz-adv-x="1429" d="M102 645q0 268 126 440t370 273q66 25 143.5 48.5t141.5 23.5q61 0 111 -16.5t83 -53.5q23 -25 31 -50.5t8 -49.5q16 -14 35.5 -42t36.5 -53q76 -104 103.5 -212.5t27.5 -241.5q0 -139 -47 -266.5t-134 -227.5t-207 -158.5t-263 -58.5q-127 0 -230.5 53t-178.5 145.5 t-116 208t-41 238.5zM264 645q0 -88 24.5 -176t76 -159.5t132 -115.5t191.5 -44q121 0 209 56t145.5 145t85 192.5t27.5 197.5q0 43 -12.5 108.5t-38 136.5t-64.5 132.5t-92 100t-119 38.5q-129 0 -233 -51t-179 -139t-114 -197.5t-39 -224.5zM459 1587q0 25 29.5 63.5 t73.5 80.5t89 78t76 50q16 12 51 13q31 0 51 -13q39 -23 85 -58.5t88 -75.5t70 -76.5t28 -61.5q0 -43 -37 -43q-20 0 -43 12.5t-35 20.5q-14 12 -45 36.5t-65 51t-61.5 47t-39.5 25.5q-16 -6 -55 -35t-78 -62t-58 -49q-14 -14 -42.5 -33.5t-51.5 -19.5q-31 0 -30 49z" />
<glyph unicode="&#xd5;" horiz-adv-x="1429" d="M102 645q0 268 126 440t370 273q66 25 143.5 48.5t141.5 23.5q61 0 111 -16.5t83 -53.5q23 -25 31 -50.5t8 -49.5q16 -14 35.5 -42t36.5 -53q76 -104 103.5 -212.5t27.5 -241.5q0 -139 -47 -266.5t-134 -227.5t-207 -158.5t-263 -58.5q-127 0 -230.5 53t-178.5 145.5 t-116 208t-41 238.5zM264 645q0 -88 24.5 -176t76 -159.5t132 -115.5t191.5 -44q121 0 209 56t145.5 145t85 192.5t27.5 197.5q0 43 -12.5 108.5t-38 136.5t-64.5 132.5t-92 100t-119 38.5q-129 0 -233 -51t-179 -139t-114 -197.5t-39 -224.5zM457 1624q0 18 13 47 t32.5 57.5t37.5 44.5q27 23 52.5 35t56.5 12q49 0 96 -28.5t90 -57t78 -28.5q31 0 47.5 15.5t36.5 35.5q12 12 26.5 24.5t33.5 12.5q18 0 31.5 -11.5t13.5 -35.5q0 -31 -22.5 -71t-61.5 -69.5t-90 -29.5q-66 0 -104 16.5t-61.5 38t-46 37.5t-59.5 16q-33 0 -49 -19.5 t-39 -49.5q-8 -8 -15 -18.5t-18 -20.5q-16 -10 -24 -10q-31 0 -43 18t-12 39z" />
<glyph unicode="&#xd6;" horiz-adv-x="1429" d="M102 645q0 268 126 440t370 273q66 25 143.5 48.5t141.5 23.5q61 0 111 -16.5t83 -53.5q23 -25 31 -50.5t8 -49.5q16 -14 35.5 -42t36.5 -53q76 -104 103.5 -212.5t27.5 -241.5q0 -139 -47 -266.5t-134 -227.5t-207 -158.5t-263 -58.5q-127 0 -230.5 53t-178.5 145.5 t-116 208t-41 238.5zM264 645q0 -88 24.5 -176t76 -159.5t132 -115.5t191.5 -44q121 0 209 56t145.5 145t85 192.5t27.5 197.5q0 43 -12.5 108.5t-38 136.5t-64.5 132.5t-92 100t-119 38.5q-129 0 -233 -51t-179 -139t-114 -197.5t-39 -224.5zM508 1673q0 47 34 90t95 43 q47 0 68.5 -28.5t21.5 -65.5q0 -47 -33 -91t-94 -44q-47 0 -69.5 28.5t-22.5 67.5zM903 1673q0 47 34 90t95 43q47 0 68.5 -28.5t21.5 -65.5q0 -47 -33 -91t-94 -44q-47 0 -69.5 28.5t-22.5 67.5z" />
<glyph unicode="&#xd7;" horiz-adv-x="1511" d="M281 346q113 133 196.5 228.5t154 173t143.5 155.5t163 178q25 25 68 28t73 -30q10 -10 13.5 -39.5t-15.5 -46.5q-123 -121 -273 -292t-396 -425q-41 -43 -66 -48t-47 20q-51 53 -14 98zM316.5 1039q2.5 30 13.5 40q31 33 73.5 30t67.5 -28q90 -100 163 -178 t143.5 -155.5t154.5 -173t196 -228.5q37 -45 -14 -98q-23 -25 -47.5 -20t-65.5 48q-246 254 -396 425t-273 292q-18 16 -15.5 46z" />
<glyph unicode="&#xd8;" horiz-adv-x="1429" d="M76 -23q0 18 14 35q37 45 102.5 132t151.5 201t183.5 244t196.5 263t193.5 259t172 231.5t133.5 179.5q47 63 75 63q16 0 31 -20q23 -33 23 -64q0 -29 -17 -53q-94 -137 -210.5 -298t-242.5 -328t-248 -327.5t-228.5 -301t-184.5 -244.5q-29 -41 -74 -41q-35 0 -57 31 q-4 6 -9 16t-5 22zM102 645q0 268 126 440t370 273q66 25 143.5 48.5t141.5 23.5q61 0 111 -16.5t83 -53.5q23 -25 31 -50.5t8 -49.5q16 -14 35.5 -42t36.5 -53q76 -104 103.5 -212.5t27.5 -241.5q0 -139 -47 -266.5t-134 -227.5t-207 -158.5t-263 -58.5q-127 0 -230.5 53 t-178.5 145.5t-116 208t-41 238.5zM264 645q0 -88 24.5 -176t76 -159.5t132 -115.5t191.5 -44q121 0 209 56t145.5 145t85 192.5t27.5 197.5q0 43 -12.5 108.5t-38 136.5t-64.5 132.5t-92 100t-119 38.5q-129 0 -233 -51t-179 -139t-114 -197.5t-39 -224.5z" />
<glyph unicode="&#xd9;" horiz-adv-x="1409" d="M106 772q0 188 35 328q4 18 13.5 57t22.5 83t27.5 79t28.5 43q16 10 33 15t31 5q20 0 39 -12q12 -8 18 -18.5t6 -32.5q0 -18 -6 -49q-10 -51 -25.5 -114.5t-27.5 -131.5t-18.5 -142.5t-6.5 -146.5q0 -123 18.5 -230.5t56.5 -174t95 -66.5q20 0 59.5 17.5t77.5 40t56 36.5 q113 94 189.5 187.5t130 201t97.5 239.5t91 302q16 35 51 35q25 0 45.5 -18.5t16.5 -53.5q-8 -113 -14.5 -218t-6.5 -208q0 -100 6 -199.5t21 -199.5q10 -68 14 -100.5t5 -46t1 -25.5q0 -33 -21.5 -54.5t-52.5 -21.5q-45 0 -67.5 35t-32.5 102q-4 23 -11 79.5t-13.5 132 t-6.5 149.5q-90 -172 -338 -420q-66 -70 -146.5 -112t-182.5 -42q-82 0 -140.5 58.5t-95.5 157t-54.5 217t-17.5 237.5zM528 1782q-2 16 21.5 40.5t48.5 26.5q12 2 17.5 3t13.5 -3q8 -2 40.5 -16.5t65.5 -29.5t43 -23q12 -8 27.5 -15.5t30.5 -17.5q23 -12 53.5 -31.5 t55 -42.5t26.5 -47v-12q0 -35 -33 -35q-27 0 -60.5 19.5t-48.5 29.5q-4 4 -17 9t-30 13q-14 8 -30.5 17.5t-36.5 15.5q-45 16 -85 30.5t-46 20.5l-27 17q-4 4 -8 7t-8 5q-8 10 -13 19z" />
<glyph unicode="&#xda;" horiz-adv-x="1409" d="M106 772q0 188 35 328q4 18 13.5 57t22.5 83t27.5 79t28.5 43q16 10 33 15t31 5q20 0 39 -12q12 -8 18 -18.5t6 -32.5q0 -18 -6 -49q-10 -51 -25.5 -114.5t-27.5 -131.5t-18.5 -142.5t-6.5 -146.5q0 -123 18.5 -230.5t56.5 -174t95 -66.5q20 0 59.5 17.5t77.5 40t56 36.5 q113 94 189.5 187.5t130 201t97.5 239.5t91 302q16 35 51 35q25 0 45.5 -18.5t16.5 -53.5q-8 -113 -14.5 -218t-6.5 -208q0 -100 6 -199.5t21 -199.5q10 -68 14 -100.5t5 -46t1 -25.5q0 -33 -21.5 -54.5t-52.5 -21.5q-45 0 -67.5 35t-32.5 102q-4 23 -11 79.5t-13.5 132 t-6.5 149.5q-90 -172 -338 -420q-66 -70 -146.5 -112t-182.5 -42q-82 0 -140.5 58.5t-95.5 157t-54.5 217t-17.5 237.5zM608 1624q4 25 29 47t55.5 41.5t51.5 32.5q16 10 30.5 17t26.5 15q10 8 43 23.5t65.5 30t40.5 16.5q6 2 13 2q8 0 18 -2q25 -2 48.5 -26.5t21.5 -40.5 q-2 -8 -13 -19q-4 -2 -7 -5t-9 -7l-27 -17q-8 -4 -46 -19t-85 -32q-20 -6 -36.5 -15t-30.5 -18q-16 -8 -29.5 -13t-17.5 -9q-14 -10 -48 -29.5t-61 -19.5q-16 0 -25.5 10t-7.5 37z" />
<glyph unicode="&#xdb;" horiz-adv-x="1409" d="M106 772q0 188 35 328q4 18 13.5 57t22.5 83t27.5 79t28.5 43q16 10 33 15t31 5q20 0 39 -12q12 -8 18 -18.5t6 -32.5q0 -18 -6 -49q-10 -51 -25.5 -114.5t-27.5 -131.5t-18.5 -142.5t-6.5 -146.5q0 -123 18.5 -230.5t56.5 -174t95 -66.5q20 0 59.5 17.5t77.5 40t56 36.5 q113 94 189.5 187.5t130 201t97.5 239.5t91 302q16 35 51 35q25 0 45.5 -18.5t16.5 -53.5q-8 -113 -14.5 -218t-6.5 -208q0 -100 6 -199.5t21 -199.5q10 -68 14 -100.5t5 -46t1 -25.5q0 -33 -21.5 -54.5t-52.5 -21.5q-45 0 -67.5 35t-32.5 102q-4 23 -11 79.5t-13.5 132 t-6.5 149.5q-90 -172 -338 -420q-66 -70 -146.5 -112t-182.5 -42q-82 0 -140.5 58.5t-95.5 157t-54.5 217t-17.5 237.5zM435 1587q0 25 29.5 63.5t73.5 80.5t89 78t76 50q16 12 51 13q31 0 51 -13q39 -23 85 -58.5t88 -75.5t70 -76.5t28 -61.5q0 -43 -37 -43q-20 0 -43 12.5 t-35 20.5q-14 12 -45 36.5t-65 51t-61.5 47t-39.5 25.5q-16 -6 -55 -35t-78 -62t-58 -49q-14 -14 -42.5 -33.5t-51.5 -19.5q-31 0 -30 49z" />
<glyph unicode="&#xdc;" horiz-adv-x="1409" d="M106 772q0 188 35 328q4 18 13.5 57t22.5 83t27.5 79t28.5 43q16 10 33 15t31 5q20 0 39 -12q12 -8 18 -18.5t6 -32.5q0 -18 -6 -49q-10 -51 -25.5 -114.5t-27.5 -131.5t-18.5 -142.5t-6.5 -146.5q0 -123 18.5 -230.5t56.5 -174t95 -66.5q20 0 59.5 17.5t77.5 40t56 36.5 q113 94 189.5 187.5t130 201t97.5 239.5t91 302q16 35 51 35q25 0 45.5 -18.5t16.5 -53.5q-8 -113 -14.5 -218t-6.5 -208q0 -100 6 -199.5t21 -199.5q10 -68 14 -100.5t5 -46t1 -25.5q0 -33 -21.5 -54.5t-52.5 -21.5q-45 0 -67.5 35t-32.5 102q-4 23 -11 79.5t-13.5 132 t-6.5 149.5q-90 -172 -338 -420q-66 -70 -146.5 -112t-182.5 -42q-82 0 -140.5 58.5t-95.5 157t-54.5 217t-17.5 237.5zM483 1673q0 47 34 90t95 43q47 0 68.5 -28.5t21.5 -65.5q0 -47 -33 -91t-94 -44q-47 0 -69.5 28.5t-22.5 67.5zM878 1673q0 47 34 90t95 43 q47 0 68.5 -28.5t21.5 -65.5q0 -47 -33 -91t-94 -44q-47 0 -69.5 28.5t-22.5 67.5z" />
<glyph unicode="&#xdd;" horiz-adv-x="1206" d="M92 1374q0 35 20.5 55.5t47.5 20.5q68 0 102 -82q10 -20 16.5 -42.5t12.5 -45.5l11 -49.5t13 -40.5q8 -20 29 -64.5t49.5 -97.5t62 -101t68.5 -79t64 -31q72 0 147 109q29 41 57.5 94t59.5 108q37 66 70.5 127.5t70.5 101.5t78 40q31 0 44 -20.5t13 -51.5q0 -35 -13 -79 t-36 -83t-49 -77.5t-51 -73.5q-78 -106 -143.5 -188.5t-149.5 -159.5q-14 -59 -35.5 -160t-36.5 -246q-6 -68 -11 -129t-19.5 -100t-51.5 -39q-29 0 -54 32.5t-34 77.5v105q0 104 21.5 209.5t21.5 208.5v41q-80 80 -140 152.5t-106 150t-85 178.5q-20 53 -42 112.5 t-22 116.5zM456 1624q4 25 29 47t55.5 41.5t51.5 32.5q16 10 30.5 17t26.5 15q10 8 43 23.5t65.5 30t40.5 16.5q6 2 13 2q8 0 18 -2q25 -2 48.5 -26.5t21.5 -40.5q-2 -8 -13 -19q-4 -2 -7 -5t-9 -7l-27 -17q-8 -4 -46 -19t-85 -32q-20 -6 -36.5 -15t-30.5 -18 q-16 -8 -29.5 -13t-17.5 -9q-14 -10 -48 -29.5t-61 -19.5q-16 0 -25.5 10t-7.5 37z" />
<glyph unicode="&#xde;" horiz-adv-x="1318" d="M102 1280q0 35 33 61.5t98 34.5l48 8q6 0 7 40t2 92.5t2 94.5t3 48q20 45 43.5 63.5t46.5 18.5q29 0 47.5 -24.5t18.5 -59.5q0 -2 -1 -35t-2.5 -76t-1.5 -80q0 -29 1.5 -47t3.5 -18q51 4 93 9t64 9h6q209 0 347.5 -45t207 -120.5t68.5 -168.5q0 -104 -49 -196t-133 -165 t-186.5 -123t-211.5 -73q-41 -8 -108.5 -9t-140.5 -1q0 -113 5 -193.5t5 -152.5v-63q0 -35 -6 -70q-8 -35 -19.5 -47t-27.5 -12q-49 0 -75 36.5t-35 90t-10 104.5t-1 78v227q0 154 16 317.5t16 348.5q-106 0 -140 18.5t-34 79.5zM408 688h249q47 0 114 32t131.5 84 t107.5 115.5t43 124.5q0 55 -27 92.5t-66.5 60t-79.5 33.5t-67 17q-53 10 -106.5 15.5t-100.5 5.5q-121 0 -172 -21q4 -63 -11 -211.5t-15 -347.5z" />
<glyph unicode="&#xdf;" horiz-adv-x="1439" d="M305 2v184q0 127 5 249t5 251q0 188 21.5 346t74 274.5t140.5 180t219 63.5q78 0 157 -15t143.5 -64.5t98.5 -155.5q12 -39 13 -94q0 -59 -15.5 -122t-44 -104t-69.5 -41q-27 0 -69 -3t-83 -16t-68.5 -43t-27.5 -83q0 -78 119 -129q43 -16 96 -32.5t110 -39.5 q111 -41 190 -117.5t79 -193.5t-59.5 -189.5t-156 -105.5t-210.5 -33q-74 0 -147.5 9.5t-124 43t-50.5 103.5q0 68 33 68q23 0 41 -15.5t43 -36t64.5 -36t107.5 -15.5q61 0 135 19.5t126 62.5t52 115q0 80 -36.5 118.5t-81.5 59.5q-20 10 -46 20.5t-55 18.5q-27 8 -53.5 16 t-54.5 17q-74 25 -134.5 56.5t-96.5 80.5t-36 125q0 100 51.5 158.5t132.5 88t171 37.5q4 33 8 69t0 62q-6 66 -30.5 108t-79 64.5t-154.5 24.5q-88 2 -148.5 -71.5t-96.5 -195.5t-54.5 -269.5t-22.5 -292.5v-279q0 -70 6.5 -137.5t6.5 -126.5q0 -39 -10.5 -80t-57.5 -41 q-27 0 -51.5 25.5t-24.5 58.5z" />
<glyph unicode="&#xe0;" horiz-adv-x="1247" d="M102 287v108q0 117 43 236t120 219t182.5 160.5t228.5 60.5q78 0 150.5 -26.5t129.5 -61.5q12 86 31 119t64 33q35 0 49 -21.5t14 -75.5q0 -123 -5 -240.5t-5 -240.5q0 -98 11 -202.5t11 -200.5q0 -31 1 -62t-10 -50t-46 -19q-49 0 -72.5 46t-32 111.5t-16.5 122.5 q-20 -55 -68 -108.5t-96.5 -91t-74 -53t-0.5 2.5q-45 -33 -112 -53t-124 -20q-92 0 -171 40.5t-132 110.5t-70 156zM233 395q0 -55 19.5 -122.5t68 -115.5t134.5 -48q92 0 172 53t140 137t94 176t34 170q0 39 -9 89t-34 97.5t-67 78t-109 30.5q-88 0 -168 -56.5 t-142.5 -143.5t-97.5 -179t-35 -166zM492 1522q0 16 26.5 36.5t51.5 20.5q18 0 31 -4q8 -4 34.5 -21.5t54 -37t35.5 -27.5q10 -8 23.5 -19.5t28.5 -21.5q20 -14 46.5 -38t48 -50.5t21.5 -50.5q1 -43 -30 -43q-27 0 -61 25.5t-48 39.5l-43 29q-14 10 -30.5 20.5t-32.5 22.5 q-33 20 -68 38.5t-41 24.5l-22 21q-10 10 -17 14q-8 10 -8 21z" />
<glyph unicode="&#xe1;" horiz-adv-x="1247" d="M102 287v108q0 117 43 236t120 219t182.5 160.5t228.5 60.5q78 0 150.5 -26.5t129.5 -61.5q12 86 31 119t64 33q35 0 49 -21.5t14 -75.5q0 -123 -5 -240.5t-5 -240.5q0 -98 11 -202.5t11 -200.5q0 -31 1 -62t-10 -50t-46 -19q-49 0 -72.5 46t-32 111.5t-16.5 122.5 q-20 -55 -68 -108.5t-96.5 -91t-74 -53t-0.5 2.5q-45 -33 -112 -53t-124 -20q-92 0 -171 40.5t-132 110.5t-70 156zM233 395q0 -55 19.5 -122.5t68 -115.5t134.5 -48q92 0 172 53t140 137t94 176t34 170q0 39 -9 89t-34 97.5t-67 78t-109 30.5q-88 0 -168 -56.5 t-142.5 -143.5t-97.5 -179t-35 -166zM532 1311q0 25 20.5 51.5t48 50t46.5 37.5q14 12 28.5 23.5t24.5 19.5t36.5 26.5t53.5 37t33 20.5q10 4 15 4h14q27 0 54 -19.5t27 -35.5q0 -8 -12 -21l-12 -14q-4 -6 -11.5 -11t-11.5 -10q-8 -8 -42.5 -25.5t-67.5 -39.5l-64 -41 q-35 -25 -41 -31q-14 -12 -48.5 -37.5t-61.5 -25.5q-29 0 -29 41z" />
<glyph unicode="&#xe2;" horiz-adv-x="1247" d="M102 287v108q0 117 43 236t120 219t182.5 160.5t228.5 60.5q78 0 150.5 -26.5t129.5 -61.5q12 86 31 119t64 33q35 0 49 -21.5t14 -75.5q0 -123 -5 -240.5t-5 -240.5q0 -98 11 -202.5t11 -200.5q0 -31 1 -62t-10 -50t-46 -19q-49 0 -72.5 46t-32 111.5t-16.5 122.5 q-20 -55 -68 -108.5t-96.5 -91t-74 -53t-0.5 2.5q-45 -33 -112 -53t-124 -20q-92 0 -171 40.5t-132 110.5t-70 156zM233 395q0 -55 19.5 -122.5t68 -115.5t134.5 -48q92 0 172 53t140 137t94 176t34 170q0 39 -9 89t-34 97.5t-67 78t-109 30.5q-88 0 -168 -56.5 t-142.5 -143.5t-97.5 -179t-35 -166zM391 1280q0 25 26.5 63.5t66.5 80.5t82 78t73 50q16 12 51 13q31 0 51 -13q51 -31 109.5 -83t99.5 -104t41 -85q0 -43 -37 -43q-20 0 -42.5 12.5t-35.5 20.5q-20 16 -60 52t-77 68.5t-53 39.5q-16 -6 -50 -35t-68 -62t-52 -49 q-14 -14 -42.5 -33.5t-51.5 -19.5q-31 0 -31 49z" />
<glyph unicode="&#xe3;" horiz-adv-x="1247" d="M102 287v108q0 117 43 236t120 219t182.5 160.5t228.5 60.5q78 0 150.5 -26.5t129.5 -61.5q12 86 31 119t64 33q35 0 49 -21.5t14 -75.5q0 -123 -5 -240.5t-5 -240.5q0 -98 11 -202.5t11 -200.5q0 -31 1 -62t-10 -50t-46 -19q-49 0 -72.5 46t-32 111.5t-16.5 122.5 q-20 -55 -68 -108.5t-96.5 -91t-74 -53t-0.5 2.5q-45 -33 -112 -53t-124 -20q-92 0 -171 40.5t-132 110.5t-70 156zM233 395q0 -55 19.5 -122.5t68 -115.5t134.5 -48q92 0 172 53t140 137t94 176t34 170q0 39 -9 89t-34 97.5t-67 78t-109 30.5q-88 0 -168 -56.5 t-142.5 -143.5t-97.5 -179t-35 -166zM389 1317q0 18 13.5 47t33 57.5t37.5 44.5q27 23 52.5 35t56.5 12q49 0 85.5 -28.5t69.5 -57t68 -28.5q31 0 47 15.5t37 35.5q12 12 26.5 24.5t32.5 12.5t31.5 -11.5t13.5 -35.5q0 -31 -22.5 -71t-61.5 -69.5t-90 -29.5q-57 0 -88 16.5 t-48.5 38t-36.5 37.5t-56 16q-33 0 -49.5 -19.5t-38.5 -49.5q-8 -8 -15.5 -18.5t-17.5 -20.5q-17 -10 -25 -10q-31 0 -43 18t-12 39z" />
<glyph unicode="&#xe4;" horiz-adv-x="1247" d="M102 287v108q0 117 43 236t120 219t182.5 160.5t228.5 60.5q78 0 150.5 -26.5t129.5 -61.5q12 86 31 119t64 33q35 0 49 -21.5t14 -75.5q0 -123 -5 -240.5t-5 -240.5q0 -98 11 -202.5t11 -200.5q0 -31 1 -62t-10 -50t-46 -19q-49 0 -72.5 46t-32 111.5t-16.5 122.5 q-20 -55 -68 -108.5t-96.5 -91t-74 -53t-0.5 2.5q-45 -33 -112 -53t-124 -20q-92 0 -171 40.5t-132 110.5t-70 156zM233 395q0 -55 19.5 -122.5t68 -115.5t134.5 -48q92 0 172 53t140 137t94 176t34 170q0 39 -9 89t-34 97.5t-67 78t-109 30.5q-88 0 -168 -56.5 t-142.5 -143.5t-97.5 -179t-35 -166zM420 1366q0 47 34 90t95 43q47 0 68.5 -28.5t21.5 -65.5q0 -47 -33 -91t-94 -44q-47 0 -69.5 28.5t-22.5 67.5zM815 1366q0 47 34 90t95 43q47 0 68.5 -28.5t21.5 -65.5q0 -47 -33 -91t-94 -44q-47 0 -69.5 28.5t-22.5 67.5z" />
<glyph unicode="&#xe5;" horiz-adv-x="1247" d="M102 287v108q0 117 43 236t120 219t182.5 160.5t228.5 60.5q78 0 150.5 -26.5t129.5 -61.5q12 86 31 119t64 33q35 0 49 -21.5t14 -75.5q0 -123 -5 -240.5t-5 -240.5q0 -98 11 -202.5t11 -200.5q0 -31 1 -62t-10 -50t-46 -19q-49 0 -72.5 46t-32 111.5t-16.5 122.5 q-20 -55 -68 -108.5t-96.5 -91t-74 -53t-0.5 2.5q-45 -33 -112 -53t-124 -20q-92 0 -171 40.5t-132 110.5t-70 156zM233 395q0 -55 19.5 -122.5t68 -115.5t134.5 -48q92 0 172 53t140 137t94 176t34 170q0 39 -9 89t-34 97.5t-67 78t-109 30.5q-88 0 -168 -56.5 t-142.5 -143.5t-97.5 -179t-35 -166zM469 1468q0 96 67.5 157t168.5 61q88 0 149.5 -60.5t61.5 -157.5q0 -80 -54.5 -145.5t-173.5 -65.5q-41 0 -93 20.5t-89 68t-37 122.5zM590 1468q0 -43 32 -66.5t77 -23.5q51 0 72.5 27t21.5 72q0 43 -25.5 65.5t-68.5 22.5 q-55 0 -82 -26t-27 -71z" />
<glyph unicode="&#xe6;" horiz-adv-x="1996" d="M102 287v108q0 117 43 236t120 219t182.5 160.5t228.5 60.5q78 0 150.5 -26.5t129.5 -61.5q12 86 31 119t64 33q35 0 49 -21.5t14 -75.5q0 -123 -5 -240.5t-5 -240.5q0 -98 11 -202.5t11 -200.5q0 -31 1 -62t-10 -50t-46 -19q-49 0 -72.5 46t-32 111.5t-16.5 122.5 q-20 -55 -68 -108.5t-96.5 -91t-74 -53t-0.5 2.5q-45 -33 -112 -53t-124 -20q-92 0 -171 40.5t-132 110.5t-70 156zM233 395q0 -55 19.5 -122.5t68 -115.5t134.5 -48q92 0 172 53t140 137t94 176t34 170q0 39 -9 89t-34 97.5t-67 78t-109 30.5q-88 0 -168 -56.5 t-142.5 -143.5t-97.5 -179t-35 -166zM964 418q0 125 42 243.5t120 215t186.5 152.5t241.5 56q92 0 167 -34.5t120 -98t45 -151.5q0 -94 -40 -179t-107.5 -150.5t-152.5 -103.5t-177 -38q-80 0 -149.5 13t-129.5 42q0 -78 37 -132t94.5 -88t120 -49.5t115.5 -15.5 q43 0 86 5.5t94 5.5q76 0 76 -66q0 -51 -72 -65q-39 -8 -80 -9.5t-82 -1.5q-156 0 -281.5 46t-199.5 145.5t-74 257.5zM1130 532q47 -25 119 -31.5t160 -6.5q72 0 149.5 28.5t132 90t54.5 155.5q0 84 -52.5 136t-138.5 52q-78 0 -152.5 -35.5t-136 -96t-98.5 -136.5 t-37 -156z" />
<glyph unicode="&#xe7;" horiz-adv-x="1185" d="M111 545q0 156 69.5 284.5t192.5 207.5t278 79q43 0 100.5 -6t110.5 -24.5t88 -53.5t35 -92q0 -23 -18.5 -39t-59.5 -16q-33 0 -60.5 16.5t-51.5 32.5q-37 25 -77 44t-87 19q-90 0 -157.5 -46t-113 -118.5t-68 -153.5t-22.5 -149q0 -133 52.5 -211.5t139.5 -112.5 t189 -34q98 0 179 35t165 74q29 14 47 14q25 0 33 -19.5t8 -48.5q0 -53 -43 -89t-108.5 -57.5t-140 -32.5t-138 -14t-100.5 -3q-143 0 -241.5 69.5t-149.5 187.5t-51 257zM426 -406q0 31 20.5 45.5t46.5 14.5q10 0 31 -5t70 -5q104 0 104 80q0 39 -30.5 61t-92.5 22 q-27 0 -47 15.5t-20 40.5q0 10 4 26q25 82 35 127q4 23 22.5 35t36.5 12q25 0 45.5 -19t20.5 -52v-10.5t-2 -10.5q-2 -12 -3 -34.5t-4 -32.5q166 0 166 -187q0 -98 -61.5 -138t-167.5 -40q-8 0 -33.5 -2t-50.5 -2q-35 0 -51 6q-20 8 -29.5 22.5t-9.5 30.5z" />
<glyph unicode="&#xe8;" horiz-adv-x="1134" d="M102 418q0 125 42 243.5t120 215t186.5 152.5t241.5 56q92 0 167 -34.5t120 -98t45 -151.5q0 -94 -40 -179t-107.5 -150.5t-152.5 -103.5t-177 -38q-80 0 -149.5 13t-129.5 42q0 -78 37 -132t94.5 -88t120 -49.5t115.5 -15.5q43 0 86 5.5t94 5.5q76 0 76 -66 q0 -51 -72 -65q-39 -8 -80 -9.5t-82 -1.5q-156 0 -281.5 46t-199.5 145.5t-74 257.5zM268 532q47 -25 119 -31.5t160 -6.5q72 0 149.5 28.5t132 90t54.5 155.5q0 84 -52.5 136t-138.5 52q-78 0 -152.5 -35.5t-136 -96t-98.5 -136.5t-37 -156zM467 1522q0 16 26.5 36.5 t51.5 20.5q18 0 31 -4q8 -4 34.5 -21.5t54 -37t35.5 -27.5q10 -8 23.5 -19.5t28.5 -21.5q20 -14 46.5 -38t48 -50.5t21.5 -50.5q1 -43 -30 -43q-27 0 -61 25.5t-48 39.5l-43 29q-14 10 -30.5 20.5t-32.5 22.5q-33 20 -68 38.5t-41 24.5l-22 21q-10 10 -17 14q-8 10 -8 21z " />
<glyph unicode="&#xe9;" horiz-adv-x="1134" d="M102 418q0 125 42 243.5t120 215t186.5 152.5t241.5 56q92 0 167 -34.5t120 -98t45 -151.5q0 -94 -40 -179t-107.5 -150.5t-152.5 -103.5t-177 -38q-80 0 -149.5 13t-129.5 42q0 -78 37 -132t94.5 -88t120 -49.5t115.5 -15.5q43 0 86 5.5t94 5.5q76 0 76 -66 q0 -51 -72 -65q-39 -8 -80 -9.5t-82 -1.5q-156 0 -281.5 46t-199.5 145.5t-74 257.5zM268 532q47 -25 119 -31.5t160 -6.5q72 0 149.5 28.5t132 90t54.5 155.5q0 84 -52.5 136t-138.5 52q-78 0 -152.5 -35.5t-136 -96t-98.5 -136.5t-37 -156zM508 1311q0 25 20.5 51.5t48 50 t46.5 37.5q14 12 28.5 23.5t24.5 19.5t36.5 26.5t53.5 37t33 20.5q10 4 15 4h14q27 0 54 -19.5t27 -35.5q0 -8 -12 -21l-12 -14q-4 -6 -11.5 -11t-11.5 -10q-8 -8 -42.5 -25.5t-67.5 -39.5l-64 -41q-35 -25 -41 -31q-14 -12 -48.5 -37.5t-61.5 -25.5q-29 0 -29 41z" />
<glyph unicode="&#xea;" horiz-adv-x="1134" d="M102 418q0 125 42 243.5t120 215t186.5 152.5t241.5 56q92 0 167 -34.5t120 -98t45 -151.5q0 -94 -40 -179t-107.5 -150.5t-152.5 -103.5t-177 -38q-80 0 -149.5 13t-129.5 42q0 -78 37 -132t94.5 -88t120 -49.5t115.5 -15.5q43 0 86 5.5t94 5.5q76 0 76 -66 q0 -51 -72 -65q-39 -8 -80 -9.5t-82 -1.5q-156 0 -281.5 46t-199.5 145.5t-74 257.5zM268 532q47 -25 119 -31.5t160 -6.5q72 0 149.5 28.5t132 90t54.5 155.5q0 84 -52.5 136t-138.5 52q-78 0 -152.5 -35.5t-136 -96t-98.5 -136.5t-37 -156zM367 1280q0 25 26.5 63.5 t66.5 80.5t82 78t73 50q16 12 51 13q31 0 51 -13q51 -31 109.5 -83t99.5 -104t41 -85q0 -43 -37 -43q-20 0 -42.5 12.5t-35.5 20.5q-20 16 -60 52t-77 68.5t-53 39.5q-16 -6 -50 -35t-68 -62t-52 -49q-14 -14 -42.5 -33.5t-51.5 -19.5q-31 0 -31 49z" />
<glyph unicode="&#xeb;" horiz-adv-x="1134" d="M102 418q0 125 42 243.5t120 215t186.5 152.5t241.5 56q92 0 167 -34.5t120 -98t45 -151.5q0 -94 -40 -179t-107.5 -150.5t-152.5 -103.5t-177 -38q-80 0 -149.5 13t-129.5 42q0 -78 37 -132t94.5 -88t120 -49.5t115.5 -15.5q43 0 86 5.5t94 5.5q76 0 76 -66 q0 -51 -72 -65q-39 -8 -80 -9.5t-82 -1.5q-156 0 -281.5 46t-199.5 145.5t-74 257.5zM268 532q47 -25 119 -31.5t160 -6.5q72 0 149.5 28.5t132 90t54.5 155.5q0 84 -52.5 136t-138.5 52q-78 0 -152.5 -35.5t-136 -96t-98.5 -136.5t-37 -156zM395 1366q0 47 34 90t95 43 q47 0 68.5 -28.5t21.5 -65.5q0 -47 -33 -91t-94 -44q-47 0 -69.5 28.5t-22.5 67.5zM790 1366q0 47 34 90t95 43q47 0 68.5 -28.5t21.5 -65.5q0 -47 -33 -91t-94 -44q-47 0 -69.5 28.5t-22.5 67.5z" />
<glyph unicode="&#xec;" horiz-adv-x="536" d="M92 1418q0 16 26.5 36.5t51.5 20.5q18 0 31 -4q8 -4 34.5 -21.5t54 -37t35.5 -27.5q10 -8 23.5 -19.5t28.5 -21.5q20 -14 46.5 -38t48 -50.5t21.5 -50.5q1 -43 -30 -43q-27 0 -61 25.5t-48 39.5l-43 29q-14 10 -30.5 20.5t-32.5 22.5q-33 20 -68 38.5t-41 24.5l-22 21 q-10 10 -17 14q-8 10 -8 21zM117 281q0 29 1 58.5t1 55.5q0 8 6 54.5t14 107.5t17.5 121.5t15.5 95.5q6 27 14.5 71t30 80t62.5 36q47 0 66.5 -17.5t19.5 -54.5q0 -10 -1.5 -20.5t-3.5 -22.5q-10 -66 -25.5 -163t-26.5 -202.5t-7 -199.5q2 -23 5 -52.5t3 -58.5 q0 -53 -22.5 -96t-100.5 -43q-29 0 -44 36.5t-20 94t-5 119.5z" />
<glyph unicode="&#xed;" horiz-adv-x="536" d="M117 281q0 29 1 58.5t1 55.5q0 8 6 54.5t14 107.5t17.5 121.5t15.5 95.5q6 27 14.5 71t30 80t62.5 36q47 0 66.5 -17.5t19.5 -54.5q0 -10 -1.5 -20.5t-3.5 -22.5q-10 -66 -25.5 -163t-26.5 -202.5t-7 -199.5q2 -23 5 -52.5t3 -58.5q0 -53 -22.5 -96t-100.5 -43 q-29 0 -44 36.5t-20 94t-5 119.5zM133 1207q0 25 20.5 51.5t48 50t46.5 37.5q14 12 28.5 23.5t24.5 19.5t36.5 26.5t53.5 37t33 20.5q10 4 15 4h14q27 0 54 -19.5t27 -35.5q0 -8 -12 -21l-12 -14q-4 -6 -11.5 -11t-11.5 -10q-8 -8 -42.5 -25.5t-67.5 -39.5l-64 -41 q-35 -25 -41 -31q-14 -12 -48.5 -37.5t-61.5 -25.5q-29 0 -29 41z" />
<glyph unicode="&#xee;" horiz-adv-x="536" d="M-8 1176q0 25 26.5 63.5t66.5 80.5t82 78t73 50q16 12 51 13q31 0 51 -13q51 -31 109.5 -83t99.5 -104t41 -85q0 -43 -37 -43q-20 0 -42.5 12.5t-35.5 20.5q-20 16 -60 52t-77 68.5t-53 39.5q-16 -6 -50 -35t-68 -62t-52 -49q-14 -14 -42.5 -33.5t-51.5 -19.5 q-31 0 -31 49zM117 281q0 29 1 58.5t1 55.5q0 8 6 54.5t14 107.5t17.5 121.5t15.5 95.5q6 27 14.5 71t30 80t62.5 36q47 0 66.5 -17.5t19.5 -54.5q0 -10 -1.5 -20.5t-3.5 -22.5q-10 -66 -25.5 -163t-26.5 -202.5t-7 -199.5q2 -23 5 -52.5t3 -58.5q0 -53 -22.5 -96 t-100.5 -43q-29 0 -44 36.5t-20 94t-5 119.5z" />
<glyph unicode="&#xef;" horiz-adv-x="536" d="M20 1262q0 47 34 90t95 43q47 0 68.5 -28.5t21.5 -65.5q0 -47 -33 -91t-94 -44q-47 0 -69.5 28.5t-22.5 67.5zM117 281q0 29 1 58.5t1 55.5q0 8 6 54.5t14 107.5t17.5 121.5t15.5 95.5q6 27 14.5 71t30 80t62.5 36q47 0 66.5 -17.5t19.5 -54.5q0 -10 -1.5 -20.5 t-3.5 -22.5q-10 -66 -25.5 -163t-26.5 -202.5t-7 -199.5q2 -23 5 -52.5t3 -58.5q0 -53 -22.5 -96t-100.5 -43q-29 0 -44 36.5t-20 94t-5 119.5zM415 1262q0 47 34 90t95 43q47 0 68.5 -28.5t21.5 -65.5q0 -47 -33 -91t-94 -44q-47 0 -69.5 28.5t-22.5 67.5z" />
<glyph unicode="&#xf0;" horiz-adv-x="1380" d="M102 514q0 104 44 194.5t114 172.5t146 159q35 35 79.5 50.5t96.5 15.5q150 0 282.5 -34t229.5 -107q-23 100 -63 199.5t-99 187.5q-45 -29 -96.5 -60.5t-112.5 -66.5q-29 -16 -45 -12t-31 30q-33 55 -6 74q63 47 112.5 81t92.5 60q-12 14 -27 27q-16 16 -33.5 31.5 t-37.5 27.5q-39 25 -86 25q-55 0 -86 -20.5t-50 -51.5q-23 -39 -51 -39q-25 0 -41 26.5t-16 61.5q0 31 14 58q16 35 52 59.5t81 32.5q25 4 47.5 6t44.5 2q104 0 187.5 -41t146.5 -111q27 16 56.5 35t62.5 39q18 10 47 -2t47 -45q6 -10 7 -32.5t-11 -28.5q-31 -16 -62.5 -35 t-66.5 -41q57 -96 96 -212t63.5 -239t37.5 -239q2 -14 3 -25.5t1 -21.5q0 -8 -1 -16.5t-3 -14.5q4 -27 7 -56.5t3 -60.5q0 -123 -52 -225.5t-141.5 -177t-200 -114.5t-227.5 -40q-147 0 -274 64.5t-204 180t-77 269.5zM244 494q0 -119 50 -195t134 -111.5t184 -35.5 q94 0 187.5 26.5t169 80.5t122 136t46.5 195q0 102 -44 175t-116 119t-156 68.5t-164 22.5q-33 0 -72.5 -5t-76.5 -40q-45 -43 -91 -87t-85 -98q-39 -51 -63.5 -114.5t-24.5 -136.5z" />
<glyph unicode="&#xf1;" horiz-adv-x="1380" d="M121 975v80q12 29 23.5 35t31.5 6q49 0 69.5 -38t28 -88t9.5 -87q2 -14 7 -61.5t11 -106t11 -111.5t5 -82q33 68 78 140.5t91 136t83 102.5q53 59 126 93t145 34q84 0 147.5 -47t109.5 -123t76.5 -163t49.5 -169q27 -109 40 -190.5t23 -185.5q0 -45 -18.5 -72t-44.5 -27 q-39 0 -55.5 17.5t-22.5 56.5q-14 78 -27.5 176t-36 199.5t-65.5 185.5q-16 39 -41 80t-59.5 69.5t-86.5 28.5q-68 0 -136 -59.5t-129.5 -153.5t-113 -201.5t-85.5 -203.5q-10 -33 -25.5 -73t-32.5 -75q-14 -29 -31.5 -43t-46.5 -14q-31 0 -45 14.5t-20 40.5q-10 35 -10 74 v80q0 66 4 114t4 105q0 20 -1 44t-3 50q-8 100 -22.5 211t-14.5 201zM549 1317q0 18 13.5 47t33 57.5t37.5 44.5q27 23 52.5 35t56.5 12q49 0 85.5 -28.5t69.5 -57t68 -28.5q31 0 47 15.5t37 35.5q12 12 26.5 24.5t32.5 12.5t31.5 -11.5t13.5 -35.5q0 -31 -22.5 -71 t-61.5 -69.5t-90 -29.5q-57 0 -88 16.5t-48.5 38t-36.5 37.5t-56 16q-33 0 -49.5 -19.5t-38.5 -49.5q-8 -8 -15.5 -18.5t-17.5 -20.5q-17 -10 -25 -10q-31 0 -43 18t-12 39z" />
<glyph unicode="&#xf2;" d="M102 514q0 104 44 194.5t114 172.5t146 159q35 35 79.5 50.5t96.5 15.5q141 0 266 -29.5t222 -95.5t152.5 -170t55.5 -254q0 -123 -52 -225.5t-141.5 -177t-200 -114.5t-227.5 -40q-147 0 -274 64.5t-204 180t-77 269.5zM244 494q0 -119 50 -195t134 -111.5t184 -35.5 q94 0 187.5 26.5t169 80.5t122 136t46.5 195q0 102 -44 175t-116 119t-156 68.5t-164 22.5q-33 0 -72.5 -5t-76.5 -40q-45 -43 -91 -87t-85 -98q-39 -51 -63.5 -114.5t-24.5 -136.5zM465 1522q0 16 26.5 36.5t51.5 20.5q18 0 31 -4q8 -4 34.5 -21.5t54 -37t35.5 -27.5 q10 -8 23.5 -19.5t28.5 -21.5q20 -14 46.5 -38t48 -50.5t21.5 -50.5q1 -43 -30 -43q-27 0 -61 25.5t-48 39.5l-43 29q-14 10 -30.5 20.5t-32.5 22.5q-33 20 -68 38.5t-41 24.5l-22 21q-10 10 -17 14q-8 10 -8 21z" />
<glyph unicode="&#xf3;" d="M102 514q0 104 44 194.5t114 172.5t146 159q35 35 79.5 50.5t96.5 15.5q141 0 266 -29.5t222 -95.5t152.5 -170t55.5 -254q0 -123 -52 -225.5t-141.5 -177t-200 -114.5t-227.5 -40q-147 0 -274 64.5t-204 180t-77 269.5zM244 494q0 -119 50 -195t134 -111.5t184 -35.5 q94 0 187.5 26.5t169 80.5t122 136t46.5 195q0 102 -44 175t-116 119t-156 68.5t-164 22.5q-33 0 -72.5 -5t-76.5 -40q-45 -43 -91 -87t-85 -98q-39 -51 -63.5 -114.5t-24.5 -136.5zM506 1311q0 25 20.5 51.5t48 50t46.5 37.5q14 12 28.5 23.5t24.5 19.5t36.5 26.5t53.5 37 t33 20.5q10 4 15 4h14q27 0 54 -19.5t27 -35.5q0 -8 -12 -21l-12 -14q-4 -6 -11.5 -11t-11.5 -10q-8 -8 -42.5 -25.5t-67.5 -39.5l-64 -41q-35 -25 -41 -31q-14 -12 -48.5 -37.5t-61.5 -25.5q-29 0 -29 41z" />
<glyph unicode="&#xf4;" d="M102 514q0 104 44 194.5t114 172.5t146 159q35 35 79.5 50.5t96.5 15.5q141 0 266 -29.5t222 -95.5t152.5 -170t55.5 -254q0 -123 -52 -225.5t-141.5 -177t-200 -114.5t-227.5 -40q-147 0 -274 64.5t-204 180t-77 269.5zM244 494q0 -119 50 -195t134 -111.5t184 -35.5 q94 0 187.5 26.5t169 80.5t122 136t46.5 195q0 102 -44 175t-116 119t-156 68.5t-164 22.5q-33 0 -72.5 -5t-76.5 -40q-45 -43 -91 -87t-85 -98q-39 -51 -63.5 -114.5t-24.5 -136.5zM365 1280q0 25 26.5 63.5t66.5 80.5t82 78t73 50q16 12 51 13q31 0 51 -13 q51 -31 109.5 -83t99.5 -104t41 -85q0 -43 -37 -43q-20 0 -42.5 12.5t-35.5 20.5q-20 16 -60 52t-77 68.5t-53 39.5q-16 -6 -50 -35t-68 -62t-52 -49q-14 -14 -42.5 -33.5t-51.5 -19.5q-31 0 -31 49z" />
<glyph unicode="&#xf5;" d="M102 514q0 104 44 194.5t114 172.5t146 159q35 35 79.5 50.5t96.5 15.5q141 0 266 -29.5t222 -95.5t152.5 -170t55.5 -254q0 -123 -52 -225.5t-141.5 -177t-200 -114.5t-227.5 -40q-147 0 -274 64.5t-204 180t-77 269.5zM244 494q0 -119 50 -195t134 -111.5t184 -35.5 q94 0 187.5 26.5t169 80.5t122 136t46.5 195q0 102 -44 175t-116 119t-156 68.5t-164 22.5q-33 0 -72.5 -5t-76.5 -40q-45 -43 -91 -87t-85 -98q-39 -51 -63.5 -114.5t-24.5 -136.5zM362 1317q0 18 13.5 47t33 57.5t37.5 44.5q27 23 52.5 35t56.5 12q49 0 85.5 -28.5 t69.5 -57t68 -28.5q31 0 47 15.5t37 35.5q12 12 26.5 24.5t32.5 12.5t31.5 -11.5t13.5 -35.5q0 -31 -22.5 -71t-61.5 -69.5t-90 -29.5q-57 0 -88 16.5t-48.5 38t-36.5 37.5t-56 16q-33 0 -49.5 -19.5t-38.5 -49.5q-8 -8 -15.5 -18.5t-17.5 -20.5q-17 -10 -25 -10 q-31 0 -43 18t-12 39z" />
<glyph unicode="&#xf6;" d="M102 514q0 104 44 194.5t114 172.5t146 159q35 35 79.5 50.5t96.5 15.5q141 0 266 -29.5t222 -95.5t152.5 -170t55.5 -254q0 -123 -52 -225.5t-141.5 -177t-200 -114.5t-227.5 -40q-147 0 -274 64.5t-204 180t-77 269.5zM244 494q0 -119 50 -195t134 -111.5t184 -35.5 q94 0 187.5 26.5t169 80.5t122 136t46.5 195q0 102 -44 175t-116 119t-156 68.5t-164 22.5q-33 0 -72.5 -5t-76.5 -40q-45 -43 -91 -87t-85 -98q-39 -51 -63.5 -114.5t-24.5 -136.5zM393 1366q0 47 34 90t95 43q47 0 68.5 -28.5t21.5 -65.5q0 -47 -33 -91t-94 -44 q-47 0 -69.5 28.5t-22.5 67.5zM788 1366q0 47 34 90t95 43q47 0 68.5 -28.5t21.5 -65.5q0 -47 -33 -91t-94 -44q-47 0 -69.5 28.5t-22.5 67.5z" />
<glyph unicode="&#xf7;" horiz-adv-x="935" d="M174 731q0 63 33 68q100 10 172 15t131 8t120.5 5t137.5 4q20 0 38.5 -24.5t18.5 -63.5q0 -12 -10 -32.5t-24 -18.5q-98 4 -228.5 -5t-331.5 -9q-33 0 -45 12t-12 41zM397 391q0 49 34 94t93 45q47 0 70.5 -29.5t23.5 -70.5q0 -49 -34 -94t-95 -45q-47 0 -69.5 30.5 t-22.5 69.5zM397 1057q0 49 34 94t93 45q47 0 70.5 -29.5t23.5 -70.5q0 -49 -34 -94.5t-95 -45.5q-47 0 -69.5 31t-22.5 70z" />
<glyph unicode="&#xf8;" d="M76 -211q0 18 12 37q33 47 95.5 138t142.5 211t170 256t183 276.5t180 272.5t160 243.5t124 187.5q45 68 69 68q16 0 31 -21q20 -35 21 -69q0 -29 -15 -56q-88 -143 -197.5 -312t-226 -345t-230.5 -345t-213 -316.5t-171 -256.5q-29 -43 -68 -43q-35 0 -55 31 q-4 8 -8 19.5t-4 23.5zM102 514q0 104 44 194.5t114 172.5t146 159q35 35 79.5 50.5t96.5 15.5q141 0 266 -29.5t222 -95.5t152.5 -170t55.5 -254q0 -123 -52 -225.5t-141.5 -177t-200 -114.5t-227.5 -40q-147 0 -274 64.5t-204 180t-77 269.5zM244 494q0 -119 50 -195 t134 -111.5t184 -35.5q94 0 187.5 26.5t169 80.5t122 136t46.5 195q0 102 -44 175t-116 119t-156 68.5t-164 22.5q-33 0 -72.5 -5t-76.5 -40q-45 -43 -91 -87t-85 -98q-39 -51 -63.5 -114.5t-24.5 -136.5z" />
<glyph unicode="&#xf9;" horiz-adv-x="1337" d="M121 428q0 72 2 116t9 91t22 129q8 41 16 83t23 81q16 47 35.5 66.5t33.5 19.5q39 0 58.5 -21.5t19.5 -54.5q0 -45 -12.5 -84t-20.5 -74q-14 -92 -24.5 -146t-15.5 -98t-5 -108q0 -31 5 -74t19.5 -84t43 -68.5t76.5 -27.5q49 0 93 36t62 58q139 176 248 344t215 367 q14 23 23.5 29t23.5 6q47 0 65.5 -16.5t18.5 -55.5q0 -25 -6 -59q-31 -154 -31 -305q0 -102 18.5 -190.5t59.5 -145.5q31 -39 31 -68q0 -35 -19.5 -55.5t-48.5 -20.5q-78 0 -123 123q-14 43 -31.5 109.5t-32 134t-18.5 113.5q-27 -43 -48 -85t-54 -90q-23 -33 -53.5 -74.5 t-65.5 -86.5q-72 -88 -158 -155t-180 -67q-104 0 -163.5 58.5t-85 152t-25.5 197.5zM469 1522q0 16 26.5 36.5t51.5 20.5q18 0 31 -4q8 -4 34.5 -21.5t54 -37t35.5 -27.5q10 -8 23.5 -19.5t28.5 -21.5q20 -14 46.5 -38t48 -50.5t21.5 -50.5q1 -43 -30 -43q-27 0 -61 25.5 t-48 39.5l-43 29q-14 10 -30.5 20.5t-32.5 22.5q-33 20 -68 38.5t-41 24.5l-22 21q-10 10 -17 14q-8 10 -8 21z" />
<glyph unicode="&#xfa;" horiz-adv-x="1337" d="M121 428q0 72 2 116t9 91t22 129q8 41 16 83t23 81q16 47 35.5 66.5t33.5 19.5q39 0 58.5 -21.5t19.5 -54.5q0 -45 -12.5 -84t-20.5 -74q-14 -92 -24.5 -146t-15.5 -98t-5 -108q0 -31 5 -74t19.5 -84t43 -68.5t76.5 -27.5q49 0 93 36t62 58q139 176 248 344t215 367 q14 23 23.5 29t23.5 6q47 0 65.5 -16.5t18.5 -55.5q0 -25 -6 -59q-31 -154 -31 -305q0 -102 18.5 -190.5t59.5 -145.5q31 -39 31 -68q0 -35 -19.5 -55.5t-48.5 -20.5q-78 0 -123 123q-14 43 -31.5 109.5t-32 134t-18.5 113.5q-27 -43 -48 -85t-54 -90q-23 -33 -53.5 -74.5 t-65.5 -86.5q-72 -88 -158 -155t-180 -67q-104 0 -163.5 58.5t-85 152t-25.5 197.5zM510 1311q0 25 20.5 51.5t48 50t46.5 37.5q14 12 28.5 23.5t24.5 19.5t36.5 26.5t53.5 37t33 20.5q10 4 15 4h14q27 0 54 -19.5t27 -35.5q0 -8 -12 -21l-12 -14q-4 -6 -11.5 -11t-11.5 -10 q-8 -8 -42.5 -25.5t-67.5 -39.5l-64 -41q-35 -25 -41 -31q-14 -12 -48.5 -37.5t-61.5 -25.5q-29 0 -29 41z" />
<glyph unicode="&#xfb;" horiz-adv-x="1337" d="M121 428q0 72 2 116t9 91t22 129q8 41 16 83t23 81q16 47 35.5 66.5t33.5 19.5q39 0 58.5 -21.5t19.5 -54.5q0 -45 -12.5 -84t-20.5 -74q-14 -92 -24.5 -146t-15.5 -98t-5 -108q0 -31 5 -74t19.5 -84t43 -68.5t76.5 -27.5q49 0 93 36t62 58q139 176 248 344t215 367 q14 23 23.5 29t23.5 6q47 0 65.5 -16.5t18.5 -55.5q0 -25 -6 -59q-31 -154 -31 -305q0 -102 18.5 -190.5t59.5 -145.5q31 -39 31 -68q0 -35 -19.5 -55.5t-48.5 -20.5q-78 0 -123 123q-14 43 -31.5 109.5t-32 134t-18.5 113.5q-27 -43 -48 -85t-54 -90q-23 -33 -53.5 -74.5 t-65.5 -86.5q-72 -88 -158 -155t-180 -67q-104 0 -163.5 58.5t-85 152t-25.5 197.5zM369 1280q0 25 26.5 63.5t66.5 80.5t82 78t73 50q16 12 51 13q31 0 51 -13q51 -31 109.5 -83t99.5 -104t41 -85q0 -43 -37 -43q-20 0 -42.5 12.5t-35.5 20.5q-20 16 -60 52t-77 68.5 t-53 39.5q-16 -6 -50 -35t-68 -62t-52 -49q-14 -14 -42.5 -33.5t-51.5 -19.5q-31 0 -31 49z" />
<glyph unicode="&#xfc;" horiz-adv-x="1337" d="M121 428q0 72 2 116t9 91t22 129q8 41 16 83t23 81q16 47 35.5 66.5t33.5 19.5q39 0 58.5 -21.5t19.5 -54.5q0 -45 -12.5 -84t-20.5 -74q-14 -92 -24.5 -146t-15.5 -98t-5 -108q0 -31 5 -74t19.5 -84t43 -68.5t76.5 -27.5q49 0 93 36t62 58q139 176 248 344t215 367 q14 23 23.5 29t23.5 6q47 0 65.5 -16.5t18.5 -55.5q0 -25 -6 -59q-31 -154 -31 -305q0 -102 18.5 -190.5t59.5 -145.5q31 -39 31 -68q0 -35 -19.5 -55.5t-48.5 -20.5q-78 0 -123 123q-14 43 -31.5 109.5t-32 134t-18.5 113.5q-27 -43 -48 -85t-54 -90q-23 -33 -53.5 -74.5 t-65.5 -86.5q-72 -88 -158 -155t-180 -67q-104 0 -163.5 58.5t-85 152t-25.5 197.5zM397 1366q0 47 34 90t95 43q47 0 68.5 -28.5t21.5 -65.5q0 -47 -33 -91t-94 -44q-47 0 -69.5 28.5t-22.5 67.5zM792 1366q0 47 34 90t95 43q47 0 68.5 -28.5t21.5 -65.5q0 -47 -33 -91 t-94 -44q-47 0 -69.5 28.5t-22.5 67.5z" />
<glyph unicode="&#xfd;" horiz-adv-x="1185" d="M102 840q0 41 2 79.5t11 77.5q10 47 25.5 62.5t29.5 15.5q47 0 66.5 -35.5t19.5 -103.5q0 -47 -6 -89t-6 -91v-21q0 -18 7 -70.5t15 -105.5t13 -80q10 -45 30.5 -95t58.5 -85t97 -35q80 0 142.5 58.5t114.5 151.5t95 196q16 35 30.5 69.5t29.5 67.5q16 33 30.5 61.5 t30.5 55.5q33 53 60.5 75.5t54.5 22.5t40 -14.5t13 -49.5q0 -63 -21.5 -124.5t-54.5 -122.5q-35 -63 -73.5 -125t-67.5 -123q-16 -37 -44 -99.5t-57.5 -129t-51 -117.5t-25.5 -64q-2 -10 -16.5 -46t-32 -85t-36 -99t-31.5 -86t-17 -46q-12 -37 -35 -90.5t-57 -95.5t-87 -42 q-6 0 -18 16.5t-12 49.5q0 29 7 57.5t19 57.5q14 31 28.5 61.5t29.5 61.5q12 31 29.5 77.5t33.5 95t27.5 83t11.5 38.5v54q-127 0 -211 47t-133 125t-71.5 173t-30 194.5t-7.5 185.5zM434 1311q0 25 20.5 51.5t48 50t46.5 37.5q14 12 28.5 23.5t24.5 19.5t36.5 26.5t53.5 37 t33 20.5q10 4 15 4h14q27 0 54 -19.5t27 -35.5q0 -8 -12 -21l-12 -14q-4 -6 -11.5 -11t-11.5 -10q-8 -8 -42.5 -25.5t-67.5 -39.5l-64 -41q-35 -25 -41 -31q-14 -12 -48.5 -37.5t-61.5 -25.5q-29 0 -29 41z" />
<glyph unicode="&#xfe;" horiz-adv-x="1267" d="M135 803q0 47 21.5 70.5t76.5 37.5l31 615q12 63 35 91t49 28q35 0 61.5 -43t22.5 -103q-18 -119 -32.5 -231.5t-24.5 -225.5q12 -4 22 -4q31 0 70 16.5t81 32t79 15.5h96q133 0 242.5 -43t175 -128t65.5 -212q0 -121 -50 -242t-137 -220t-199.5 -158.5t-237.5 -59.5 q-33 0 -64 7t-63 11q-23 4 -48.5 4h-66.5q0 -37 -3 -91t-8 -111.5t-8.5 -103.5t-3.5 -66v-8.5t-2 -12.5q-2 -8 -3 -20.5t-5 -22.5q-2 -23 -6 -45t-4 -37q-4 -23 -13.5 -51.5t-26.5 -49t-50 -20.5q-16 0 -27.5 8.5t-25.5 34.5v138q0 152 16 301t29 301l10 194v353 q-18 0 -46 6t-28 45zM348 633q0 -33 2 -70t2 -78v-170q0 -47 37 -78.5t88 -46t94 -14.5q102 0 191.5 48t158 128t106.5 173t38 184q0 98 -49 156.5t-124 84t-157 25.5q-41 0 -86 -3t-86 -22q-90 -39 -138 -85t-65 -109q-4 -14 -6 -31.5t-4 -34.5q0 -10 -1 -20.5t-1 -20.5 v-16z" />
<glyph unicode="&#xff;" horiz-adv-x="1185" d="M102 840q0 41 2 79.5t11 77.5q10 47 25.5 62.5t29.5 15.5q47 0 66.5 -35.5t19.5 -103.5q0 -47 -6 -89t-6 -91v-21q0 -18 7 -70.5t15 -105.5t13 -80q10 -45 30.5 -95t58.5 -85t97 -35q80 0 142.5 58.5t114.5 151.5t95 196q16 35 30.5 69.5t29.5 67.5q16 33 30.5 61.5 t30.5 55.5q33 53 60.5 75.5t54.5 22.5t40 -14.5t13 -49.5q0 -63 -21.5 -124.5t-54.5 -122.5q-35 -63 -73.5 -125t-67.5 -123q-16 -37 -44 -99.5t-57.5 -129t-51 -117.5t-25.5 -64q-2 -10 -16.5 -46t-32 -85t-36 -99t-31.5 -86t-17 -46q-12 -37 -35 -90.5t-57 -95.5t-87 -42 q-6 0 -18 16.5t-12 49.5q0 29 7 57.5t19 57.5q14 31 28.5 61.5t29.5 61.5q12 31 29.5 77.5t33.5 95t27.5 83t11.5 38.5v54q-127 0 -211 47t-133 125t-71.5 173t-30 194.5t-7.5 185.5zM322 1366q0 47 34 90t95 43q47 0 68.5 -28.5t21.5 -65.5q0 -47 -33 -91t-94 -44 q-47 0 -69.5 28.5t-22.5 67.5zM717 1366q0 47 34 90t95 43q47 0 68.5 -28.5t21.5 -65.5q0 -47 -33 -91t-94 -44q-47 0 -69.5 28.5t-22.5 67.5z" />
<glyph unicode="&#x152;" horiz-adv-x="2084" d="M102 645q0 268 126 440t370 273q66 25 143.5 48.5t141.5 23.5q61 0 111 -16.5t83 -53.5q8 -12 10.5 -19.5l4.5 -13.5l2 -6q10 4 24.5 9t30.5 7q133 23 253 37.5t251 14.5h78t99 -7.5t85 -28t35 -61.5q0 -23 -13.5 -39t-29.5 -16h-355q-68 0 -112.5 -41t-71.5 -105.5 t-38 -137t-11 -136.5q102 0 166.5 6t122.5 6h84q82 -27 82 -96q0 -49 -80 -55l-344 -23q-16 0 -33 -6q-12 -145 -74 -270q4 -63 32 -121.5t105 -75.5h107q55 0 109.5 9.5t109.5 17.5q53 10 101 18.5t100 8.5q41 0 53 -9.5t12 -54.5q0 -92 -184 -129q-43 -8 -88 -12t-86 -8 q-41 -2 -78 -2.5t-61 -0.5q-143 0 -224.5 50.5t-117.5 140.5q-86 -96 -205 -153.5t-260 -57.5q-127 0 -230.5 53t-178.5 145.5t-116 208t-41 238.5zM264 645q0 -88 24.5 -176t76 -159.5t132 -115.5t191.5 -44q150 0 249 83.5t153 200.5q-2 16 -2.5 34.5t-0.5 37.5v53.5 t3 52.5q-45 35 -57.5 49.5t-12.5 49.5q0 23 7 33t20 18q10 8 20 13t20 13q10 10 22.5 21.5t23.5 26.5q8 8 10 14q-12 63 -38 134t-65 133.5t-91 101t-120 38.5q-129 0 -233 -51t-179 -139t-114 -197.5t-39 -224.5z" />
<glyph unicode="&#x153;" horiz-adv-x="2150" d="M102 514q0 104 44 194.5t114 172.5t146 159q35 35 79.5 50.5t96.5 15.5q141 0 266 -29.5t222 -95.5t152.5 -170t55.5 -254q0 -123 -52 -225.5t-141.5 -177t-200 -114.5t-227.5 -40q-147 0 -274 64.5t-204 180t-77 269.5zM244 494q0 -119 50 -195t134 -111.5t184 -35.5 q94 0 187.5 26.5t169 80.5t122 136t46.5 195q0 102 -44 175t-116 119t-156 68.5t-164 22.5q-33 0 -72.5 -5t-76.5 -40q-45 -43 -91 -87t-85 -98q-39 -51 -63.5 -114.5t-24.5 -136.5zM1118 418q0 125 42 243.5t120 215t186.5 152.5t241.5 56q92 0 167 -34.5t120 -98 t45 -151.5q0 -94 -40 -179t-107.5 -150.5t-152.5 -103.5t-177 -38q-80 0 -149.5 13t-129.5 42q0 -78 37 -132t94.5 -88t120 -49.5t115.5 -15.5q43 0 86 5.5t94 5.5q76 0 76 -66q0 -51 -72 -65q-39 -8 -80 -9.5t-82 -1.5q-156 0 -281.5 46t-199.5 145.5t-74 257.5zM1284 532 q47 -25 119 -31.5t160 -6.5q72 0 149.5 28.5t132 90t54.5 155.5q0 84 -52.5 136t-138.5 52q-78 0 -152.5 -35.5t-136 -96t-98.5 -136.5t-37 -156z" />
<glyph unicode="&#x178;" horiz-adv-x="1206" d="M92 1374q0 35 20.5 55.5t47.5 20.5q68 0 102 -82q10 -20 16.5 -42.5t12.5 -45.5l11 -49.5t13 -40.5q8 -20 29 -64.5t49.5 -97.5t62 -101t68.5 -79t64 -31q72 0 147 109q29 41 57.5 94t59.5 108q37 66 70.5 127.5t70.5 101.5t78 40q31 0 44 -20.5t13 -51.5q0 -35 -13 -79 t-36 -83t-49 -77.5t-51 -73.5q-78 -106 -143.5 -188.5t-149.5 -159.5q-14 -59 -35.5 -160t-36.5 -246q-6 -68 -11 -129t-19.5 -100t-51.5 -39q-29 0 -54 32.5t-34 77.5v105q0 104 21.5 209.5t21.5 208.5v41q-80 80 -140 152.5t-106 150t-85 178.5q-20 53 -42 112.5 t-22 116.5zM332 1673q0 47 34 90t95 43q47 0 68.5 -28.5t21.5 -65.5q0 -47 -33 -91t-94 -44q-47 0 -69.5 28.5t-22.5 67.5zM727 1673q0 47 34 90t95 43q47 0 68.5 -28.5t21.5 -65.5q0 -47 -33 -91t-94 -44q-47 0 -69.5 28.5t-22.5 67.5z" />
<glyph unicode="&#x2c6;" horiz-adv-x="681" d="M0 1280q0 25 26.5 63.5t66.5 80.5t82 78t73 50q16 12 51 13q31 0 51 -13q51 -31 109.5 -83t99.5 -104t41 -85q0 -43 -37 -43q-20 0 -42.5 12.5t-35.5 20.5q-20 16 -60 52t-77 68.5t-53 39.5q-16 -6 -50 -35t-68 -62t-52 -49q-14 -14 -42.5 -33.5t-51.5 -19.5 q-31 0 -31 49z" />
<glyph unicode="&#x2dc;" horiz-adv-x="706" d="M0 1317q0 18 13.5 47t33 57.5t37.5 44.5q27 23 52.5 35t56.5 12q49 0 85.5 -28.5t69.5 -57t68 -28.5q31 0 47 15.5t37 35.5q12 12 26.5 24.5t32.5 12.5t31.5 -11.5t13.5 -35.5q0 -31 -22.5 -71t-61.5 -69.5t-90 -29.5q-57 0 -88 16.5t-48.5 38t-36.5 37.5t-56 16 q-33 0 -49.5 -19.5t-38.5 -49.5q-8 -8 -15.5 -18.5t-17.5 -20.5q-17 -10 -25 -10q-31 0 -43 18t-12 39z" />
<glyph unicode="&#x2000;" horiz-adv-x="996" />
<glyph unicode="&#x2001;" horiz-adv-x="1993" />
<glyph unicode="&#x2002;" horiz-adv-x="996" />
<glyph unicode="&#x2003;" horiz-adv-x="1993" />
<glyph unicode="&#x2004;" horiz-adv-x="664" />
<glyph unicode="&#x2005;" horiz-adv-x="498" />
<glyph unicode="&#x2006;" horiz-adv-x="332" />
<glyph unicode="&#x2007;" horiz-adv-x="332" />
<glyph unicode="&#x2008;" horiz-adv-x="249" />
<glyph unicode="&#x2009;" horiz-adv-x="398" />
<glyph unicode="&#x200a;" horiz-adv-x="110" />
<glyph unicode="&#x2010;" horiz-adv-x="937" d="M143 508q0 63 33 67q100 10 172 15.5t131.5 8.5t121 5t136.5 4q20 0 39 -24.5t19 -63.5q0 -12 -10.5 -32.5t-24.5 -18.5q-98 4 -228 -5t-331 -9q-33 0 -45.5 12t-12.5 41z" />
<glyph unicode="&#x2011;" horiz-adv-x="937" d="M143 508q0 63 33 67q100 10 172 15.5t131.5 8.5t121 5t136.5 4q20 0 39 -24.5t19 -63.5q0 -12 -10.5 -32.5t-24.5 -18.5q-98 4 -228 -5t-331 -9q-33 0 -45.5 12t-12.5 41z" />
<glyph unicode="&#x2012;" horiz-adv-x="937" d="M143 508q0 63 33 67q100 10 172 15.5t131.5 8.5t121 5t136.5 4q20 0 39 -24.5t19 -63.5q0 -12 -10.5 -32.5t-24.5 -18.5q-98 4 -228 -5t-331 -9q-33 0 -45.5 12t-12.5 41z" />
<glyph unicode="&#x2013;" horiz-adv-x="1314" d="M174 508q0 61 33 67q176 25 305 33t223 8q121 0 206 -5t169 -3q20 0 38.5 -24.5t18.5 -63.5q0 -12 -11 -32.5t-23 -18.5q-12 0 -30 1t-40 1q-70 0 -175.5 -2t-224 -6t-231.5 -6t-201 -2q-33 0 -45 12t-12 41z" />
<glyph unicode="&#x2014;" horiz-adv-x="1988" d="M174 508q0 61 33 67q176 25 391 33t422 8q174 0 328.5 -3t270.5 -5t171 0q20 0 38.5 -24.5t18.5 -63.5q0 -12 -11 -32.5t-24 -18.5q-12 0 -37.5 1t-62.5 1q-80 0 -204 -1t-271 -3t-299 -4t-291 -4t-248 -3t-168 -1q-33 0 -45 12t-12 41z" />
<glyph unicode="&#x2018;" horiz-adv-x="493" d="M123 1145q0 43 27.5 101.5t68.5 112.5t84 91t76 37t41 -33q0 -10 -4 -20l-21 -37q-8 -10 -26.5 -37t-35 -51.5t-20.5 -30.5q-10 -14 -18 -32.5t-14 -35.5q-6 -16 -12.5 -35.5t-14.5 -35.5q-31 -70 -72 -70q-20 0 -39.5 18.5t-19.5 57.5z" />
<glyph unicode="&#x2019;" horiz-adv-x="491" d="M74 1102q-2 6 4 18q4 10 9 19.5t9 19.5q10 12 28.5 38t35 50.5t20.5 30.5q10 14 17.5 31.5t13.5 36.5q6 16 13 35.5t16 35.5q31 70 71 70q16 0 32.5 -13.5t23.5 -41.5q2 -6 2 -21q0 -43 -27 -101.5t-68 -112.5t-83.5 -91t-75.5 -37t-41 33z" />
<glyph unicode="&#x201a;" horiz-adv-x="598" d="M-59 -659q-2 6 4 18q4 10 9 19.5t9 19.5q10 12 28.5 38t35 50.5t20.5 30.5q10 14 17.5 31.5t13.5 36.5q6 16 13 35.5t16 35.5q31 70 71 70q16 0 32.5 -13.5t23.5 -41.5q2 -6 2 -21q0 -43 -27 -101.5t-68 -112.5t-83.5 -91t-75.5 -37t-41 33z" />
<glyph unicode="&#x201c;" horiz-adv-x="784" d="M123 1145q0 43 26.5 101.5t67.5 112.5t84 91t76 37t41 -33v-4q0 -2 -1 -6t-3 -10q-2 -8 -8.5 -17.5t-10.5 -19.5q-8 -10 -27.5 -37t-36 -51.5t-20.5 -30.5q-8 -14 -16 -32.5t-14 -35.5q-6 -16 -13.5 -35.5t-15.5 -35.5q-31 -70 -72 -70q-20 0 -38.5 18.5t-18.5 57.5z M416 1145q0 43 26.5 101.5t67.5 112.5t84 91t76 37t41 -33v-4q0 -2 -1 -6t-3 -10q-2 -8 -8.5 -17.5t-10.5 -19.5q-8 -10 -27.5 -37t-36 -51.5t-20.5 -30.5q-8 -14 -16 -32.5t-15 -35.5q-6 -16 -13 -35.5t-15 -35.5q-31 -70 -72 -70q-20 0 -38.5 18.5t-18.5 57.5z" />
<glyph unicode="&#x201d;" horiz-adv-x="786" d="M76 1102q-2 8 2 18t10 19.5t10 19.5q10 12 28.5 38t35 50.5t20.5 30.5q10 14 17.5 31.5t13.5 36.5q6 16 12 35.5t15 35.5q33 70 73 70q16 0 32.5 -13.5t23.5 -41.5q2 -6 2 -21q0 -43 -27 -101.5t-67.5 -112.5t-83.5 -91t-76 -37t-41 33zM369 1102q-2 8 2 18t10 19.5 t10 19.5q10 12 28.5 38t35 50.5t20.5 30.5q10 14 17.5 31.5t13.5 36.5q6 16 12 35.5t14 35.5q33 70 74 70q16 0 32.5 -13.5t23.5 -41.5q2 -6 2 -21q0 -43 -27 -101.5t-68 -112.5t-83.5 -91t-75.5 -37t-41 33z" />
<glyph unicode="&#x201e;" horiz-adv-x="598" d="M-243 -659q-2 6 4 18q4 10 9 19.5t9 19.5q10 12 28.5 38t35 50.5t20.5 30.5q10 14 17.5 31.5t13.5 36.5q6 16 13 35.5t16 35.5q31 70 71 70q16 0 32.5 -13.5t23.5 -41.5q2 -6 2 -21q0 -43 -27 -101.5t-68 -112.5t-83.5 -91t-75.5 -37t-41 33zM23 -659q-2 6 4 18 q4 10 9 19.5t9 19.5q10 12 28.5 38t35 50.5t20.5 30.5q10 14 17.5 31.5t13.5 36.5q6 16 13 35.5t16 35.5q31 70 71 70q16 0 32.5 -13.5t23.5 -41.5q2 -6 2 -21q0 -43 -27 -101.5t-68 -112.5t-83.5 -91t-75.5 -37t-41 33z" />
<glyph unicode="&#x2022;" horiz-adv-x="577" d="M102 719q0 74 51.5 118t133.5 44q78 0 124 -43t46 -131q0 -70 -47.5 -110t-137.5 -40q-70 0 -120 44t-50 118z" />
<glyph unicode="&#x2026;" horiz-adv-x="1445" d="M297 98q0 51 34 96.5t93 45.5q47 0 70.5 -30t23.5 -71q0 -51 -34 -96t-93 -45q-47 0 -70.5 30.5t-23.5 69.5zM721 98q0 51 34 96.5t93 45.5q47 0 70.5 -30t23.5 -71q0 -51 -34 -96t-93 -45q-47 0 -70.5 30.5t-23.5 69.5zM1145 98q0 51 34 96.5t93 45.5q47 0 70.5 -30 t23.5 -71q0 -51 -34 -96t-93 -45q-47 0 -70.5 30.5t-23.5 69.5z" />
<glyph unicode="&#x202f;" horiz-adv-x="398" />
<glyph unicode="&#x2039;" horiz-adv-x="935" d="M205 586q0 43 53 92l338 305q39 33 96 33h31q8 -8 8 -25q0 -8 -1 -15t-1 -18q0 -35 -33.5 -73.5t-95.5 -85.5q-31 -23 -61.5 -43.5t-59.5 -42.5q-27 -20 -57.5 -45t-67.5 -72q53 -57 96.5 -94t81.5 -70q37 -29 75 -58.5t71 -62.5q4 -8 9 -20t5 -23q0 -12 -17 -27.5 t-52 -15.5t-78 25q-16 14 -49 41.5t-72 59.5t-70.5 58.5t-46.5 39.5q-10 12 -22.5 22l-22.5 18q-8 10 -17 17.5t-16 15.5q-25 29 -24 64z" />
<glyph unicode="&#x203a;" horiz-adv-x="935" d="M205 991q0 16 8 25h31q57 0 96 -33l338 -305q53 -49 54 -92q0 -35 -25 -64q-6 -8 -14.5 -15t-18.5 -18l-22.5 -18t-22.5 -22q-14 -12 -46 -39t-70.5 -59t-71.5 -59.5t-49 -41.5q-43 -25 -78 -25t-52.5 15.5t-17.5 27.5q0 10 5 22.5t9 20.5q35 33 72 62.5t74 58.5 q41 33 83 70t95 94q-37 47 -66.5 71.5t-58.5 45.5q-29 23 -59.5 43t-61.5 43q-61 47 -95 86t-34 73q0 10 -1 17.5t-1 15.5z" />
<glyph unicode="&#x205f;" horiz-adv-x="498" />
<glyph unicode="&#x20ac;" horiz-adv-x="1312" d="M14 481q0 23 23 29q27 4 57.5 11t81.5 16q2 29 3 37t4 15t10.5 32.5t19.5 87.5l-104 -29q-23 -6 -36.5 13.5t-13.5 45.5q0 25 12.5 45.5t39.5 20.5q31 2 64.5 11t78.5 18q76 139 192.5 257.5t258 191.5t284.5 73q78 0 152 -25q59 -18 83.5 -39.5t30 -40t0.5 -28.5 q-4 -12 -23.5 -25.5t-53.5 -13.5q-12 0 -27.5 2t-32.5 8q-63 20 -135 20q-156 0 -297 -101t-256 -263q109 0 204 3t177 3q111 0 199 -12q25 -4 36 -19.5t11 -33.5q0 -25 -17.5 -46.5t-40.5 -19.5q-76 12 -176 15t-209 3h-215q-14 -49 -22 -71.5t-12.5 -34.5t-7.5 -28.5 t-7 -53.5q117 0 225.5 7t202.5 7q41 0 79 -2t73 -8q41 -6 41 -35q0 -25 -30 -50t-54 -21q-39 6 -77 8t-79 2q-80 0 -170 -5t-201 -5q23 -141 78.5 -217t167.5 -111q43 -14 95.5 -22.5t105.5 -8.5q98 0 180 29q25 8 53.5 22.5t59.5 26.5q35 14 67 14q33 0 57.5 -19.5 t24.5 -49.5q0 -12 -6 -29q-8 -25 -49 -49q-20 -12 -43 -21.5t-45 -19.5q-143 -61 -293 -61q-55 0 -110.5 8t-112.5 26q-174 55 -275.5 161t-130.5 298q-55 -10 -80.5 -15t-48.5 -9q-8 -2 -24.5 25.5t-16.5 49.5z" />
<glyph unicode="&#x2122;" horiz-adv-x="1767" d="M20 1421q0 25 26 40.5t65 17.5q25 4 76 6t115.5 5t123.5 5t98 4q33 0 83 -3t91 -20.5t41 -58.5q0 -12 -11 -34.5t-26 -22.5q-8 0 -20 6q-14 8 -39 14q-39 10 -82 11.5t-117 1.5q-18 0 -18 -21q0 -49 -2 -115.5t-7 -137t-13.5 -132t-20.5 -102.5q-6 -29 -35 -51 q-8 -8 -21.5 -12.5t-17.5 -4.5q-16 0 -28.5 8.5t-12.5 26.5q0 4 -5 8t-3 6q33 139 42 255t9 261q-63 0 -97 -1t-73 -5q-10 -2 -24.5 -2h-26.5h-15t-16 2q-39 8 -39 45zM825 879q0 102 24.5 201.5t53.5 197.5q4 10 13.5 34.5t18.5 50.5t11 32q12 49 40 68.5t58 19.5 q29 0 54.5 -23.5t45 -53.5t25.5 -52q23 -51 32 -96.5t28 -98.5q6 -25 24 -24q23 0 39 43q14 31 27.5 70.5t25 74.5t17.5 49q18 43 51 79t74 36q31 0 55.5 -23.5t43 -55.5t26.5 -58q29 -104 46 -210t17 -212v-39q0 -14 -13 -17.5t-48 -3.5q-29 0 -43 33q-6 18 -8 37.5 t-4 40.5q-16 137 -26.5 204.5t-17 95.5t-12.5 48q-2 18 -18 19q-18 0 -29 -19q-8 -23 -28.5 -74t-41 -99t-26.5 -64q-6 -18 -22.5 -50t-38 -58t-48.5 -26q-31 0 -49 28t-24 46l-97 248q-2 8 -8 25.5t-29 17.5q-18 0 -26 -22.5t-8 -32.5q-2 -8 -7.5 -25.5t-9.5 -34.5 q-4 -14 -7 -27.5t-5 -21.5t-5 -24.5t-7 -36.5q-8 -55 -16.5 -105.5t-16.5 -109.5q-2 -27 -11 -54.5t-40 -27.5q-33 0 -46.5 27.5t-13.5 52.5z" />
<glyph unicode="&#x25fc;" horiz-adv-x="1085" d="M0 0v1085h1085v-1085h-1085z" />
<glyph unicode="&#xfb03;" horiz-adv-x="2359" d="M72 877q0 29 41 46t104.5 28.5t126.5 21.5q2 162 49 293t141.5 207.5t235.5 76.5q25 0 68 -3t88 -13t76.5 -31.5t31.5 -58.5q0 -33 -22.5 -54.5t-42.5 -21.5q-23 0 -44.5 6t-47.5 15q-29 10 -57.5 16t-61.5 6q-76 0 -126 -39t-80 -102.5t-42 -138t-12 -146.5h284 q14 0 34 -21.5t20 -43.5q0 -39 -40 -48.5t-75 -13.5q-14 0 -48 -5t-75 -10t-75 -9.5t-48 -4.5q-4 -55 -8 -144t-8 -198.5t-7 -224.5t-3 -223q0 -39 -10.5 -80t-57.5 -41q-27 0 -51.5 25.5t-24.5 58.5v813h-57q-25 0 -49.5 -5t-51.5 -5q-76 0 -75 72zM983 877q0 29 41 46 t104.5 28.5t126.5 21.5q2 162 49 293t141.5 207.5t235.5 76.5q25 0 68 -3t88 -13t76.5 -31.5t31.5 -58.5q0 -33 -22.5 -54.5t-42.5 -21.5q-23 0 -44.5 6t-47.5 15q-29 10 -57.5 16t-61.5 6q-76 0 -126 -39t-80 -102.5t-42 -138t-12 -146.5h284q14 0 34 -21.5t20 -43.5 q0 -39 -40 -48.5t-75 -13.5q-14 0 -48 -5t-75 -10t-75 -9.5t-48 -4.5q-4 -55 -8 -144t-8 -198.5t-7 -224.5t-3 -223q0 -39 -10.5 -80t-57.5 -41q-27 0 -51.5 25.5t-24.5 58.5v813h-57q-25 0 -49.5 -5t-51.5 -5q-76 0 -75 72zM1987 281q0 29 1 58.5t1 55.5q0 8 6 54.5 t14.5 107.5t17.5 121.5t15 95.5q6 27 14.5 71t30 80t62.5 36q47 0 66.5 -17.5t19.5 -54.5q0 -10 -1 -20.5t-3 -22.5q-10 -66 -25.5 -163t-27 -202.5t-7.5 -199.5q2 -23 5 -52.5t3 -58.5q0 -53 -22.5 -96t-100.5 -43q-29 0 -44 36.5t-20 94t-5 119.5zM2016 1454q0 47 45 72.5 t114 25.5q70 0 109 -31.5t39 -86.5q0 -45 -44 -70t-116 -25q-68 0 -107.5 32t-39.5 83z" />
<glyph unicode="&#xfb04;" horiz-adv-x="2357" d="M72 877q0 29 41 46t104.5 28.5t126.5 21.5q2 162 49 293t141.5 207.5t235.5 76.5q25 0 68 -3t88 -13t76.5 -31.5t31.5 -58.5q0 -33 -22.5 -54.5t-42.5 -21.5q-23 0 -44.5 6t-47.5 15q-29 10 -57.5 16t-61.5 6q-76 0 -126 -39t-80 -102.5t-42 -138t-12 -146.5h284 q14 0 34 -21.5t20 -43.5q0 -39 -40 -48.5t-75 -13.5q-14 0 -48 -5t-75 -10t-75 -9.5t-48 -4.5q-4 -55 -8 -144t-8 -198.5t-7 -224.5t-3 -223q0 -39 -10.5 -80t-57.5 -41q-27 0 -51.5 25.5t-24.5 58.5v813h-57q-25 0 -49.5 -5t-51.5 -5q-76 0 -75 72zM983 877q0 29 41 46 t104.5 28.5t126.5 21.5q2 162 49 293t141.5 207.5t235.5 76.5q25 0 68 -3t88 -13t76.5 -31.5t31.5 -58.5q0 -33 -22.5 -54.5t-42.5 -21.5q-23 0 -44.5 6t-47.5 15q-29 10 -57.5 16t-61.5 6q-76 0 -126 -39t-80 -102.5t-42 -138t-12 -146.5h284q14 0 34 -21.5t20 -43.5 q0 -39 -40 -48.5t-75 -13.5q-14 0 -48 -5t-75 -10t-75 -9.5t-48 -4.5q-4 -55 -8 -144t-8 -198.5t-7 -224.5t-3 -223q0 -39 -10.5 -80t-57.5 -41q-27 0 -51.5 25.5t-24.5 58.5v813h-57q-25 0 -49.5 -5t-51.5 -5q-76 0 -75 72zM2011 336q0 102 6.5 248.5t17.5 309.5 t26.5 318.5t33.5 276.5q16 59 44 86t55 27q25 0 44 -23t19 -63v-14.5t-2 -14.5q-51 -248 -65.5 -518.5t-14.5 -519.5q0 -102 3 -181.5t3 -163.5q0 -45 -19 -79.5t-50 -34.5q-39 0 -59.5 30.5t-28.5 75.5t-9.5 90t-1.5 72q0 16 -1 36.5t-1 41.5z" />
</font>
</defs>
</svg>
